<?xml version="1.0" encoding="UTF-8"?><svg xmlns="http://www.w3.org/2000/svg" viewBox="0 0 620 430.75"><defs><style>.c{fill:#28212f;}.d{fill:#fff;font-family:National2-Regular, 'National 2';}.d,.e,.f,.g{font-size:19px;}.h{stroke:#fecc83;}.h,.i,.j{stroke-linecap:round;stroke-linejoin:round;stroke-width:2px;}.h,.i,.j,.k{fill:none;}.i{stroke:#d1506e;}.j{stroke:#ae7cb6;}.e{fill:#fecc83;}.e,.f,.g{font-family:National2-Bold, 'National 2';}.f{fill:#ae7cb6;}.g{fill:#d1506e;}.l{opacity:.51;}.k{stroke:#ccc;stroke-miterlimit:10;stroke-width:.25px;}</style></defs><g id="a"><rect class="c" x="-223.37" y="-3322.44" width="11086.49" height="5126.92"/></g><g id="b"><g><g class="l"><line class="k" x1="5.97" y1="270.68" x2="585.33" y2="270.68"/><line class="k" x1="5.97" y1="157.99" x2="585.33" y2="157.99"/><line class="k" x1="5.97" y1="44.03" x2="585.33" y2="44.03"/><text class="d" transform="translate(5.97 377.23)"><tspan x="0" y="0">200</tspan></text><text class="d" transform="translate(6.26 264.47)"><tspan x="0" y="0">300</tspan></text><text class="d" transform="translate(6.26 151.7)"><tspan x="0" y="0">400</tspan></text><text class="d" transform="translate(6.2 38.94)"><tspan x="0" y="0">500 minutes/day</tspan></text></g><line class="k" x1="111.42" y1="392.77" x2="111.42" y2="383.61"/><line class="k" x1="250.42" y1="392.77" x2="250.42" y2="383.61"/><line class="k" x1="390.42" y1="392.77" x2="390.42" y2="383.61"/><line class="k" x1="529.42" y1="392.77" x2="529.42" y2="383.61"/><line class="k" x1="6.92" y1="383.61" x2="585.42" y2="383.61"/><g class="l"><text class="d" transform="translate(89.99 408.96)"><tspan x="0" y="0">2005</tspan></text></g><g class="l"><text class="d" transform="translate(230.85 408.96)"><tspan x="0" y="0">2010</tspan></text></g><g class="l"><text class="d" transform="translate(370.67 408.96)"><tspan x="0" y="0">2015</tspan></text></g><g class="l"><text class="d" transform="translate(508.11 408.96)"><tspan x="0" y="0">2020</tspan></text></g><polyline class="j" points="55.68 356.05 83.53 355.47 111.39 370.5 139.25 373.74 167.11 361.78 194.96 365.81 222.82 362.77 250.68 363.51 278.54 365.24 306.4 364.63 334.25 362.46 362.11 363.27 389.97 352.39 417.83 343.26 445.69 354.95 473.54 336.22 501.4 327.98 529.26 282.23 557.12 276.74 584.98 300.78"/><polyline class="i" points="55.68 292.42 83.53 286.09 111.39 291.85 139.25 290.93 167.11 291.65 194.96 279.09 222.82 276.3 250.68 280.72 278.54 279.67 306.4 288.2 334.25 290.01 362.11 287.34 389.97 284.03 417.83 285.68 445.69 286.8 473.54 285.34 501.4 280.88 529.26 268.15 557.12 283.25 584.98 294.05"/><polyline class="h" points="55.68 111.98 83.53 106.65 111.39 115.34 139.25 116.62 167.11 116.4 194.96 113.2 222.82 98.16 250.68 107.88 278.54 115.91 306.4 108.22 334.25 112.58 362.11 108.9 389.97 106.3 417.83 110.52 445.69 111.33 473.54 117.08 501.4 97.25 529.26 74.37 557.12 88.91 584.98 93.65"/><text class="f" transform="translate(475.73 354.55)"><tspan x="0" y="0">34 or younger</tspan></text><text class="g" transform="translate(520.56 261.08)"><tspan x="0" y="0">35-64</tspan></text><text class="e" transform="translate(556.42 113.54)"><tspan x="0" y="0">65+</tspan></text></g></g></svg>