<?xml version="1.0" encoding="UTF-8"?><svg id="a" xmlns="http://www.w3.org/2000/svg" viewBox="0 0 620 571.47"><defs><style>.b{fill:#978191;}.b,.c,.d{font-family:"National 2 Web", -apple-system, BlinkMacSystemFont, Helvetica, Arial, sans-serif;}.c{fill:#989798;}.d{fill:#fff;}.d,.e{font-size:19.41px;}.f{stroke:#232034;stroke-width:4px;}.f,.g,.h,.i{stroke-linecap:round;stroke-linejoin:round;}.f,.g,.h,.i,.j,.k,.l{fill:none;}.g{stroke:#d3d3d3;}.g,.h,.i{stroke-width:2px;}.h{stroke:#c99958;}.i{stroke:#ae7cb6;}.m{fill:#ae7cb6;letter-spacing:0em;}.m,.n,.o{font-weight:bold;font-family:"National 2 Web", -apple-system, BlinkMacSystemFont, Helvetica, Arial, sans-serif;}.n{fill:#c99957;}.o{fill:#e9e8e7;}.j{stroke:#978191;}.j,.k,.l{stroke-miterlimit:10;}.k,.l{stroke:#ccc;}.p{opacity:.51;}.q{opacity:.5;}.l{stroke-width:.25px;}</style></defs><g><line class="l" x1="7.03" y1="392.72" x2="590.21" y2="392.72"/><line class="l" x1="7.03" y1="271.69" x2="590.21" y2="271.69"/><line class="l" x1="7.03" y1="150.66" x2="590.21" y2="150.66"/><line class="l" x1="7.03" y1="29.62" x2="590.21" y2="29.62"/><g class="q"><line class="k" x1="7.03" y1="513.76" x2="590.21" y2="513.76"/><line class="k" x1="590.21" y1="526.59" x2="590.21" y2="513.76"/><line class="k" x1="81.45" y1="526.59" x2="81.45" y2="513.76"/><line class="k" x1="166.24" y1="526.59" x2="166.24" y2="513.76"/><line class="k" x1="251.04" y1="526.59" x2="251.04" y2="513.76"/><line class="k" x1="420.62" y1="526.59" x2="420.62" y2="513.76"/><line class="k" x1="335.83" y1="526.59" x2="335.83" y2="513.76"/><line class="k" x1="505.41" y1="526.59" x2="505.41" y2="513.76"/></g></g><g class="p"><text class="d" transform="translate(8.13 259.19)"><tspan x="0" y="0">40%</tspan></text><text class="d" transform="translate(8.04 138.34)"><tspan x="0" y="0">60%</tspan></text><g><text class="d" transform="translate(8.13 500.9)"><tspan x="0" y="0">0%</tspan></text><text class="d" transform="translate(8.37 380.05)"><tspan x="0" y="0">20%</tspan></text><text class="d" transform="translate(6.92 17.49)"><tspan x="0" y="0">80% with others</tspan></text><text class="d" transform="translate(59.46 549.62)"><tspan x="0" y="0">12am</tspan></text><text class="d" transform="translate(147.36 549.62)"><tspan x="0" y="0">4am</tspan></text><text class="d" transform="translate(232.2 549.62)"><tspan x="0" y="0">8am</tspan></text><text class="d" transform="translate(314.1 549.62)"><tspan x="0" y="0">12pm</tspan></text><text class="d" transform="translate(401.17 549.62)"><tspan x="0" y="0">4pm</tspan></text><text class="d" transform="translate(486.01 549.62)"><tspan x="0" y="0">8pm</tspan></text><text class="d" transform="translate(568.22 549.62)"><tspan x="0" y="0">12am</tspan></text></g></g><text class="e" transform="translate(326.62 346.39)"><tspan class="b" x="0" y="0">People </tspan><tspan class="m" x="64.06" y="0">lowest on ladder</tspan></text><g><polyline class="f" points="81.55 427.13 85.11 396.58 88.67 458.21 92.22 455.5 95.78 439.26 99.33 445.64 102.89 453 106.45 450.1 110 446.86 113.56 442.36 117.12 438.28 120.67 439.69 124.23 443.7 127.78 448.97 131.34 455.26 134.9 459.87 138.45 464.29 142.01 464.03 145.57 463.17 149.12 462.88 152.68 464.8 156.23 466.44 159.79 468.24 163.35 469.97 166.9 476.33 170.46 481.57 174.02 487.1 177.57 492.32 181.13 497.96 184.69 498.01 188.24 497.79 191.8 496.86 195.35 495.8 198.91 492.89 202.47 489.96 206.02 487.37 209.58 481.67 213.14 475.92 216.69 471.61 220.25 464.37 223.8 456.62 227.36 452.01 230.92 436.66 234.47 420.89 238.03 408.13 241.59 392.05 245.14 375.35 248.7 368.22 252.25 348.72 255.81 327.74 259.37 310.52 262.92 290.92 266.48 272.14 270.04 265.06 273.59 249.07 277.15 233.93 280.7 222.15 284.26 208.76 287.82 196.59 291.37 193.14 294.93 184.99 298.49 176.62 302.04 169.7 305.6 161.55 309.16 153.88 312.71 148.59 316.27 140.92 319.82 133.74 323.38 128 326.94 122.35 330.49 117.86 334.05 116.05 337.61 113.15 341.16 109.43 344.72 106.33 348.27 103.63 351.83 101.2 355.39 99.61 358.94 98.14 362.5 96.78 366.06 95.36 369.61 94.54 373.17 93.47 376.72 93.49 380.28 92.86 383.84 92.36 387.39 90.66 390.95 89.49 394.51 87.62 398.06 86.36 401.62 85.95 405.17 86.32 408.73 86.86 412.29 87.48 415.84 89.2 419.4 90.21 422.96 89.71 426.51 89.18 430.07 89.02 433.63 89.27 437.18 88.26 440.74 88.2 444.29 86.76 447.85 84.35 451.41 79.62 454.96 74.87 458.52 69.87 462.08 65.89 465.63 61.37 469.19 58.56 472.74 57.28 476.3 55.05 479.86 53.71 483.41 52.96 486.97 53.03 490.53 52.57 494.08 53.97 497.64 55.54 501.19 58.36 504.75 61.08 508.31 67.03 511.86 73.15 515.42 79.68 518.98 88.62 522.53 97.2 526.09 104.63 529.65 118.45 533.2 132.78 536.76 146.22 540.31 164.06 543.87 180.8 547.43 192.94 550.98 215.94 554.54 237.39 558.1 255.49 561.65 277.83 565.21 298.96 568.76 309.56 572.32 328.41 575.88 348.39 579.43 364.39 582.99 383.89 586.55 402.81 590.1 414.46"/><polyline class="f" points="81.55 408.95 85.11 393.16 88.67 432.38 92.22 421.41 95.78 413.99 99.33 416.69 102.89 426.13 106.45 430.79 110 438.75 113.56 450.46 117.12 463.68 120.67 472.81 124.23 478.67 127.78 484.06 131.34 487.63 134.9 487.62 138.45 488.11 142.01 489.39 145.57 489.52 149.12 488.12 152.68 487.12 156.23 485.29 159.79 483.37 163.35 477.23 166.9 480.05 170.46 482.86 174.02 486.84 177.57 490.22 181.13 498.5 184.69 498.89 188.24 498.29 191.8 497.34 195.35 495.69 198.91 492.88 202.47 489.65 206.02 486.84 209.58 478.86 213.14 470.96 216.69 462.16 220.25 448.19 223.8 434.84 227.36 425.82 230.92 407.31 234.47 387.24 238.03 373.23 241.59 355.99 245.14 338.9 248.7 329.49 252.25 312.68 255.81 295.11 259.37 280.42 262.92 261.57 266.48 244.87 270.04 238.53 273.59 224.97 277.15 208.85 280.7 197.83 284.26 181.71 287.82 168.1 291.37 162.67 294.93 155.6 298.49 147.24 302.04 144.67 305.6 139.3 309.16 130.37 312.71 124.11 316.27 115.87 319.82 106.23 323.38 97.16 326.94 87.82 330.49 79.76 334.05 75.29 337.61 73.47 341.16 71.62 344.72 72.96 348.27 75.9 351.83 75.77 355.39 73.97 358.94 71.41 362.5 69.49 366.06 68.08 369.61 69.81 373.17 71.4 376.72 73.63 380.28 76.61 383.84 78.42 387.39 78.83 390.95 78.43 394.51 78.68 398.06 76.84 401.62 75.19 405.17 73.83 408.73 73.14 412.29 72.55 415.84 72.23 419.4 70.03 422.96 69.2 426.51 69.52 430.07 68.55 433.63 68.67 437.18 69.31 440.74 68.7 444.29 65.97 447.85 63.71 451.41 62.05 454.96 60.4 458.52 59.23 462.08 58.73 465.63 57.71 469.19 55.67 472.74 55.56 476.3 55.46 479.86 55.56 483.41 58.4 486.97 60.24 490.53 60.38 494.08 60.95 497.64 61.6 501.19 60.71 504.75 62.22 508.31 67.63 511.86 73.62 515.42 80.38 518.98 89.13 522.53 96.12 526.09 101.32 529.65 114.93 533.2 129.46 536.76 142.63 540.31 159.59 543.87 177.25 547.43 187.4 550.98 206.85 554.54 228.18 558.1 247.23 561.65 272.26 565.21 296.42 568.76 313.08 572.32 338.21 575.88 362.7 579.43 379.97 582.99 399.98 586.55 417.24 590.1 424.7"/><polyline class="h" points="81.55 427.13 85.11 396.58 88.67 458.21 92.22 455.5 95.78 439.26 99.33 445.64 102.89 453 106.45 450.1 110 446.86 113.56 442.36 117.12 438.28 120.67 439.69 124.23 443.7 127.78 448.97 131.34 455.26 134.9 459.87 138.45 464.29 142.01 464.03 145.57 463.17 149.12 462.88 152.68 464.8 156.23 466.44 159.79 468.24 163.35 469.97 166.9 476.33 170.46 481.57 174.02 487.1 177.57 492.32 181.13 497.96 184.69 498.01 188.24 497.79 191.8 496.86 195.35 495.8 198.91 492.89 202.47 489.96 206.02 487.37 209.58 481.67 213.14 475.92 216.69 471.61 220.25 464.37 223.8 456.62 227.36 452.01 230.92 436.66 234.47 420.89 238.03 408.13 241.59 392.05 245.14 375.35 248.7 368.22 252.25 348.72 255.81 327.74 259.37 310.52 262.92 290.92 266.48 272.14 270.04 265.06 273.59 249.07 277.15 233.93 280.7 222.15 284.26 208.76 287.82 196.59 291.37 193.14 294.93 184.99 298.49 176.62 302.04 169.7 305.6 161.55 309.16 153.88 312.71 148.59 316.27 140.92 319.82 133.74 323.38 128 326.94 122.35 330.49 117.86 334.05 116.05 337.61 113.15 341.16 109.43 344.72 106.33 348.27 103.63 351.83 101.2 355.39 99.61 358.94 98.14 362.5 96.78 366.06 95.36 369.61 94.54 373.17 93.47 376.72 93.49 380.28 92.86 383.84 92.36 387.39 90.66 390.95 89.49 394.51 87.62 398.06 86.36 401.62 85.95 405.17 86.32 408.73 86.86 412.29 87.48 415.84 89.2 419.4 90.21 422.96 89.71 426.51 89.18 430.07 89.02 433.63 89.27 437.18 88.26 440.74 88.2 444.29 86.76 447.85 84.35 451.41 79.62 454.96 74.87 458.52 69.87 462.08 65.89 465.63 61.37 469.19 58.56 472.74 57.28 476.3 55.05 479.86 53.71 483.41 52.96 486.97 53.03 490.53 52.57 494.08 53.97 497.64 55.54 501.19 58.36 504.75 61.08 508.31 67.03 511.86 73.15 515.42 79.68 518.98 88.62 522.53 97.2 526.09 104.63 529.65 118.45 533.2 132.78 536.76 146.22 540.31 164.06 543.87 180.8 547.43 192.94 550.98 215.94 554.54 237.39 558.1 255.49 561.65 277.83 565.21 298.96 568.76 309.56 572.32 328.41 575.88 348.39 579.43 364.39 582.99 383.89 586.55 402.81 590.1 414.46"/><polyline class="g" points="81.55 408.95 85.11 393.16 88.67 432.38 92.22 421.41 95.78 413.99 99.33 416.69 102.89 426.13 106.45 430.79 110 438.75 113.56 450.46 117.12 463.68 120.67 472.81 124.23 478.67 127.78 484.06 131.34 487.63 134.9 487.62 138.45 488.11 142.01 489.39 145.57 489.52 149.12 488.12 152.68 487.12 156.23 485.29 159.79 483.37 163.35 477.23 166.9 480.05 170.46 482.86 174.02 486.84 177.57 490.22 181.13 498.5 184.69 498.89 188.24 498.29 191.8 497.34 195.35 495.69 198.91 492.88 202.47 489.65 206.02 486.84 209.58 478.86 213.14 470.96 216.69 462.16 220.25 448.19 223.8 434.84 227.36 425.82 230.92 407.31 234.47 387.24 238.03 373.23 241.59 355.99 245.14 338.9 248.7 329.49 252.25 312.68 255.81 295.11 259.37 280.42 262.92 261.57 266.48 244.87 270.04 238.53 273.59 224.97 277.15 208.85 280.7 197.83 284.26 181.71 287.82 168.1 291.37 162.67 294.93 155.6 298.49 147.24 302.04 144.67 305.6 139.3 309.16 130.37 312.71 124.11 316.27 115.87 319.82 106.23 323.38 97.16 326.94 87.82 330.49 79.76 334.05 75.29 337.61 73.47 341.16 71.62 344.72 72.96 348.27 75.9 351.83 75.77 355.39 73.97 358.94 71.41 362.5 69.49 366.06 68.08 369.61 69.81 373.17 71.4 376.72 73.63 380.28 76.61 383.84 78.42 387.39 78.83 390.95 78.43 394.51 78.68 398.06 76.84 401.62 75.19 405.17 73.83 408.73 73.14 412.29 72.55 415.84 72.23 419.4 70.03 422.96 69.2 426.51 69.52 430.07 68.55 433.63 68.67 437.18 69.31 440.74 68.7 444.29 65.97 447.85 63.71 451.41 62.05 454.96 60.4 458.52 59.23 462.08 58.73 465.63 57.71 469.19 55.67 472.74 55.56 476.3 55.46 479.86 55.56 483.41 58.4 486.97 60.24 490.53 60.38 494.08 60.95 497.64 61.6 501.19 60.71 504.75 62.22 508.31 67.63 511.86 73.62 515.42 80.38 518.98 89.13 522.53 96.12 526.09 101.32 529.65 114.93 533.2 129.46 536.76 142.63 540.31 159.59 543.87 177.25 547.43 187.4 550.98 206.85 554.54 228.18 558.1 247.23 561.65 272.26 565.21 296.42 568.76 313.08 572.32 338.21 575.88 362.7 579.43 379.97 582.99 399.98 586.55 417.24 590.1 424.7"/><polyline class="f" points="81.55 363.84 85.11 383.54 88.67 418.27 92.22 455.26 95.78 410.27 99.33 427.28 102.89 442.25 106.45 451.44 110 453.41 113.56 460.81 117.12 465.69 120.67 464.55 124.23 472.09 127.78 479.5 131.34 486.45 134.9 491.71 138.45 501.68 142.01 503.93 145.57 504.61 149.12 505.3 152.68 506.51 156.23 506.59 159.79 502.54 163.35 502.54 166.9 503.76 170.46 504.99 174.02 506.3 177.57 509.64 181.13 510.87 184.69 510.87 188.24 509.9 191.8 509.38 195.35 509.28 198.91 508.65 202.47 508.02 206.02 503.68 209.58 497.32 213.14 490.13 216.69 482.76 220.25 472.44 223.8 466.24 227.36 460.28 230.92 454.28 234.47 446.46 238.03 442.26 241.59 437.09 245.14 423.14 248.7 411.12 252.25 392.57 255.81 373.56 259.37 361.8 262.92 357.21 266.48 347.72 270.04 346.12 273.59 336.89 277.15 320.95 280.7 307.1 284.26 293.05 287.82 279.8 291.37 274.42 294.93 267.58 298.49 259.81 302.04 252.64 305.6 244.05 309.16 234.12 312.71 225.99 316.27 222.24 319.82 220.96 323.38 219.93 326.94 218.31 330.49 217.63 334.05 211.94 337.61 203.96 341.16 201.66 344.72 201.83 348.27 202.54 351.83 200.9 355.39 205.38 358.94 205.7 362.5 206.81 366.06 205.35 369.61 208.19 373.17 207.56 376.72 205.84 380.28 200.7 383.84 197.67 387.39 192.46 390.95 188 394.51 184.48 398.06 182.57 401.62 181.05 405.17 182.35 408.73 182.91 412.29 188.88 415.84 193.11 419.4 195.3 422.96 198 426.51 199.08 430.07 191.19 433.63 186.57 437.18 181.66 440.74 177.64 444.29 175.65 447.85 175.64 451.41 170.25 454.96 165.18 458.52 155.48 462.08 149.39 465.63 142.09 469.19 139.18 472.74 137.74 476.3 141.94 479.86 142.76 483.41 146.67 486.97 149.92 490.53 154.56 494.08 160.09 497.64 161.91 501.19 162.87 504.75 165.87 508.31 171.87 511.86 175.81 515.42 181.55 518.98 192.01 522.53 200.82 526.09 207.2 529.65 214.95 533.2 224.85 536.76 234.15 540.31 248.33 543.87 260.44 547.43 270.34 550.98 287.67 554.54 301 558.1 306.46 561.65 316.42 565.21 325.41 568.76 324.42 572.32 326.59 575.88 331.73 579.43 334.89 582.99 340.57 586.55 348.41 590.1 353.14"/><polyline class="i" points="81.55 363.84 85.11 383.54 88.67 418.27 92.22 455.26 95.78 410.27 99.33 427.28 102.89 442.25 106.45 451.44 110 453.41 113.56 460.81 117.12 465.69 120.67 464.55 124.23 472.09 127.78 479.5 131.34 486.45 134.9 491.71 138.45 501.68 142.01 503.93 145.57 504.61 149.12 505.3 152.68 506.51 156.23 506.59 159.79 502.54 163.35 502.54 166.9 503.76 170.46 504.99 174.02 506.3 177.57 509.64 181.13 510.87 184.69 510.87 188.24 509.9 191.8 509.38 195.35 509.28 198.91 508.65 202.47 508.02 206.02 503.68 209.58 497.32 213.14 490.13 216.69 482.76 220.25 472.44 223.8 466.24 227.36 460.28 230.92 454.28 234.47 446.46 238.03 442.26 241.59 437.09 245.14 423.14 248.7 411.12 252.25 392.57 255.81 373.56 259.37 361.8 262.92 357.21 266.48 347.72 270.04 346.12 273.59 336.89 277.15 320.95 280.7 307.1 284.26 293.05 287.82 279.8 291.37 274.42 294.93 267.58 298.49 259.81 302.04 252.64 305.6 244.05 309.16 234.12 312.71 225.99 316.27 222.24 319.82 220.96 323.38 219.93 326.94 218.31 330.49 217.63 334.05 211.94 337.61 203.96 341.16 201.66 344.72 201.83 348.27 202.54 351.83 200.9 355.39 205.38 358.94 205.7 362.5 206.81 366.06 205.35 369.61 208.19 373.17 207.56 376.72 205.84 380.28 200.7 383.84 197.67 387.39 192.46 390.95 188 394.51 184.48 398.06 182.57 401.62 181.05 405.17 182.35 408.73 182.91 412.29 188.88 415.84 193.11 419.4 195.3 422.96 198 426.51 199.08 430.07 191.19 433.63 186.57 437.18 181.66 440.74 177.64 444.29 175.65 447.85 175.64 451.41 170.25 454.96 165.18 458.52 155.48 462.08 149.39 465.63 142.09 469.19 139.18 472.74 137.74 476.3 141.94 479.86 142.76 483.41 146.67 486.97 149.92 490.53 154.56 494.08 160.09 497.64 161.91 501.19 162.87 504.75 165.87 508.31 171.87 511.86 175.81 515.42 181.55 518.98 192.01 522.53 200.82 526.09 207.2 529.65 214.95 533.2 224.85 536.76 234.15 540.31 248.33 543.87 260.44 547.43 270.34 550.98 287.67 554.54 301 558.1 306.46 561.65 316.42 565.21 325.41 568.76 324.42 572.32 326.59 575.88 331.73 579.43 334.89 582.99 340.57 586.55 348.41 590.1 353.14"/></g><line class="j" x1="425.86" y1="313.79" x2="425.86" y2="211.93"/><text class="e" transform="translate(214.92 59.16)"><tspan class="o" x="0" y="0">Top</tspan><tspan class="c" x="35.26" y="0" xml:space="preserve"> and </tspan><tspan class="n" x="77.24" y="0">middle</tspan></text></svg>