<?xml version="1.0" encoding="UTF-8"?><svg xmlns="http://www.w3.org/2000/svg" viewBox="0 0 800 500"><defs><style>.c{fill:#999;}.c,.d,.e{font-family:National2-Regular, 'National 2';}.d{fill:#998191;}.f{fill:#222034;}.e{fill:#fff;}.e,.g{font-size:24px;}.h{stroke:#cb9a59;}.h,.i{stroke-width:2px;}.h,.i,.j,.k,.l,.m,.n{fill:none;stroke-miterlimit:10;}.i{stroke:#d3d3d3;}.j{stroke:#e44799;stroke-width:4px;}.o{fill:#ca9958;}.o,.p,.q{font-family:National2-Bold, 'National 2';}.p{fill:#e44799;}.q{fill:#e8e8e8;}.k{stroke:#998191;}.l{stroke:#ccc;}.r{opacity:.51;}.s{opacity:.5;}.m{stroke:#222034;stroke-linecap:round;stroke-width:10px;}.n{stroke:#6d5468;stroke-width:.25px;}</style></defs><g id="a"><rect class="f" x="-6.19" y="-2.96" width="812.39" height="513.52"/></g><g id="b"><line class="n" x1="4.8" y1="348.18" x2="767.71" y2="348.18"/><line class="n" x1="4.8" y1="247.86" x2="767.71" y2="247.86"/><line class="n" x1="4.8" y1="147.53" x2="767.71" y2="147.53"/><line class="n" x1="4.8" y1="47.21" x2="767.71" y2="47.21"/><g class="s"><line class="l" x1="4.8" y1="448.51" x2="767.71" y2="448.51"/><line class="l" x1="767.71" y1="459.15" x2="767.71" y2="448.51"/><line class="l" x1="102.16" y1="459.15" x2="102.16" y2="448.51"/><line class="l" x1="213.09" y1="459.15" x2="213.09" y2="448.51"/><line class="l" x1="324.01" y1="459.15" x2="324.01" y2="448.51"/><line class="l" x1="545.86" y1="459.15" x2="545.86" y2="448.51"/><line class="l" x1="434.94" y1="459.15" x2="434.94" y2="448.51"/><line class="l" x1="656.79" y1="459.15" x2="656.79" y2="448.51"/></g><g class="r"><text class="e" transform="translate(6.24 237.5)"><tspan x="0" y="0">40%</tspan></text><text class="e" transform="translate(6.12 137.32)"><tspan x="0" y="0">60%</tspan></text><g><text class="e" transform="translate(6.24 437.85)"><tspan x="0" y="0">0%</tspan></text><text class="e" transform="translate(6.56 337.67)"><tspan x="0" y="0">20%</tspan></text><text class="e" transform="translate(4.66 37.14)"><tspan x="0" y="0">80% with others</tspan></text><text class="e" transform="translate(85.16 486.28)"><tspan x="0" y="0">12a</tspan></text><text class="e" transform="translate(199.92 486.28)"><tspan x="0" y="0">4a</tspan></text><text class="e" transform="translate(310.91 486.28)"><tspan x="0" y="0">8a</tspan></text><text class="e" transform="translate(418.31 486.28)"><tspan x="0" y="0">12p</tspan></text><text class="e" transform="translate(531.99 486.28)"><tspan x="0" y="0">4p</tspan></text><text class="e" transform="translate(642.97 486.28)"><tspan x="0" y="0">8p</tspan></text><text class="e" transform="translate(750.71 486.28)"><tspan x="0" y="0">12a</tspan></text></g></g><text class="g" transform="translate(422.89 309.78)"><tspan class="d" x="0" y="0">People </tspan><tspan class="p" x="79.22" y="0">lowest on ladder</tspan></text><g><polyline class="h" points="102.3 376.7 106.95 351.38 111.6 402.46 116.25 400.22 120.91 386.75 125.56 392.05 130.21 398.15 134.86 395.74 139.51 393.05 144.17 389.33 148.82 385.95 153.47 387.11 158.12 390.44 162.78 394.8 167.43 400.02 172.08 403.84 176.73 407.5 181.39 407.29 186.04 406.58 190.69 406.33 195.34 407.92 199.99 409.28 204.65 410.78 209.3 412.21 213.95 417.48 218.6 421.83 223.26 426.41 227.91 430.74 232.56 435.42 237.21 435.46 241.87 435.27 246.52 434.5 251.17 433.62 255.82 431.21 260.47 428.78 265.13 426.63 269.78 421.91 274.43 417.14 279.08 413.57 283.74 407.57 288.39 401.14 293.04 397.32 297.69 384.6 302.34 371.53 307 360.95 311.65 347.62 316.3 333.78 320.95 327.87 325.61 311.71 330.26 294.32 334.91 280.04 339.56 263.8 344.22 248.23 348.87 242.36 353.52 229.1 358.17 216.56 362.82 206.79 367.48 195.69 372.13 185.6 376.78 182.75 381.43 175.99 386.09 169.05 390.74 163.32 395.39 156.56 400.04 150.2 404.7 145.82 409.35 139.46 414 133.51 418.65 128.75 423.3 124.07 427.96 120.34 432.61 118.85 437.26 116.44 441.91 113.36 446.57 110.79 451.22 108.55 455.87 106.54 460.52 105.21 465.18 104 469.83 102.88 474.48 101.69 479.13 101.01 483.78 100.13 488.44 100.14 493.09 99.62 497.74 99.21 502.39 97.8 507.05 96.83 511.7 95.28 516.35 94.23 521 93.9 525.65 94.2 530.31 94.65 534.96 95.17 539.61 96.59 544.26 97.43 548.92 97.01 553.57 96.58 558.22 96.44 562.87 96.64 567.53 95.81 572.18 95.76 576.83 94.56 581.48 92.57 586.13 88.65 590.79 84.71 595.44 80.57 600.09 77.27 604.74 73.52 609.4 71.19 614.05 70.13 618.7 68.28 623.35 67.17 628.01 66.55 632.66 66.61 637.31 66.22 641.96 67.38 646.61 68.69 651.27 71.02 655.92 73.28 660.57 78.21 665.22 83.28 669.88 88.7 674.53 96.11 679.18 103.22 683.83 109.38 688.48 120.84 693.14 132.72 697.79 143.85 702.44 158.64 707.09 172.52 711.75 182.58 716.4 201.65 721.05 219.42 725.7 234.43 730.36 252.95 735.01 270.46 739.66 279.25 744.31 294.87 748.96 311.44 753.62 324.69 758.27 340.86 762.92 356.54 767.57 366.2"/><polyline class="i" points="102.3 361.63 106.95 348.54 111.6 381.06 116.25 371.96 120.91 365.81 125.56 368.04 130.21 375.88 134.86 379.73 139.51 386.34 144.17 396.04 148.82 407 153.47 414.56 158.12 419.42 162.78 423.89 167.43 426.85 172.08 426.84 176.73 427.25 181.39 428.31 186.04 428.42 190.69 427.25 195.34 426.42 199.99 424.91 204.65 423.32 209.3 418.23 213.95 420.56 218.6 422.9 223.26 426.2 227.91 429 232.56 435.86 237.21 436.18 241.87 435.68 246.52 434.9 251.17 433.53 255.82 431.2 260.47 428.53 265.13 426.19 269.78 419.58 274.43 413.03 279.08 405.74 283.74 394.16 288.39 383.09 293.04 375.62 297.69 360.27 302.34 343.64 307 332.02 311.65 317.73 316.3 303.57 320.95 295.77 325.61 281.83 330.26 267.27 334.91 255.09 339.56 239.47 344.22 225.63 348.87 220.37 353.52 209.13 358.17 195.76 362.82 186.63 367.48 173.28 372.13 161.99 376.78 157.49 381.43 151.63 386.09 144.7 390.74 142.57 395.39 138.12 400.04 130.71 404.7 125.53 409.35 118.7 414 110.71 418.65 103.19 423.3 95.44 427.96 88.76 432.61 85.06 437.26 83.55 441.91 82.02 446.57 83.13 451.22 85.57 455.87 85.46 460.52 83.96 465.18 81.84 469.83 80.25 474.48 79.08 479.13 80.52 483.78 81.83 488.44 83.68 493.09 86.15 497.74 87.66 502.39 88 507.05 87.66 511.7 87.87 516.35 86.34 521 84.98 525.65 83.85 530.31 83.27 534.96 82.79 539.61 82.52 544.26 80.7 548.92 80.01 553.57 80.27 558.22 79.47 562.87 79.57 567.53 80.1 572.18 79.59 576.83 77.34 581.48 75.46 586.13 74.09 590.79 72.71 595.44 71.75 600.09 71.34 604.74 70.48 609.4 68.8 614.05 68.7 618.7 68.63 623.35 68.7 628.01 71.06 632.66 72.58 637.31 72.7 641.96 73.17 646.61 73.71 651.27 72.97 655.92 74.23 660.57 78.71 665.22 83.67 669.88 89.28 674.53 96.53 679.18 102.32 683.83 106.64 688.48 117.92 693.14 129.96 697.79 140.87 702.44 154.94 707.09 169.57 711.75 177.99 716.4 194.11 721.05 211.79 725.7 227.58 730.36 248.33 735.01 268.35 739.66 282.17 744.31 303 748.96 323.29 753.62 337.61 758.27 354.19 762.92 368.51 767.57 374.68"/><polyline class="m" points="102.3 324.24 106.95 340.57 111.6 369.35 116.25 400.02 120.91 362.73 125.56 376.83 130.21 389.24 134.86 396.85 139.51 398.49 144.17 404.62 148.82 408.66 153.47 407.72 158.12 413.97 162.78 420.11 167.43 425.88 172.08 430.23 176.73 438.5 181.39 440.36 186.04 440.93 190.69 441.5 195.34 442.5 199.99 442.57 204.65 439.21 209.3 439.21 213.95 440.22 218.6 441.24 223.26 442.32 227.91 445.1 232.56 446.11 237.21 446.11 241.87 445.31 246.52 444.87 251.17 444.8 255.82 444.28 260.47 443.75 265.13 440.15 269.78 434.89 274.43 428.92 279.08 422.82 283.74 414.26 288.39 409.12 293.04 404.18 297.69 399.2 302.34 392.73 307 389.24 311.65 384.96 316.3 373.39 320.95 363.43 325.61 348.06 330.26 332.29 334.91 322.55 339.56 318.74 344.22 310.88 348.87 309.55 353.52 301.9 358.17 288.69 362.82 277.21 367.48 265.56 372.13 254.58 376.78 250.12 381.43 244.45 386.09 238.01 390.74 232.07 395.39 224.94 400.04 216.71 404.7 209.98 409.35 206.87 414 205.8 418.65 204.95 423.3 203.61 427.96 203.04 432.61 198.33 437.26 191.71 441.91 189.8 446.57 189.95 451.22 190.54 455.87 189.18 460.52 192.89 465.18 193.16 469.83 194.08 474.48 192.87 479.13 195.22 483.78 194.7 488.44 193.27 493.09 189.01 497.74 186.5 502.39 182.18 507.05 178.48 511.7 175.57 516.35 173.98 521 172.72 525.65 173.8 530.31 174.26 534.96 179.22 539.61 182.72 544.26 184.54 548.92 186.78 553.57 187.67 558.22 181.13 562.87 177.3 567.53 173.23 572.18 169.9 576.83 168.24 581.48 168.24 586.13 163.77 590.79 159.57 595.44 151.53 600.09 146.49 604.74 140.43 609.4 138.02 614.05 136.83 618.7 140.3 623.35 140.98 628.01 144.22 632.66 146.92 637.31 150.77 641.96 155.35 646.61 156.86 651.27 157.65 655.92 160.14 660.57 165.12 665.22 168.38 669.88 173.14 674.53 181.8 679.18 189.11 683.83 194.4 688.48 200.83 693.14 209.03 697.79 216.74 702.44 228.49 707.09 238.53 711.75 246.73 716.4 261.1 721.05 272.15 725.7 276.68 730.36 284.93 735.01 292.38 739.66 291.57 744.31 293.36 748.96 297.63 753.62 300.25 758.27 304.95 762.92 311.45 767.57 315.37"/><polyline class="j" points="102.3 324.24 106.95 340.57 111.6 369.35 116.25 400.02 120.91 362.73 125.56 376.83 130.21 389.24 134.86 396.85 139.51 398.49 144.17 404.62 148.82 408.66 153.47 407.72 158.12 413.97 162.78 420.11 167.43 425.88 172.08 430.23 176.73 438.5 181.39 440.36 186.04 440.93 190.69 441.5 195.34 442.5 199.99 442.57 204.65 439.21 209.3 439.21 213.95 440.22 218.6 441.24 223.26 442.32 227.91 445.1 232.56 446.11 237.21 446.11 241.87 445.31 246.52 444.87 251.17 444.8 255.82 444.28 260.47 443.75 265.13 440.15 269.78 434.89 274.43 428.92 279.08 422.82 283.74 414.26 288.39 409.12 293.04 404.18 297.69 399.2 302.34 392.73 307 389.24 311.65 384.96 316.3 373.39 320.95 363.43 325.61 348.06 330.26 332.29 334.91 322.55 339.56 318.74 344.22 310.88 348.87 309.55 353.52 301.9 358.17 288.69 362.82 277.21 367.48 265.56 372.13 254.58 376.78 250.12 381.43 244.45 386.09 238.01 390.74 232.07 395.39 224.94 400.04 216.71 404.7 209.98 409.35 206.87 414 205.8 418.65 204.95 423.3 203.61 427.96 203.04 432.61 198.33 437.26 191.71 441.91 189.8 446.57 189.95 451.22 190.54 455.87 189.18 460.52 192.89 465.18 193.16 469.83 194.08 474.48 192.87 479.13 195.22 483.78 194.7 488.44 193.27 493.09 189.01 497.74 186.5 502.39 182.18 507.05 178.48 511.7 175.57 516.35 173.98 521 172.72 525.65 173.8 530.31 174.26 534.96 179.22 539.61 182.72 544.26 184.54 548.92 186.78 553.57 187.67 558.22 181.13 562.87 177.3 567.53 173.23 572.18 169.9 576.83 168.24 581.48 168.24 586.13 163.77 590.79 159.57 595.44 151.53 600.09 146.49 604.74 140.43 609.4 138.02 614.05 136.83 618.7 140.3 623.35 140.98 628.01 144.22 632.66 146.92 637.31 150.77 641.96 155.35 646.61 156.86 651.27 157.65 655.92 160.14 660.57 165.12 665.22 168.38 669.88 173.14 674.53 181.8 679.18 189.11 683.83 194.4 688.48 200.83 693.14 209.03 697.79 216.74 702.44 228.49 707.09 238.53 711.75 246.73 716.4 261.1 721.05 272.15 725.7 276.68 730.36 284.93 735.01 292.38 739.66 291.57 744.31 293.36 748.96 297.63 753.62 300.25 758.27 304.95 762.92 311.45 767.57 315.37"/></g><line class="k" x1="552.71" y1="282.75" x2="552.71" y2="198.32"/><text class="g" transform="translate(462.99 53.01)"><tspan class="q" x="0" y="0">Top</tspan><tspan class="c" x="43.61" y="0" xml:space="preserve"> and </tspan><tspan class="o" x="95.52" y="0">middle</tspan></text></g></svg>