<?xml version="1.0" encoding="UTF-8"?><svg xmlns="http://www.w3.org/2000/svg" viewBox="0 0 620 417.39"><defs><style>.c{fill:#28212f;}.d{fill:#fff;font-family:"National 2 Web", -apple-system, BlinkMacSystemFont, Helvetica, Arial, sans-serif;}.d,.e,.f,.g{font-size:19px;}.h{stroke:#fecc84;}.h,.i,.j{stroke-linecap:round;stroke-linejoin:round;stroke-width:2px;}.h,.i,.j,.k{fill:none;}.i{stroke:#d1506e;}.j{stroke:#ae7cb6;}.e{fill:#fecc83;}.e,.f,.g{font-weight: bold; font-family:"National 2 Web", -apple-system, BlinkMacSystemFont, Helvetica, Arial, sans-serif, 'National 2';}.f{fill:#ae7cb6;}.g{fill:#d1506e;}.l{opacity:.51;}.k{stroke:#ccc;stroke-miterlimit:10;stroke-width:.25px;}</style></defs><g id="a"><rect class="c" x="-223.37" y="-1934.29" width="11086.49" height="5126.92"/></g><g id="b"><g class="l"><line class="k" x1="6.92" y1="311.13" x2="585.42" y2="311.13"/><line class="k" x1="6.92" y1="245.37" x2="585.42" y2="245.37"/><line class="k" x1="6.92" y1="178.37" x2="585.42" y2="178.37"/><line class="k" x1="6.92" y1="112.62" x2="585.42" y2="112.62"/><line class="k" x1="6.92" y1="45.62" x2="585.42" y2="45.62"/></g><polyline class="j" points="55.77 193.31 83.63 187.93 111.48 157.11 139.34 173.58 167.2 193.5 195.06 181.49 222.91 161.24 250.77 171.18 278.63 195.26 306.49 184.81 334.35 176.99 362.2 184.48 390.06 224.25 417.92 248.72 445.78 199.06 473.64 238.39 501.49 265.69 529.35 253.69 557.21 289.42 585.07 300.87"/><polyline class="i" points="55.77 90.54 83.63 113.52 111.48 104.61 139.34 124.08 167.2 94.81 195.06 118.4 222.91 101.5 250.77 112.83 278.63 120.19 306.49 114.92 334.35 109.55 362.2 143.7 390.06 130.05 417.92 135.36 445.78 152.46 473.64 149.87 501.49 168.04 529.35 144.11 557.21 148.67 585.07 142.87"/><polyline class="h" points="55.77 54.81 83.63 67.68 111.48 78.05 139.34 61.52 167.2 90.94 195.06 73.27 222.91 102.2 250.77 82.37 278.63 106.55 306.49 93.89 334.35 87.3 362.2 108.32 390.06 103.18 417.92 109.2 445.78 58.27 473.64 84.31 501.49 106.54 529.35 135.94 557.21 113.75 585.07 120.26"/><g class="l"><text class="d" transform="translate(9.98 372.99)"><tspan x="0" y="0">200</tspan></text></g><g class="l"><text class="d" transform="translate(9.98 306.69)"><tspan x="0" y="0">225</tspan></text></g><g class="l"><text class="d" transform="translate(9.98 240.4)"><tspan x="0" y="0">250</tspan></text></g><g class="l"><text class="d" transform="translate(9.98 174.11)"><tspan x="0" y="0">275</tspan></text></g><g class="l"><text class="d" transform="translate(9.82 107.81)"><tspan x="0" y="0">300</tspan></text></g><g class="l"><text class="d" transform="translate(9.82 41.52)"><tspan x="0" y="0">325 minutes/day</tspan></text></g><g class="l"><text class="d" transform="translate(89.99 403.35)"><tspan x="0" y="0">2005</tspan></text></g><g class="l"><text class="d" transform="translate(230.85 403.35)"><tspan x="0" y="0">2010</tspan></text></g><g class="l"><text class="d" transform="translate(370.67 403.35)"><tspan x="0" y="0">2015</tspan></text></g><g class="l"><text class="d" transform="translate(508.11 403.35)"><tspan x="0" y="0">2020</tspan></text></g><text class="f" transform="translate(475.73 228.99)"><tspan x="0" y="0">34 or younger</tspan></text><text class="g" transform="translate(438.52 140.92)"><tspan x="0" y="0">35-64</tspan></text><text class="e" transform="translate(482.36 82.56)"><tspan x="0" y="0">65+</tspan></text><line class="k" x1="111.42" y1="387.24" x2="111.42" y2="378.12"/><line class="k" x1="250.42" y1="387.24" x2="250.42" y2="378.12"/><line class="k" x1="390.42" y1="387.24" x2="390.42" y2="378.12"/><line class="k" x1="529.42" y1="387.24" x2="529.42" y2="378.12"/><line class="k" x1="6.92" y1="378.12" x2="585.42" y2="378.12"/></g></svg>