<?xml version="1.0" encoding="UTF-8"?><svg id="a" xmlns="http://www.w3.org/2000/svg" viewBox="0 0 400 404.56"><defs><style>.b{fill:#fff;font-family:"National 2 Web", -apple-system, BlinkMacSystemFont, Helvetica, Arial, sans-serif;}.b,.c,.d,.e{font-size:19px;}.f{stroke:#fecc83;}.f,.g,.h{stroke-linecap:round;stroke-linejoin:round;stroke-width:2px;}.f,.g,.h,.i{fill:none;}.g{stroke:#d1506e;}.h{stroke:#ae7cb6;}.c{fill:#fecc83;}.c,.d,.e{font-weight:bold;font-family:"National 2 Web", -apple-system, BlinkMacSystemFont, Helvetica, Arial, sans-serif;}.d{fill:#ae7cb6;}.e{fill:#d1506e;}.j{opacity:.51;}.i{stroke:#ccc;stroke-miterlimit:10;stroke-width:.25px;}</style></defs><g class="j"><line class="i" x1="4.34" y1="297.33" x2="394.79" y2="297.33"/><line class="i" x1="4.34" y1="229.95" x2="394.79" y2="229.95"/><line class="i" x1="4.34" y1="161.29" x2="394.79" y2="161.29"/><line class="i" x1="4.34" y1="93.91" x2="394.79" y2="93.91"/><line class="i" x1="4.34" y1="25.26" x2="394.79" y2="25.26"/><text class="b" transform="translate(4.34 358.85)"><tspan x="0" y="0">0</tspan></text><text class="b" transform="translate(4.47 290.91)"><tspan x="0" y="0">25</tspan></text><text class="b" transform="translate(4.63 222.98)"><tspan x="0" y="0">50</tspan></text><text class="b" transform="translate(4.59 155.05)"><tspan x="0" y="0">75</tspan></text><text class="b" transform="translate(4.75 87.11)"><tspan x="0" y="0">100</tspan></text><text class="b" transform="translate(4.75 19.18)"><tspan x="0" y="0">125 minutes/day</tspan></text></g><line class="i" x1="75.04" y1="374.7" x2="75.04" y2="365.91"/><line class="i" x1="168.81" y1="374.7" x2="168.81" y2="365.91"/><line class="i" x1="263.25" y1="374.7" x2="263.25" y2="365.91"/><line class="i" x1="357.01" y1="374.7" x2="357.01" y2="365.91"/><line class="i" x1="4.55" y1="365.91" x2="394.79" y2="365.91"/><g class="j"><text class="b" transform="translate(53.6 390.24)"><tspan x="0" y="0">2005</tspan></text></g><g class="j"><text class="b" transform="translate(149.12 390.24)"><tspan x="0" y="0">2010</tspan></text></g><g class="j"><text class="b" transform="translate(243.62 390.24)"><tspan x="0" y="0">2015</tspan></text></g><g class="j"><text class="b" transform="translate(335.73 390.24)"><tspan x="0" y="0">2020</tspan></text></g><text class="d" transform="translate(271.74 155.05)"><tspan x="0" y="0">34 or younger</tspan></text><text class="e" transform="translate(273.38 322.35)"><tspan x="0" y="0">35-64</tspan></text><text class="c" transform="translate(297.73 260.97)"><tspan x="0" y="0">65+</tspan></text><polyline class="h" points="37.5 75.4 56.29 92.1 75.08 98.72 93.88 136.01 112.67 142.55 131.46 144.75 150.25 140.81 169.05 100.8 187.84 118.04 206.63 114.07 225.42 122.06 244.22 147.17 263.01 159.73 281.8 165.6 300.59 183.49 319.39 185.31 338.18 221.07 356.97 272.08 375.76 265.26 394.55 262.47"/><polyline class="g" points="37.5 275.75 56.29 267.17 75.08 279.93 93.88 280.41 112.67 276.27 131.46 275.51 150.25 274.76 169.05 270.96 187.84 269.6 206.63 276.89 225.42 269.63 244.22 275.5 263.01 271.27 281.8 279.61 300.59 291.25 319.39 293.92 338.18 301.85 356.97 331.48 375.76 322.2 394.55 319.62"/><polyline class="f" points="37.5 256.04 56.29 244.75 75.08 249.59 93.88 247.84 112.67 241.22 131.46 266.17 150.25 259.92 169.05 268.25 187.84 264.81 206.63 248.06 225.42 251.37 244.22 258.5 263.01 265.92 281.8 256.37 300.59 277.78 319.39 278.46 338.18 287.68 356.97 330.93 375.76 315.25 394.55 314.68"/></svg>