<?xml version="1.0" encoding="UTF-8"?><svg xmlns="http://www.w3.org/2000/svg" viewBox="0 0 400 477.77"><defs><style>.c{fill:#989798;}.c,.d{font-family:National2-Regular, 'National 2';}.e{fill:#28212f;}.d{fill:#fff;}.d,.f{font-size:18px;}.g{stroke:#232034;stroke-width:4px;}.g,.h,.i,.j{stroke-linecap:round;stroke-linejoin:round;}.g,.h,.i,.j,.k,.l{fill:none;}.m{fill:#ae7cb6;font-size:18.07px;}.m,.n,.o{font-family:National2-Bold, 'National 2';}.h{stroke:#d3d3d3;}.h,.i,.j{stroke-width:2px;}.i{stroke:#c99958;}.j{stroke:#ae7cb6;}.n{fill:#c99957;}.o{fill:#e9e8e7;}.k,.l{stroke:#ccc;stroke-miterlimit:10;}.p{opacity:.51;}.q{opacity:.5;}.l{stroke-width:.25px;}</style></defs><g id="a"><rect class="e" x="-910.6" y="-224.9" width="11086.49" height="5126.92"/></g><g id="b"><g><line class="l" x1="5.41" y1="336" x2="381.05" y2="336"/><line class="l" x1="5.41" y1="240" x2="381.05" y2="240"/><line class="l" x1="5.41" y1="144" x2="381.05" y2="144"/><line class="l" x1="5.41" y1="48" x2="381.05" y2="48"/><g class="q"><line class="k" x1="5.41" y1="431.99" x2="381.05" y2="431.99"/><line class="k" x1="381.05" y1="442.17" x2="381.05" y2="431.99"/><line class="k" x1="53.35" y1="442.17" x2="53.35" y2="431.99"/><line class="k" x1="107.97" y1="442.17" x2="107.97" y2="431.99"/><line class="k" x1="162.58" y1="442.17" x2="162.58" y2="431.99"/><line class="k" x1="271.82" y1="442.17" x2="271.82" y2="431.99"/><line class="k" x1="217.2" y1="442.17" x2="217.2" y2="431.99"/><line class="k" x1="326.44" y1="442.17" x2="326.44" y2="431.99"/></g></g><g class="p"><text class="d" transform="translate(6.12 230.08)"><tspan x="0" y="0">40%</tspan></text><text class="d" transform="translate(6.06 134.23)"><tspan x="0" y="0">60%</tspan></text><g><text class="d" transform="translate(6.12 421.79)"><tspan x="0" y="0">0%</tspan></text><text class="d" transform="translate(6.28 325.94)"><tspan x="0" y="0">20%</tspan></text><text class="d" transform="translate(5.34 38.37)"><tspan x="0" y="0">80% with others</tspan></text><text class="d" transform="translate(32.96 460.44)"><tspan x="0" y="0">12am</tspan></text><text class="d" transform="translate(90.45 460.44)"><tspan x="0" y="0">4am</tspan></text><text class="d" transform="translate(145.12 460.44)"><tspan x="0" y="0">8am</tspan></text><text class="d" transform="translate(196.81 460.44)"><tspan x="0" y="0">12pm</tspan></text><text class="d" transform="translate(253.77 460.44)"><tspan x="0" y="0">4pm</tspan></text><text class="d" transform="translate(308.43 460.44)"><tspan x="0" y="0">8pm</tspan></text><text class="d" transform="translate(358.66 460.44)"><tspan x="0" y="0">12am</tspan></text></g></g><text class="m" transform="translate(239.21 209.25)"><tspan x="0" y="0">Lowest</tspan><tspan x="0" y="21.68">on ladder</tspan></text><g><polyline class="g" points="53.42 363.28 55.71 339.06 58 387.94 60.29 385.79 62.58 372.91 64.87 377.97 67.16 383.81 69.45 381.5 71.74 378.93 74.03 375.36 76.32 372.13 78.62 373.25 80.91 376.43 83.2 380.61 85.49 385.6 87.78 389.25 90.07 392.76 92.36 392.55 94.65 391.87 96.94 391.64 99.23 393.16 101.52 394.46 103.81 395.89 106.1 397.27 108.39 402.3 110.68 406.46 112.98 410.85 115.27 414.99 117.56 419.47 119.85 419.51 122.14 419.33 124.43 418.59 126.72 417.75 129.01 415.44 131.3 413.12 133.59 411.06 135.88 406.55 138.17 401.98 140.46 398.56 142.75 392.82 145.04 386.67 147.34 383.02 149.63 370.84 151.92 358.33 154.21 348.22 156.5 335.46 158.79 322.22 161.08 316.56 163.37 301.1 165.66 284.45 167.95 270.8 170.24 255.25 172.53 240.36 174.82 234.74 177.11 222.05 179.41 210.05 181.7 200.7 183.99 190.08 186.28 180.43 188.57 177.7 190.86 171.23 193.15 164.59 195.44 159.1 197.73 152.64 200.02 146.55 202.31 142.36 204.6 136.28 206.89 130.58 209.18 126.03 211.47 121.55 213.77 117.98 216.06 116.55 218.35 114.25 220.64 111.3 222.93 108.84 225.22 106.7 227.51 104.77 229.8 103.51 232.09 102.35 234.38 101.27 236.67 100.14 238.96 99.49 241.25 98.64 243.54 98.65 245.83 98.15 248.13 97.76 250.42 96.41 252.71 95.48 255 94 257.29 93 259.58 92.68 261.87 92.97 264.16 93.4 266.45 93.89 268.74 95.26 271.03 96.06 273.32 95.66 275.61 95.24 277.9 95.12 280.2 95.31 282.49 94.51 284.78 94.46 287.07 93.32 289.36 91.41 291.65 87.66 293.94 83.89 296.23 79.92 298.52 76.77 300.81 73.18 303.1 70.95 305.39 69.94 307.68 68.17 309.97 67.11 312.26 66.51 314.56 66.57 316.85 66.2 319.14 67.31 321.43 68.56 323.72 70.79 326.01 72.95 328.3 77.67 330.59 82.52 332.88 87.7 335.17 94.8 337.46 101.6 339.75 107.49 342.04 118.46 344.33 129.82 346.62 140.48 348.92 154.63 351.21 167.91 353.5 177.54 355.79 195.78 358.08 212.79 360.37 227.15 362.66 244.87 364.95 261.62 367.24 270.04 369.53 284.99 371.82 300.84 374.11 313.52 376.4 328.99 378.69 343.99 380.98 353.23"/><polyline class="g" points="53.42 348.86 55.71 336.34 58 367.45 60.29 358.74 62.58 352.86 64.87 355 67.16 362.49 69.45 366.19 71.74 372.5 74.03 381.79 76.32 392.28 78.62 399.51 80.91 404.16 83.2 408.44 85.49 411.27 87.78 411.26 90.07 411.65 92.36 412.67 94.65 412.77 96.94 411.66 99.23 410.86 101.52 409.42 103.81 407.89 106.1 403.02 108.39 405.26 110.68 407.49 112.98 410.65 115.27 413.32 117.56 419.89 119.85 420.2 122.14 419.72 124.43 418.97 126.72 417.67 129.01 415.44 131.3 412.87 133.59 410.64 135.88 404.31 138.17 398.05 140.46 391.07 142.75 379.99 145.04 369.4 147.34 362.25 149.63 347.56 151.92 331.65 154.21 320.53 156.5 306.86 158.79 293.31 161.08 285.84 163.37 272.51 165.66 258.57 167.95 246.92 170.24 231.97 172.53 218.73 174.82 213.7 177.11 202.94 179.41 190.15 181.7 181.41 183.99 168.63 186.28 157.84 188.57 153.53 190.86 147.92 193.15 141.29 195.44 139.25 197.73 134.99 200.02 127.91 202.31 122.95 204.6 116.41 206.89 108.77 209.18 101.57 211.47 94.16 213.77 87.77 216.06 84.22 218.35 82.78 220.64 81.31 222.93 82.37 225.22 84.71 227.51 84.6 229.8 83.18 232.09 81.14 234.38 79.62 236.67 78.5 238.96 79.87 241.25 81.14 243.54 82.91 245.83 85.27 248.13 86.71 250.42 87.03 252.71 86.71 255 86.91 257.29 85.45 259.58 84.15 261.87 83.06 264.16 82.51 266.45 82.05 268.74 81.79 271.03 80.05 273.32 79.39 275.61 79.64 277.9 78.87 280.2 78.97 282.49 79.48 284.78 78.99 287.07 76.83 289.36 75.04 291.65 73.72 293.94 72.41 296.23 71.49 298.52 71.09 300.81 70.28 303.1 68.66 305.39 68.57 307.68 68.5 309.97 68.57 312.26 70.83 314.56 72.29 316.85 72.4 319.14 72.85 321.43 73.37 323.72 72.66 326.01 73.86 328.3 78.15 330.59 82.9 332.88 88.26 335.17 95.2 337.46 100.74 339.75 104.87 342.04 115.67 344.33 127.19 346.62 137.63 348.92 151.09 351.21 165.09 353.5 173.14 355.79 188.57 358.08 205.49 360.37 220.59 362.66 240.45 364.95 259.61 367.24 272.83 369.53 292.76 371.82 312.18 374.11 325.88 376.4 341.75 378.69 355.44 380.98 361.36"/><polyline class="i" points="53.42 363.28 55.71 339.06 58 387.94 60.29 385.79 62.58 372.91 64.87 377.97 67.16 383.81 69.45 381.5 71.74 378.93 74.03 375.36 76.32 372.13 78.62 373.25 80.91 376.43 83.2 380.61 85.49 385.6 87.78 389.25 90.07 392.76 92.36 392.55 94.65 391.87 96.94 391.64 99.23 393.16 101.52 394.46 103.81 395.89 106.1 397.27 108.39 402.3 110.68 406.46 112.98 410.85 115.27 414.99 117.56 419.47 119.85 419.51 122.14 419.33 124.43 418.59 126.72 417.75 129.01 415.44 131.3 413.12 133.59 411.06 135.88 406.55 138.17 401.98 140.46 398.56 142.75 392.82 145.04 386.67 147.34 383.02 149.63 370.84 151.92 358.33 154.21 348.22 156.5 335.46 158.79 322.22 161.08 316.56 163.37 301.1 165.66 284.45 167.95 270.8 170.24 255.25 172.53 240.36 174.82 234.74 177.11 222.05 179.41 210.05 181.7 200.7 183.99 190.08 186.28 180.43 188.57 177.7 190.86 171.23 193.15 164.59 195.44 159.1 197.73 152.64 200.02 146.55 202.31 142.36 204.6 136.28 206.89 130.58 209.18 126.03 211.47 121.55 213.77 117.98 216.06 116.55 218.35 114.25 220.64 111.3 222.93 108.84 225.22 106.7 227.51 104.77 229.8 103.51 232.09 102.35 234.38 101.27 236.67 100.14 238.96 99.49 241.25 98.64 243.54 98.65 245.83 98.15 248.13 97.76 250.42 96.41 252.71 95.48 255 94 257.29 93 259.58 92.68 261.87 92.97 264.16 93.4 266.45 93.89 268.74 95.26 271.03 96.06 273.32 95.66 275.61 95.24 277.9 95.12 280.2 95.31 282.49 94.51 284.78 94.46 287.07 93.32 289.36 91.41 291.65 87.66 293.94 83.89 296.23 79.92 298.52 76.77 300.81 73.18 303.1 70.95 305.39 69.94 307.68 68.17 309.97 67.11 312.26 66.51 314.56 66.57 316.85 66.2 319.14 67.31 321.43 68.56 323.72 70.79 326.01 72.95 328.3 77.67 330.59 82.52 332.88 87.7 335.17 94.8 337.46 101.6 339.75 107.49 342.04 118.46 344.33 129.82 346.62 140.48 348.92 154.63 351.21 167.91 353.5 177.54 355.79 195.78 358.08 212.79 360.37 227.15 362.66 244.87 364.95 261.62 367.24 270.04 369.53 284.99 371.82 300.84 374.11 313.52 376.4 328.99 378.69 343.99 380.98 353.23"/><polyline class="h" points="53.42 348.86 55.71 336.34 58 367.45 60.29 358.74 62.58 352.86 64.87 355 67.16 362.49 69.45 366.19 71.74 372.5 74.03 381.79 76.32 392.28 78.62 399.51 80.91 404.16 83.2 408.44 85.49 411.27 87.78 411.26 90.07 411.65 92.36 412.67 94.65 412.77 96.94 411.66 99.23 410.86 101.52 409.42 103.81 407.89 106.1 403.02 108.39 405.26 110.68 407.49 112.98 410.65 115.27 413.32 117.56 419.89 119.85 420.2 122.14 419.72 124.43 418.97 126.72 417.67 129.01 415.44 131.3 412.87 133.59 410.64 135.88 404.31 138.17 398.05 140.46 391.07 142.75 379.99 145.04 369.4 147.34 362.25 149.63 347.56 151.92 331.65 154.21 320.53 156.5 306.86 158.79 293.31 161.08 285.84 163.37 272.51 165.66 258.57 167.95 246.92 170.24 231.97 172.53 218.73 174.82 213.7 177.11 202.94 179.41 190.15 181.7 181.41 183.99 168.63 186.28 157.84 188.57 153.53 190.86 147.92 193.15 141.29 195.44 139.25 197.73 134.99 200.02 127.91 202.31 122.95 204.6 116.41 206.89 108.77 209.18 101.57 211.47 94.16 213.77 87.77 216.06 84.22 218.35 82.78 220.64 81.31 222.93 82.37 225.22 84.71 227.51 84.6 229.8 83.18 232.09 81.14 234.38 79.62 236.67 78.5 238.96 79.87 241.25 81.14 243.54 82.91 245.83 85.27 248.13 86.71 250.42 87.03 252.71 86.71 255 86.91 257.29 85.45 259.58 84.15 261.87 83.06 264.16 82.51 266.45 82.05 268.74 81.79 271.03 80.05 273.32 79.39 275.61 79.64 277.9 78.87 280.2 78.97 282.49 79.48 284.78 78.99 287.07 76.83 289.36 75.04 291.65 73.72 293.94 72.41 296.23 71.49 298.52 71.09 300.81 70.28 303.1 68.66 305.39 68.57 307.68 68.5 309.97 68.57 312.26 70.83 314.56 72.29 316.85 72.4 319.14 72.85 321.43 73.37 323.72 72.66 326.01 73.86 328.3 78.15 330.59 82.9 332.88 88.26 335.17 95.2 337.46 100.74 339.75 104.87 342.04 115.67 344.33 127.19 346.62 137.63 348.92 151.09 351.21 165.09 353.5 173.14 355.79 188.57 358.08 205.49 360.37 220.59 362.66 240.45 364.95 259.61 367.24 272.83 369.53 292.76 371.82 312.18 374.11 325.88 376.4 341.75 378.69 355.44 380.98 361.36"/><polyline class="g" points="53.42 313.09 55.71 328.71 58 356.25 60.29 385.6 62.58 349.91 64.87 363.41 67.16 375.28 69.45 382.56 71.74 384.13 74.03 390 76.32 393.87 78.62 392.97 80.91 398.95 83.2 404.82 85.49 410.34 87.78 414.51 90.07 422.42 92.36 424.2 94.65 424.74 96.94 425.29 99.23 426.24 101.52 426.31 103.81 423.1 106.1 423.1 108.39 424.07 110.68 425.04 112.98 426.08 115.27 428.73 117.56 429.7 119.85 429.7 122.14 428.94 124.43 428.52 126.72 428.45 129.01 427.95 131.3 427.44 133.59 424 135.88 418.96 138.17 413.25 140.46 407.41 142.75 399.23 145.04 394.31 147.34 389.58 149.63 384.82 151.92 378.62 154.21 375.29 156.5 371.19 158.79 360.12 161.08 350.59 163.37 335.88 165.66 320.79 167.95 311.47 170.24 307.83 172.53 300.3 174.82 299.03 177.11 291.71 179.41 279.07 181.7 268.08 183.99 256.94 186.28 246.43 188.57 242.17 190.86 236.74 193.15 230.58 195.44 224.89 197.73 218.07 200.02 210.2 202.31 203.75 204.6 200.78 206.89 199.76 209.18 198.94 211.47 197.66 213.77 197.12 216.06 192.61 218.35 186.28 220.64 184.45 222.93 184.59 225.22 185.15 227.51 183.85 229.8 187.4 232.09 187.66 234.38 188.54 236.67 187.38 238.96 189.64 241.25 189.13 243.54 187.77 245.83 183.69 248.13 181.29 250.42 177.15 252.71 173.62 255 170.83 257.29 169.31 259.58 168.1 261.87 169.14 264.16 169.58 266.45 174.32 268.74 177.68 271.03 179.41 273.32 181.55 275.61 182.41 277.9 176.15 280.2 172.49 282.49 168.59 284.78 165.41 287.07 163.82 289.36 163.82 291.65 159.54 293.94 155.52 296.23 147.82 298.52 143 300.81 137.21 303.1 134.9 305.39 133.76 307.68 137.08 309.97 137.73 312.26 140.83 314.56 143.41 316.85 147.1 319.14 151.49 321.43 152.93 323.72 153.69 326.01 156.07 328.3 160.83 330.59 163.95 332.88 168.51 335.17 176.8 337.46 183.79 339.75 188.84 342.04 195 344.33 202.85 346.62 210.22 348.92 221.47 351.21 231.07 353.5 238.92 355.79 252.67 358.08 263.24 360.37 267.58 362.66 275.47 364.95 282.6 367.24 281.82 369.53 283.54 371.82 287.62 374.11 290.13 376.4 294.63 378.69 300.85 380.98 304.6"/><polyline class="j" points="53.42 313.09 55.71 328.71 58 356.25 60.29 385.6 62.58 349.91 64.87 363.41 67.16 375.28 69.45 382.56 71.74 384.13 74.03 390 76.32 393.87 78.62 392.97 80.91 398.95 83.2 404.82 85.49 410.34 87.78 414.51 90.07 422.42 92.36 424.2 94.65 424.74 96.94 425.29 99.23 426.24 101.52 426.31 103.81 423.1 106.1 423.1 108.39 424.07 110.68 425.04 112.98 426.08 115.27 428.73 117.56 429.7 119.85 429.7 122.14 428.94 124.43 428.52 126.72 428.45 129.01 427.95 131.3 427.44 133.59 424 135.88 418.96 138.17 413.25 140.46 407.41 142.75 399.23 145.04 394.31 147.34 389.58 149.63 384.82 151.92 378.62 154.21 375.29 156.5 371.19 158.79 360.12 161.08 350.59 163.37 335.88 165.66 320.79 167.95 311.47 170.24 307.83 172.53 300.3 174.82 299.03 177.11 291.71 179.41 279.07 181.7 268.08 183.99 256.94 186.28 246.43 188.57 242.17 190.86 236.74 193.15 230.58 195.44 224.89 197.73 218.07 200.02 210.2 202.31 203.75 204.6 200.78 206.89 199.76 209.18 198.94 211.47 197.66 213.77 197.12 216.06 192.61 218.35 186.28 220.64 184.45 222.93 184.59 225.22 185.15 227.51 183.85 229.8 187.4 232.09 187.66 234.38 188.54 236.67 187.38 238.96 189.64 241.25 189.13 243.54 187.77 245.83 183.69 248.13 181.29 250.42 177.15 252.71 173.62 255 170.83 257.29 169.31 259.58 168.1 261.87 169.14 264.16 169.58 266.45 174.32 268.74 177.68 271.03 179.41 273.32 181.55 275.61 182.41 277.9 176.15 280.2 172.49 282.49 168.59 284.78 165.41 287.07 163.82 289.36 163.82 291.65 159.54 293.94 155.52 296.23 147.82 298.52 143 300.81 137.21 303.1 134.9 305.39 133.76 307.68 137.08 309.97 137.73 312.26 140.83 314.56 143.41 316.85 147.1 319.14 151.49 321.43 152.93 323.72 153.69 326.01 156.07 328.3 160.83 330.59 163.95 332.88 168.51 335.17 176.8 337.46 183.79 339.75 188.84 342.04 195 344.33 202.85 346.62 210.22 348.92 221.47 351.21 231.07 353.5 238.92 355.79 252.67 358.08 263.24 360.37 267.58 362.66 275.47 364.95 282.6 367.24 281.82 369.53 283.54 371.82 287.62 374.11 290.13 376.4 294.63 378.69 300.85 380.98 304.6"/></g><text class="f" transform="translate(139.32 71.43)"><tspan class="o" x="0" y="0">Top</tspan><tspan class="c" x="32.71" y="0" xml:space="preserve"> and </tspan><tspan class="n" x="71.64" y="0">middle</tspan></text></g></svg>