<?xml version="1.0" encoding="UTF-8"?><svg id="a" xmlns="http://www.w3.org/2000/svg" viewBox="0 0 620 468.98"><defs><style>.b{fill:#ccc;}.c{font-size:19.41px;}.c,.d{fill:#fff;font-family:National2-Regular, 'National 2';}.e{stroke:#fecc83;}.e,.f,.g{stroke-width:2px;}.e,.f,.g,.h{stroke-linecap:round;stroke-linejoin:round;}.e,.f,.g,.h,.i,.j,.k{fill:none;}.l{fill:#fecc83;}.l,.m,.n{font-family:National2-Bold, 'National 2';font-size:18.07px;}.m{fill:#ae7cb6;}.n{fill:#d1506e;}.d{font-size:14px;}.f{stroke:#d14f6e;}.g{stroke:#ae7cb6;}.h{stroke:#28212f;stroke-width:4px;}.i,.j,.k{stroke:#ccc;stroke-miterlimit:10;}.o{opacity:.51;}.j{stroke-width:.25px;}.k{stroke-width:.5px;}</style></defs><g><polyline class="h" points="58.65 105.65 110.67 141.22 162.69 108.76 214.71 119.78 266.73 135.13 318.75 118.5 370.77 151.59 422.79 169.19 474.81 169.68 526.83 179.34 578.85 168.03"/><polyline class="h" points="58.65 202.07 110.67 207.5 162.69 243.1 214.71 251.32 266.73 249.49 318.75 236.11 370.77 229.35 422.79 205.91 474.81 184.2 526.83 149.06 578.85 165.07"/></g><g><polyline class="g" points="58.65 105.65 110.67 141.22 162.69 108.76 214.71 119.78 266.73 135.13 318.75 118.5 370.77 151.59 422.79 169.19 474.81 169.68 526.83 179.34 578.85 168.03"/><polyline class="f" points="58.65 202.07 110.67 207.5 162.69 243.1 214.71 251.32 266.73 249.49 318.75 236.11 370.77 229.35 422.79 205.91 474.81 184.2 526.83 149.06 578.85 165.07"/></g><polyline class="e" points="58.65 369.02 110.67 362.95 162.69 359.02 214.71 361.28 266.73 359.7 318.75 371.06 370.77 363.94 422.79 369.22 474.81 367.8 526.83 362.94 578.85 366.42"/><text class="m" transform="translate(432.09 149.06)"><tspan x="0" y="0">Alone</tspan></text><text class="n" transform="translate(432.09 226.3)"><tspan x="0" y="0">With family</tspan></text><text class="l" transform="translate(432.09 349.18)"><tspan x="0" y="0">With friends</tspan></text><g class="o"><line class="j" x1="6.31" y1="315.18" x2="578.75" y2="315.18"/><line class="j" x1="6.31" y1="246.18" x2="578.75" y2="246.18"/><line class="j" x1="6.31" y1="177.18" x2="578.75" y2="177.18"/><line class="j" x1="6.31" y1="109.18" x2="578.75" y2="109.18"/><line class="j" x1="6.31" y1="40.18" x2="578.75" y2="40.18"/><text class="c" transform="translate(8.25 376.88)"><tspan x="0" y="0">0</tspan></text><text class="c" transform="translate(7.46 308.28)"><tspan x="0" y="0">100</tspan></text><text class="c" transform="translate(8.41 239.68)"><tspan x="0" y="0">200</tspan></text><text class="c" transform="translate(8.25 171.08)"><tspan x="0" y="0">300</tspan></text><text class="c" transform="translate(8.61 102.48)"><tspan x="0" y="0">400</tspan></text><text class="c" transform="translate(8.25 33.88)"><tspan x="0" y="0">500 minutes/day</tspan></text><line class="k" x1="6.31" y1="383.28" x2="578.75" y2="383.28"/><line class="k" x1="110.75" y1="392.98" x2="110.75" y2="383.28"/><line class="k" x1="162.75" y1="392.98" x2="162.75" y2="383.28"/><line class="k" x1="214.75" y1="392.98" x2="214.75" y2="383.28"/><line class="k" x1="266.75" y1="392.98" x2="266.75" y2="383.28"/><line class="k" x1="318.75" y1="392.98" x2="318.75" y2="383.28"/><line class="k" x1="370.75" y1="392.98" x2="370.75" y2="383.28"/><line class="k" x1="422.75" y1="392.98" x2="422.75" y2="383.28"/><line class="k" x1="474.75" y1="392.98" x2="474.75" y2="383.28"/><line class="k" x1="526.75" y1="392.98" x2="526.75" y2="383.28"/><line class="k" x1="578.75" y1="392.98" x2="578.75" y2="383.28"/><text class="c" transform="translate(53.33 412.21)"><tspan x="0" y="0">0</tspan></text><text class="c" transform="translate(107.49 412.21)"><tspan x="0" y="0">1</tspan></text><text class="c" transform="translate(158.16 412.21)"><tspan x="0" y="0">2</tspan></text><text class="c" transform="translate(210.05 412.21)"><tspan x="0" y="0">3</tspan></text><text class="c" transform="translate(261.63 412.21)"><tspan x="0" y="0">4</tspan></text><text class="c" transform="translate(313.97 412.21)"><tspan x="0" y="0">5</tspan></text><text class="c" transform="translate(365.72 412.21)"><tspan x="0" y="0">6</tspan></text><text class="c" transform="translate(418.24 412.21)"><tspan x="0" y="0">7</tspan></text><text class="c" transform="translate(469.76 412.21)"><tspan x="0" y="0">8</tspan></text><text class="c" transform="translate(521.78 412.21)"><tspan x="0" y="0">9</tspan></text><text class="c" transform="translate(566.35 412.21)"><tspan x="0" y="0">10</tspan></text><line class="k" x1="59.15" y1="392.98" x2="59.15" y2="383.28"/></g><text class="c" transform="translate(259.85 443.89)"><tspan x="0" y="0">Cantril ladder</tspan></text><g class="o"><text class="d" transform="translate(495.24 441.55)"><tspan x="0" y="0">BETTER</tspan></text></g><g class="o"><text class="d" transform="translate(92.52 441.55)"><tspan x="0" y="0">WORSE</tspan></text></g><g class="o"><g><line class="i" x1="88.49" y1="436.9" x2="64.27" y2="436.9"/><polygon class="b" points="65 434.4 60.68 436.9 65 439.39 65 434.4"/></g></g><g class="o"><g><line class="i" x1="551.04" y1="436.9" x2="575.26" y2="436.9"/><polygon class="b" points="574.53 439.39 578.85 436.9 574.53 434.4 574.53 439.39"/></g></g></svg>