<?xml version="1.0" encoding="UTF-8"?><svg id="a" xmlns="http://www.w3.org/2000/svg" viewBox="0 0 620 602.3"><defs><style>.b{fill:#978191;}.b,.c,.d{font-family:National2-Regular, 'National 2';}.c{fill:#989798;}.d{fill:#fff;}.d,.e{font-size:19.41px;}.f{stroke:#232034;stroke-width:4px;}.f,.g,.h,.i{stroke-linecap:round;stroke-linejoin:round;}.f,.g,.h,.i,.j,.k,.l{fill:none;}.g{stroke:#d3d3d3;}.g,.h,.i{stroke-width:2px;}.h{stroke:#c99958;}.i{stroke:#ae7cb6;}.m{fill:#ae7cb6;letter-spacing:0em;}.m,.n,.o{font-family:National2-Bold, 'National 2';}.n{fill:#c99957;}.o{fill:#e9e8e7;}.j{stroke:#978191;}.j,.k,.l{stroke-miterlimit:10;}.k,.l{stroke:#ccc;}.p{opacity:.51;}.q{opacity:.5;}.l{stroke-width:.25px;}</style></defs><g><line class="l" x1="7.03" y1="423.55" x2="590.21" y2="423.55"/><line class="l" x1="7.03" y1="302.52" x2="590.21" y2="302.52"/><line class="l" x1="7.03" y1="181.49" x2="590.21" y2="181.49"/><line class="l" x1="7.03" y1="60.45" x2="590.21" y2="60.45"/><g class="q"><line class="k" x1="7.03" y1="544.59" x2="590.21" y2="544.59"/><line class="k" x1="590.21" y1="557.42" x2="590.21" y2="544.59"/><line class="k" x1="81.45" y1="557.42" x2="81.45" y2="544.59"/><line class="k" x1="166.24" y1="557.42" x2="166.24" y2="544.59"/><line class="k" x1="251.04" y1="557.42" x2="251.04" y2="544.59"/><line class="k" x1="420.62" y1="557.42" x2="420.62" y2="544.59"/><line class="k" x1="335.83" y1="557.42" x2="335.83" y2="544.59"/><line class="k" x1="505.41" y1="557.42" x2="505.41" y2="544.59"/></g></g><g class="p"><text class="d" transform="translate(8.13 290.02)"><tspan x="0" y="0">40%</tspan></text><text class="d" transform="translate(8.04 169.17)"><tspan x="0" y="0">60%</tspan></text><g><text class="d" transform="translate(8.13 531.73)"><tspan x="0" y="0">0%</tspan></text><text class="d" transform="translate(8.37 410.88)"><tspan x="0" y="0">20%</tspan></text><text class="d" transform="translate(6.92 48.32)"><tspan x="0" y="0">80% with others</tspan></text><text class="d" transform="translate(59.46 580.45)"><tspan x="0" y="0">12am</tspan></text><text class="d" transform="translate(147.36 580.45)"><tspan x="0" y="0">4am</tspan></text><text class="d" transform="translate(232.2 580.45)"><tspan x="0" y="0">8am</tspan></text><text class="d" transform="translate(314.1 580.45)"><tspan x="0" y="0">12pm</tspan></text><text class="d" transform="translate(401.17 580.45)"><tspan x="0" y="0">4pm</tspan></text><text class="d" transform="translate(486.01 580.45)"><tspan x="0" y="0">8pm</tspan></text><text class="d" transform="translate(568.22 580.45)"><tspan x="0" y="0">12am</tspan></text></g></g><text class="e" transform="translate(326.62 377.22)"><tspan class="b" x="0" y="0">People </tspan><tspan class="m" x="64.06" y="0">lowest on ladder</tspan></text><g><polyline class="f" points="81.55 457.96 85.11 427.41 88.67 489.04 92.22 486.33 95.78 470.09 99.33 476.47 102.89 483.83 106.45 480.93 110 477.69 113.56 473.19 117.12 469.11 120.67 470.52 124.23 474.53 127.78 479.8 131.34 486.09 134.9 490.7 138.45 495.12 142.01 494.86 145.57 494 149.12 493.71 152.68 495.63 156.23 497.27 159.79 499.07 163.35 500.8 166.9 507.16 170.46 512.4 174.02 517.93 177.57 523.15 181.13 528.79 184.69 528.84 188.24 528.62 191.8 527.69 195.35 526.63 198.91 523.72 202.47 520.79 206.02 518.2 209.58 512.5 213.14 506.75 216.69 502.44 220.25 495.2 223.8 487.45 227.36 482.84 230.92 467.49 234.47 451.72 238.03 438.96 241.59 422.88 245.14 406.18 248.7 399.05 252.25 379.55 255.81 358.57 259.37 341.35 262.92 321.75 266.48 302.97 270.04 295.89 273.59 279.9 277.15 264.76 280.7 252.98 284.26 239.59 287.82 227.42 291.37 223.97 294.93 215.82 298.49 207.45 302.04 200.53 305.6 192.38 309.16 184.71 312.71 179.42 316.27 171.75 319.82 164.57 323.38 158.83 326.94 153.18 330.49 148.69 334.05 146.88 337.61 143.98 341.16 140.26 344.72 137.16 348.27 134.46 351.83 132.03 355.39 130.44 358.94 128.97 362.5 127.62 366.06 126.19 369.61 125.37 373.17 124.3 376.72 124.32 380.28 123.69 383.84 123.19 387.39 121.49 390.95 120.32 394.51 118.45 398.06 117.19 401.62 116.78 405.17 117.15 408.73 117.69 412.29 118.31 415.84 120.03 419.4 121.04 422.96 120.54 426.51 120.01 430.07 119.85 433.63 120.1 437.18 119.09 440.74 119.03 444.29 117.59 447.85 115.18 451.41 110.45 454.96 105.71 458.52 100.7 462.08 96.72 465.63 92.2 469.19 89.39 472.74 88.11 476.3 85.88 479.86 84.54 483.41 83.79 486.97 83.86 490.53 83.4 494.08 84.8 497.64 86.37 501.19 89.19 504.75 91.91 508.31 97.86 511.86 103.98 515.42 110.51 518.98 119.46 522.53 128.04 526.09 135.46 529.65 149.28 533.2 163.61 536.76 177.05 540.31 194.89 543.87 211.63 547.43 223.77 550.98 246.78 554.54 268.22 558.1 286.32 561.65 308.66 565.21 329.79 568.76 340.39 572.32 359.24 575.88 379.23 579.43 395.22 582.99 414.72 586.55 433.64 590.1 445.29"/><polyline class="f" points="81.55 439.78 85.11 423.99 88.67 463.21 92.22 452.24 95.78 444.82 99.33 447.52 102.89 456.96 106.45 461.62 110 469.58 113.56 481.29 117.12 494.51 120.67 503.64 124.23 509.5 127.78 514.89 131.34 518.46 134.9 518.45 138.45 518.94 142.01 520.22 145.57 520.35 149.12 518.95 152.68 517.95 156.23 516.12 159.79 514.2 163.35 508.06 166.9 510.88 170.46 513.69 174.02 517.67 177.57 521.05 181.13 529.33 184.69 529.72 188.24 529.12 191.8 528.17 195.35 526.52 198.91 523.71 202.47 520.48 206.02 517.67 209.58 509.69 213.14 501.79 216.69 492.99 220.25 479.02 223.8 465.67 227.36 456.65 230.92 438.14 234.47 418.07 238.03 404.06 241.59 386.82 245.14 369.73 248.7 360.32 252.25 343.51 255.81 325.94 259.37 311.25 262.92 292.4 266.48 275.7 270.04 269.36 273.59 255.8 277.15 239.68 280.7 228.66 284.26 212.55 287.82 198.93 291.37 193.5 294.93 186.43 298.49 178.07 302.04 175.5 305.6 170.13 309.16 161.2 312.71 154.94 316.27 146.7 319.82 137.07 323.38 127.99 326.94 118.65 330.49 110.59 334.05 106.12 337.61 104.3 341.16 102.45 344.72 103.79 348.27 106.73 351.83 106.6 355.39 104.8 358.94 102.24 362.5 100.32 366.06 98.91 369.61 100.64 373.17 102.23 376.72 104.46 380.28 107.44 383.84 109.25 387.39 109.66 390.95 109.26 394.51 109.51 398.06 107.67 401.62 106.02 405.17 104.66 408.73 103.97 412.29 103.38 415.84 103.06 419.4 100.86 422.96 100.03 426.51 100.35 430.07 99.38 433.63 99.5 437.18 100.14 440.74 99.53 444.29 96.81 447.85 94.55 451.41 92.88 454.96 91.23 458.52 90.06 462.08 89.56 465.63 88.54 469.19 86.5 472.74 86.39 476.3 86.29 479.86 86.39 483.41 89.23 486.97 91.07 490.53 91.21 494.08 91.78 497.64 92.43 501.19 91.54 504.75 93.05 508.31 98.46 511.86 104.45 515.42 111.21 518.98 119.96 522.53 126.95 526.09 132.15 529.65 145.76 533.2 160.29 536.76 173.46 540.31 190.42 543.87 208.08 547.43 218.23 550.98 237.68 554.54 259.01 558.1 278.06 561.65 303.09 565.21 327.25 568.76 343.91 572.32 369.04 575.88 393.53 579.43 410.8 582.99 430.81 586.55 448.07 590.1 455.53"/><polyline class="h" points="81.55 457.96 85.11 427.41 88.67 489.04 92.22 486.33 95.78 470.09 99.33 476.47 102.89 483.83 106.45 480.93 110 477.69 113.56 473.19 117.12 469.11 120.67 470.52 124.23 474.53 127.78 479.8 131.34 486.09 134.9 490.7 138.45 495.12 142.01 494.86 145.57 494 149.12 493.71 152.68 495.63 156.23 497.27 159.79 499.07 163.35 500.8 166.9 507.16 170.46 512.4 174.02 517.93 177.57 523.15 181.13 528.79 184.69 528.84 188.24 528.62 191.8 527.69 195.35 526.63 198.91 523.72 202.47 520.79 206.02 518.2 209.58 512.5 213.14 506.75 216.69 502.44 220.25 495.2 223.8 487.45 227.36 482.84 230.92 467.49 234.47 451.72 238.03 438.96 241.59 422.88 245.14 406.18 248.7 399.05 252.25 379.55 255.81 358.57 259.37 341.35 262.92 321.75 266.48 302.97 270.04 295.89 273.59 279.9 277.15 264.76 280.7 252.98 284.26 239.59 287.82 227.42 291.37 223.97 294.93 215.82 298.49 207.45 302.04 200.53 305.6 192.38 309.16 184.71 312.71 179.42 316.27 171.75 319.82 164.57 323.38 158.83 326.94 153.18 330.49 148.69 334.05 146.88 337.61 143.98 341.16 140.26 344.72 137.16 348.27 134.46 351.83 132.03 355.39 130.44 358.94 128.97 362.5 127.62 366.06 126.19 369.61 125.37 373.17 124.3 376.72 124.32 380.28 123.69 383.84 123.19 387.39 121.49 390.95 120.32 394.51 118.45 398.06 117.19 401.62 116.78 405.17 117.15 408.73 117.69 412.29 118.31 415.84 120.03 419.4 121.04 422.96 120.54 426.51 120.01 430.07 119.85 433.63 120.1 437.18 119.09 440.74 119.03 444.29 117.59 447.85 115.18 451.41 110.45 454.96 105.71 458.52 100.7 462.08 96.72 465.63 92.2 469.19 89.39 472.74 88.11 476.3 85.88 479.86 84.54 483.41 83.79 486.97 83.86 490.53 83.4 494.08 84.8 497.64 86.37 501.19 89.19 504.75 91.91 508.31 97.86 511.86 103.98 515.42 110.51 518.98 119.46 522.53 128.04 526.09 135.46 529.65 149.28 533.2 163.61 536.76 177.05 540.31 194.89 543.87 211.63 547.43 223.77 550.98 246.78 554.54 268.22 558.1 286.32 561.65 308.66 565.21 329.79 568.76 340.39 572.32 359.24 575.88 379.23 579.43 395.22 582.99 414.72 586.55 433.64 590.1 445.29"/><polyline class="g" points="81.55 439.78 85.11 423.99 88.67 463.21 92.22 452.24 95.78 444.82 99.33 447.52 102.89 456.96 106.45 461.62 110 469.58 113.56 481.29 117.12 494.51 120.67 503.64 124.23 509.5 127.78 514.89 131.34 518.46 134.9 518.45 138.45 518.94 142.01 520.22 145.57 520.35 149.12 518.95 152.68 517.95 156.23 516.12 159.79 514.2 163.35 508.06 166.9 510.88 170.46 513.69 174.02 517.67 177.57 521.05 181.13 529.33 184.69 529.72 188.24 529.12 191.8 528.17 195.35 526.52 198.91 523.71 202.47 520.48 206.02 517.67 209.58 509.69 213.14 501.79 216.69 492.99 220.25 479.02 223.8 465.67 227.36 456.65 230.92 438.14 234.47 418.07 238.03 404.06 241.59 386.82 245.14 369.73 248.7 360.32 252.25 343.51 255.81 325.94 259.37 311.25 262.92 292.4 266.48 275.7 270.04 269.36 273.59 255.8 277.15 239.68 280.7 228.66 284.26 212.55 287.82 198.93 291.37 193.5 294.93 186.43 298.49 178.07 302.04 175.5 305.6 170.13 309.16 161.2 312.71 154.94 316.27 146.7 319.82 137.07 323.38 127.99 326.94 118.65 330.49 110.59 334.05 106.12 337.61 104.3 341.16 102.45 344.72 103.79 348.27 106.73 351.83 106.6 355.39 104.8 358.94 102.24 362.5 100.32 366.06 98.91 369.61 100.64 373.17 102.23 376.72 104.46 380.28 107.44 383.84 109.25 387.39 109.66 390.95 109.26 394.51 109.51 398.06 107.67 401.62 106.02 405.17 104.66 408.73 103.97 412.29 103.38 415.84 103.06 419.4 100.86 422.96 100.03 426.51 100.35 430.07 99.38 433.63 99.5 437.18 100.14 440.74 99.53 444.29 96.81 447.85 94.55 451.41 92.88 454.96 91.23 458.52 90.06 462.08 89.56 465.63 88.54 469.19 86.5 472.74 86.39 476.3 86.29 479.86 86.39 483.41 89.23 486.97 91.07 490.53 91.21 494.08 91.78 497.64 92.43 501.19 91.54 504.75 93.05 508.31 98.46 511.86 104.45 515.42 111.21 518.98 119.96 522.53 126.95 526.09 132.15 529.65 145.76 533.2 160.29 536.76 173.46 540.31 190.42 543.87 208.08 547.43 218.23 550.98 237.68 554.54 259.01 558.1 278.06 561.65 303.09 565.21 327.25 568.76 343.91 572.32 369.04 575.88 393.53 579.43 410.8 582.99 430.81 586.55 448.07 590.1 455.53"/><polyline class="f" points="81.55 394.67 85.11 414.37 88.67 449.1 92.22 486.1 95.78 441.1 99.33 458.11 102.89 473.08 106.45 482.27 110 484.24 113.56 491.64 117.12 496.52 120.67 495.38 124.23 502.92 127.78 510.33 131.34 517.28 134.9 522.54 138.45 532.51 142.01 534.76 145.57 535.44 149.12 536.13 152.68 537.34 156.23 537.42 159.79 533.37 163.35 533.37 166.9 534.59 170.46 535.82 174.02 537.13 177.57 540.47 181.13 541.7 184.69 541.7 188.24 540.73 191.8 540.21 195.35 540.11 198.91 539.48 202.47 538.85 206.02 534.51 209.58 528.15 213.14 520.96 216.69 513.6 220.25 503.27 223.8 497.07 227.36 491.11 230.92 485.11 234.47 477.29 238.03 473.09 241.59 467.92 245.14 453.97 248.7 441.95 252.25 423.4 255.81 404.39 259.37 392.63 262.92 388.04 266.48 378.55 270.04 376.95 273.59 367.72 277.15 351.78 280.7 337.93 284.26 323.88 287.82 310.63 291.37 305.25 294.93 298.41 298.49 290.64 302.04 283.47 305.6 274.88 309.16 264.95 312.71 256.82 316.27 253.08 319.82 251.79 323.38 250.76 326.94 249.14 330.49 248.46 334.05 242.77 337.61 234.79 341.16 232.49 344.72 232.66 348.27 233.37 351.83 231.73 355.39 236.21 358.94 236.53 362.5 237.64 366.06 236.18 369.61 239.03 373.17 238.39 376.72 236.67 380.28 231.53 383.84 228.5 387.39 223.29 390.95 218.83 394.51 215.31 398.06 213.4 401.62 211.88 405.17 213.18 408.73 213.74 412.29 219.71 415.84 223.94 419.4 226.13 422.96 228.83 426.51 229.91 430.07 222.02 433.63 217.4 437.18 212.49 440.74 208.48 444.29 206.48 447.85 206.47 451.41 201.08 454.96 196.01 458.52 186.31 462.08 180.23 465.63 172.92 469.19 170.01 472.74 168.57 476.3 172.77 479.86 173.59 483.41 177.5 486.97 180.75 490.53 185.39 494.08 190.92 497.64 192.74 501.19 193.7 504.75 196.7 508.31 202.7 511.86 206.64 515.42 212.38 518.98 222.84 522.53 231.65 526.09 238.03 529.65 245.78 533.2 255.68 536.76 264.98 540.31 279.16 543.87 291.27 547.43 301.17 550.98 318.5 554.54 331.83 558.1 337.3 561.65 347.25 565.21 356.24 568.76 355.25 572.32 357.42 575.88 362.57 579.43 365.72 582.99 371.4 586.55 379.24 590.1 383.97"/><polyline class="i" points="81.55 394.67 85.11 414.37 88.67 449.1 92.22 486.1 95.78 441.1 99.33 458.11 102.89 473.08 106.45 482.27 110 484.24 113.56 491.64 117.12 496.52 120.67 495.38 124.23 502.92 127.78 510.33 131.34 517.28 134.9 522.54 138.45 532.51 142.01 534.76 145.57 535.44 149.12 536.13 152.68 537.34 156.23 537.42 159.79 533.37 163.35 533.37 166.9 534.59 170.46 535.82 174.02 537.13 177.57 540.47 181.13 541.7 184.69 541.7 188.24 540.73 191.8 540.21 195.35 540.11 198.91 539.48 202.47 538.85 206.02 534.51 209.58 528.15 213.14 520.96 216.69 513.6 220.25 503.27 223.8 497.07 227.36 491.11 230.92 485.11 234.47 477.29 238.03 473.09 241.59 467.92 245.14 453.97 248.7 441.95 252.25 423.4 255.81 404.39 259.37 392.63 262.92 388.04 266.48 378.55 270.04 376.95 273.59 367.72 277.15 351.78 280.7 337.93 284.26 323.88 287.82 310.63 291.37 305.25 294.93 298.41 298.49 290.64 302.04 283.47 305.6 274.88 309.16 264.95 312.71 256.82 316.27 253.08 319.82 251.79 323.38 250.76 326.94 249.14 330.49 248.46 334.05 242.77 337.61 234.79 341.16 232.49 344.72 232.66 348.27 233.37 351.83 231.73 355.39 236.21 358.94 236.53 362.5 237.64 366.06 236.18 369.61 239.03 373.17 238.39 376.72 236.67 380.28 231.53 383.84 228.5 387.39 223.29 390.95 218.83 394.51 215.31 398.06 213.4 401.62 211.88 405.17 213.18 408.73 213.74 412.29 219.71 415.84 223.94 419.4 226.13 422.96 228.83 426.51 229.91 430.07 222.02 433.63 217.4 437.18 212.49 440.74 208.48 444.29 206.48 447.85 206.47 451.41 201.08 454.96 196.01 458.52 186.31 462.08 180.23 465.63 172.92 469.19 170.01 472.74 168.57 476.3 172.77 479.86 173.59 483.41 177.5 486.97 180.75 490.53 185.39 494.08 190.92 497.64 192.74 501.19 193.7 504.75 196.7 508.31 202.7 511.86 206.64 515.42 212.38 518.98 222.84 522.53 231.65 526.09 238.03 529.65 245.78 533.2 255.68 536.76 264.98 540.31 279.16 543.87 291.27 547.43 301.17 550.98 318.5 554.54 331.83 558.1 337.3 561.65 347.25 565.21 356.24 568.76 355.25 572.32 357.42 575.88 362.57 579.43 365.72 582.99 371.4 586.55 379.24 590.1 383.97"/></g><line class="j" x1="425.86" y1="344.62" x2="425.86" y2="242.76"/><text class="e" transform="translate(214.92 89.99)"><tspan class="o" x="0" y="0">Top</tspan><tspan class="c" x="35.26" y="0" xml:space="preserve"> and </tspan><tspan class="n" x="77.24" y="0">middle</tspan></text></svg>