<?xml version="1.0" encoding="UTF-8"?><svg id="a" xmlns="http://www.w3.org/2000/svg" viewBox="0 0 400 477.77"><defs><style>.b{fill:#ccc;}.c{font-size:19.41px;}.c,.d{fill:#fff;font-family:National2-Regular, 'National 2';}.e{stroke:#fecc83;}.e,.f,.g{stroke-width:2px;}.e,.f,.g,.h{stroke-linecap:round;stroke-linejoin:round;}.e,.f,.g,.h,.i,.j,.k{fill:none;}.l{fill:#fecc83;}.l,.m,.n{font-family:National2-Bold, 'National 2';font-size:18.07px;}.m{fill:#ae7cb6;}.n{fill:#d1506e;}.d{font-size:14px;}.f{stroke:#d14f6e;}.g{stroke:#ae7cb6;}.h{stroke:#28212f;stroke-width:4px;}.i,.j,.k{stroke:#ccc;stroke-miterlimit:10;}.o{opacity:.51;}.j{stroke-width:.25px;}.k{stroke-width:.5px;}</style></defs><g><polyline class="h" points="42.85 105.65 77.66 141.22 112.47 108.76 147.28 119.78 182.09 135.13 216.9 118.5 251.71 151.59 286.52 169.19 321.33 169.68 356.14 179.34 390.95 168.03"/><polyline class="h" points="42.85 202.07 77.66 207.5 112.47 243.1 147.28 251.32 182.09 249.49 216.9 236.11 251.71 229.35 286.52 205.91 321.33 184.2 356.14 149.06 390.95 165.07"/></g><g><polyline class="g" points="42.85 105.65 77.66 141.22 112.47 108.76 147.28 119.78 182.09 135.13 216.9 118.5 251.71 151.59 286.52 169.19 321.33 169.68 356.14 179.34 390.95 168.03"/><polyline class="f" points="42.85 202.07 77.66 207.5 112.47 243.1 147.28 251.32 182.09 249.49 216.9 236.11 251.71 229.35 286.52 205.91 321.33 184.2 356.14 149.06 390.95 165.07"/></g><polyline class="e" points="42.85 369.02 77.66 362.95 112.47 359.02 147.28 361.28 182.09 359.7 216.9 371.06 251.71 363.94 286.52 369.22 321.33 367.8 356.14 362.94 390.95 366.42"/><text class="m" transform="translate(292.74 149.06)"><tspan x="0" y="0">Alone</tspan></text><text class="n" transform="translate(292.74 226.3)"><tspan x="0" y="0">With family</tspan></text><text class="l" transform="translate(292.74 349.18)"><tspan x="0" y="0">With friends</tspan></text><g class="o"><line class="j" x1="7.82" y1="315.18" x2="390.89" y2="315.18"/><line class="j" x1="7.82" y1="246.18" x2="390.89" y2="246.18"/><line class="j" x1="7.82" y1="177.18" x2="390.89" y2="177.18"/><line class="j" x1="7.82" y1="109.18" x2="390.89" y2="109.18"/><line class="j" x1="7.82" y1="40.18" x2="390.89" y2="40.18"/><text class="c" transform="translate(9.12 376.88)"><tspan x="0" y="0">0</tspan></text><text class="c" transform="translate(8.59 308.28)"><tspan x="0" y="0">100</tspan></text><text class="c" transform="translate(9.23 239.68)"><tspan x="0" y="0">200</tspan></text><text class="c" transform="translate(9.12 171.08)"><tspan x="0" y="0">300</tspan></text><text class="c" transform="translate(9.36 102.48)"><tspan x="0" y="0">400</tspan></text><text class="c" transform="translate(9.12 33.88)"><tspan x="0" y="0">500 minutes/day</tspan></text><line class="k" x1="7.82" y1="383.28" x2="390.89" y2="383.28"/><line class="k" x1="77.71" y1="392.98" x2="77.71" y2="383.28"/><line class="k" x1="112.51" y1="392.98" x2="112.51" y2="383.28"/><line class="k" x1="147.31" y1="392.98" x2="147.31" y2="383.28"/><line class="k" x1="182.1" y1="392.98" x2="182.1" y2="383.28"/><line class="k" x1="216.9" y1="392.98" x2="216.9" y2="383.28"/><line class="k" x1="251.7" y1="392.98" x2="251.7" y2="383.28"/><line class="k" x1="286.49" y1="392.98" x2="286.49" y2="383.28"/><line class="k" x1="321.29" y1="392.98" x2="321.29" y2="383.28"/><line class="k" x1="356.09" y1="392.98" x2="356.09" y2="383.28"/><line class="k" x1="390.89" y1="392.98" x2="390.89" y2="383.28"/><text class="c" transform="translate(37.36 412.21)"><tspan x="0" y="0">0</tspan></text><text class="c" transform="translate(74.32 412.21)"><tspan x="0" y="0">1</tspan></text><text class="c" transform="translate(107.78 412.21)"><tspan x="0" y="0">2</tspan></text><text class="c" transform="translate(142.45 412.21)"><tspan x="0" y="0">3</tspan></text><text class="c" transform="translate(176.83 412.21)"><tspan x="0" y="0">4</tspan></text><text class="c" transform="translate(211.96 412.21)"><tspan x="0" y="0">5</tspan></text><text class="c" transform="translate(246.49 412.21)"><tspan x="0" y="0">6</tspan></text><text class="c" transform="translate(281.8 412.21)"><tspan x="0" y="0">7</tspan></text><text class="c" transform="translate(316.12 412.21)"><tspan x="0" y="0">8</tspan></text><text class="c" transform="translate(350.93 412.21)"><tspan x="0" y="0">9</tspan></text><text class="c" transform="translate(379.45 412.21)"><tspan x="0" y="0">10</tspan></text><line class="k" x1="43.18" y1="392.98" x2="43.18" y2="383.28"/></g><text class="c" transform="translate(157.83 443.89)"><tspan x="0" y="0">Cantril ladder</tspan></text><g class="o"><text class="d" transform="translate(313.59 441.55)"><tspan x="0" y="0">BETTER</tspan></text></g><g class="o"><text class="d" transform="translate(57.77 441.55)"><tspan x="0" y="0">WORSE</tspan></text></g><g class="o"><g><line class="i" x1="52.49" y1="436.9" x2="37.47" y2="436.9"/><polygon class="b" points="38.2 434.4 33.88 436.9 38.2 439.39 38.2 434.4"/></g></g><g class="o"><g><line class="i" x1="372.34" y1="436.9" x2="387.36" y2="436.9"/><polygon class="b" points="386.64 439.39 390.95 436.9 386.64 434.4 386.64 439.39"/></g></g></svg>