<?xml version="1.0" encoding="UTF-8"?><svg id="a" xmlns="http://www.w3.org/2000/svg" viewBox="0 0 400 406.92"><defs><style>.b,.c,.d,.e,.f,.g{font-weight:bold;font-family:"National 2 Web", -apple-system, BlinkMacSystemFont, Helvetica, Arial, sans-serif;font-size:14px;}.b,.h{fill:#a363a9;}.c{fill:#cfafd1;}.d,.i{fill:#d291bf;}.e,.j{fill:#8c6c73;}.f,.k{fill:#e9c6df;}.l{stroke:#8c6c73;stroke-dasharray:0 0 4.99 4.99;stroke-width:.5px;}.l,.g,.m,.n,.o{fill:none;}.l,.m,.n,.o{stroke-miterlimit:10;}.g{stroke:#28212f;stroke-linecap:round;stroke-linejoin:round;stroke-width:9px;}.m{stroke:#7d5982;}.n{stroke:#e9c7df;}.o{stroke:#d190be;}</style></defs><circle class="h" cx="193.91" cy="126.09" r="2.72"/><circle class="h" cx="160.51" cy="93.23" r="2.72"/><circle class="h" cx="215.51" cy="131.75" r="2.72"/><circle class="h" cx="208.32" cy="119.05" r="2.72"/><circle class="h" cx="118.96" cy="120.58" r="2.72"/><circle class="h" cx="180.36" cy="118.98" r="2.72"/><circle class="h" cx="196.31" cy="139.92" r="2.72"/><circle class="h" cx="163.24" cy="126.47" r="2.72"/><circle class="h" cx="180.36" cy="142.65" r="2.72"/><circle class="h" cx="167.46" cy="103.8" r="2.72"/><circle class="h" cx="284.9" cy="151.92" r="2.72"/><circle class="h" cx="226.52" cy="94.76" r="2.72"/><circle class="h" cx="281.51" cy="133.28" r="2.72"/><circle class="h" cx="274.33" cy="120.58" r="2.72"/><circle class="h" cx="223.8" cy="116.41" r="2.72"/><circle class="h" cx="246.36" cy="120.51" r="2.72"/><circle class="h" cx="262.32" cy="141.45" r="2.72"/><circle class="h" cx="262.32" cy="124.98" r="2.72"/><circle class="h" cx="246.36" cy="144.18" r="2.72"/><circle class="h" cx="233.47" cy="105.33" r="2.72"/><circle class="h" cx="298.7" cy="186.32" r="2.72"/><circle class="h" cx="244.67" cy="231.09" r="2.72"/><circle class="h" cx="286.08" cy="179.9" r="2.72"/><circle class="h" cx="267.92" cy="198.42" r="2.72"/><circle class="h" cx="266.24" cy="249.09" r="2.72"/><circle class="h" cx="250.27" cy="217.71" r="2.72"/><circle class="h" cx="289.36" cy="209.39" r="2.72"/><circle class="h" cx="277.55" cy="243.08" r="2.72"/><circle class="h" cx="292.86" cy="225.19" r="2.72"/><circle class="h" cx="254.7" cy="239.98" r="2.72"/><circle class="h" cx="288.81" cy="168.4" r="2.72"/><circle class="h" cx="155.56" cy="110.78" r="2.72"/><circle class="h" cx="291.53" cy="140.82" r="2.72"/><circle class="h" cx="275.64" cy="171.38" r="2.72"/><circle class="h" cx="227.71" cy="132.89" r="2.72"/><circle class="h" cx="250.27" cy="136.99" r="2.72"/><circle class="h" cx="266.23" cy="157.93" r="2.72"/><circle class="h" cx="233.15" cy="144.48" r="2.72"/><circle class="h" cx="308.31" cy="172.62" r="2.72"/><circle class="h" cx="237.38" cy="121.81" r="2.72"/><path class="l" d="M391.08,199.62c0,105.21-85.29,190.5-190.5,190.5-252.69-10.03-252.62-371,0-380.99,105.21,0,190.5,85.29,190.5,190.5h0Z"/><text class="e" transform="translate(147.92 32.3)"><tspan x="0" y="0">People we know</tspan><tspan x="33.92" y="16.8">(500)</tspan></text><circle class="m" cx="199.93" cy="197.39" r="120.17"/><text class="b" transform="translate(176.1 92.37)"><tspan x="0" y="0">Friends</tspan><tspan x="8.02" y="16.8">(150)</tspan></text><circle class="o" cx="201.84" cy="197.39" r="40.13"/><circle class="n" cx="201.84" cy="197.39" r="15.53"/><g><text class="c" transform="translate(207.27 201.4)"><tspan x="0" y="0">Intimate (1-2)</tspan></text><text class="g" transform="translate(207.27 201.4)"><tspan x="0" y="0">Intimate (1-2)</tspan></text><text class="f" transform="translate(207.27 201.4)"><tspan x="0" y="0">Intimate (1-2)</tspan></text></g><g><text class="c" transform="translate(150.94 161)"><tspan x="0" y="0">Best friends (15)</tspan></text><text class="g" transform="translate(150.94 161)"><tspan x="0" y="0">Best friends (15)</tspan></text><text class="d" transform="translate(150.94 161)"><tspan x="0" y="0">Best friends (15)</tspan></text></g><circle class="k" cx="200.58" cy="198.68" r="2.72"/><circle class="k" cx="195.76" cy="191.5" r="2.72"/><g><circle class="i" cx="230.4" cy="183.11" r="2.72"/><circle class="i" cx="221.58" cy="169.9" r="2.72"/><circle class="i" cx="217.37" cy="222.16" r="2.72"/><circle class="i" cx="182.45" cy="220.79" r="2.72"/><circle class="i" cx="195.76" cy="217.71" r="2.72"/><circle class="i" cx="199.93" cy="167.17" r="2.72"/><circle class="i" cx="177.19" cy="179.9" r="2.72"/><circle class="i" cx="174.89" cy="205.69" r="2.72"/><circle class="i" cx="227.67" cy="214" r="2.72"/><circle class="i" cx="188.34" cy="172.62" r="2.72"/><circle class="i" cx="204.99" cy="224.89" r="2.72"/><circle class="i" cx="172.31" cy="193.69" r="2.72"/><circle class="i" cx="211.01" cy="176.84" r="2.72"/></g><circle class="h" cx="177.19" cy="129.6" r="2.72"/><circle class="h" cx="168.38" cy="116.39" r="2.72"/><circle class="h" cx="129.85" cy="171.38" r="2.72"/><circle class="h" cx="142.56" cy="164.2" r="2.72"/><circle class="h" cx="146.73" cy="113.67" r="2.72"/><circle class="h" cx="178.38" cy="108.06" r="2.72"/><circle class="h" cx="121.69" cy="152.19" r="2.72"/><circle class="h" cx="135.13" cy="119.12" r="2.72"/><circle class="h" cx="118.96" cy="136.24" r="2.72"/><circle class="h" cx="141.44" cy="106.53" r="2.72"/><circle class="h" cx="235.69" cy="301.29" r="2.72"/><circle class="h" cx="248.9" cy="292.48" r="2.72"/><circle class="h" cx="189.26" cy="250.78" r="2.72"/><circle class="h" cx="186.54" cy="280.85" r="2.72"/><circle class="h" cx="251.62" cy="270.83" r="2.72"/><circle class="h" cx="241.97" cy="248.06" r="2.72"/><circle class="h" cx="209.34" cy="252.14" r="2.72"/><circle class="h" cx="262.2" cy="270.84" r="2.72"/><circle class="h" cx="229.06" cy="243.07" r="2.72"/><circle class="h" cx="241.95" cy="281.91" r="2.72"/><circle class="h" cx="172.31" cy="236.02" r="2.72"/><circle class="h" cx="163.24" cy="258.7" r="2.72"/><circle class="h" cx="219.33" cy="292.1" r="2.72"/><circle class="h" cx="212.15" cy="279.4" r="2.72"/><circle class="h" cx="161.61" cy="275.23" r="2.72"/><circle class="h" cx="171.28" cy="294.82" r="2.72"/><circle class="h" cx="200.13" cy="300.27" r="2.72"/><circle class="h" cx="158.29" cy="295.67" r="2.72"/><circle class="h" cx="184.18" cy="302.99" r="2.72"/><circle class="h" cx="171.28" cy="264.15" r="2.72"/><circle class="h" cx="123.08" cy="196.77" r="2.72"/><circle class="h" cx="105.96" cy="196.42" r="2.72"/><circle class="h" cx="155.08" cy="236.02" r="2.72"/><circle class="h" cx="153.77" cy="222.24" r="2.72"/><circle class="h" cx="103.24" cy="218.07" r="2.72"/><circle class="h" cx="125.8" cy="222.16" r="2.72"/><circle class="h" cx="141.76" cy="243.11" r="2.72"/><circle class="h" cx="123.51" cy="248.51" r="2.72"/><circle class="h" cx="125.8" cy="259.94" r="2.72"/><circle class="h" cx="112.91" cy="206.99" r="2.72"/><circle class="h" cx="172.31" cy="280.39" r="2.72"/><circle class="h" cx="113.93" cy="223.24" r="2.72"/><circle class="h" cx="185.62" cy="263.71" r="2.72"/><circle class="h" cx="161.74" cy="249.06" r="2.72"/><circle class="h" cx="111.21" cy="244.89" r="2.72"/><circle class="h" cx="137.86" cy="231.09" r="2.72"/><circle class="h" cx="149.73" cy="269.93" r="2.72"/><circle class="h" cx="114.62" cy="273.1" r="2.72"/><circle class="h" cx="133.77" cy="272.65" r="2.72"/><circle class="h" cx="124.41" cy="234.94" r="2.72"/><circle class="h" cx="99.15" cy="179.9" r="2.72"/><circle class="h" cx="168.4" cy="136.54" r="2.72"/><circle class="h" cx="120.78" cy="171.38" r="2.72"/><circle class="h" cx="132.09" cy="190.33" r="2.72"/><circle class="h" cx="147.99" cy="128.82" r="2.72"/><circle class="h" cx="138.72" cy="149.8" r="2.72"/><circle class="h" cx="114.62" cy="160.4" r="2.72"/><circle class="h" cx="135.44" cy="131.4" r="2.72"/><circle class="h" cx="110.18" cy="141.76" r="2.72"/><circle class="h" cx="156.49" cy="140.82" r="2.72"/><circle class="h" cx="149.51" cy="213.46" r="2.72"/><circle class="h" cx="93.86" cy="157.26" r="2.72"/><circle class="h" cx="146.13" cy="194.83" r="2.72"/><circle class="h" cx="138.94" cy="182.12" r="2.72"/><circle class="h" cx="88.41" cy="177.95" r="2.72"/><circle class="h" cx="110.98" cy="182.05" r="2.72"/><circle class="h" cx="135.44" cy="211.27" r="2.72"/><circle class="h" cx="92.64" cy="198.68" r="2.72"/><circle class="h" cx="98.08" cy="240.39" r="2.72"/><circle class="h" cx="104.6" cy="165.67" r="2.72"/><circle class="h" cx="295.17" cy="254.87" r="2.72"/><circle class="h" cx="219.68" cy="259.83" r="2.72"/><circle class="h" cx="276.7" cy="224.39" r="2.72"/><circle class="h" cx="262.2" cy="226" r="2.72"/><circle class="h" cx="238.52" cy="270.84" r="2.72"/><circle class="h" cx="251.15" cy="251.69" r="2.72"/><circle class="h" cx="266.24" cy="283.12" r="2.72"/><circle class="h" cx="251.32" cy="270.38" r="2.72"/><circle class="h" cx="272.91" cy="260.99" r="2.72"/><circle class="h" cx="232.13" cy="257.59" r="2.72"/><circle class="h" cx="216.6" cy="242.52" r="2.72"/><circle class="h" cx="149.3" cy="288.84" r="2.72"/><circle class="h" cx="197.66" cy="242.26" r="2.72"/><circle class="h" cx="180.36" cy="253.5" r="2.72"/><circle class="h" cx="174.01" cy="304.02" r="2.72"/><circle class="h" cx="227.67" cy="281.32" r="2.72"/><circle class="h" cx="201.99" cy="262.67" r="2.72"/><circle class="h" cx="182.45" cy="292.55" r="2.72"/><circle class="h" cx="201.6" cy="278.85" r="2.72"/><circle class="h" cx="161.01" cy="284.05" r="2.72"/><circle class="h" cx="146.73" cy="254.87" r="2.72"/><circle class="h" cx="304.15" cy="155.84" r="2.72"/><circle class="h" cx="259.48" cy="108.52" r="2.72"/><circle class="h" cx="263.5" cy="179.33" r="2.72"/><circle class="h" cx="251.98" cy="181.86" r="2.72"/><circle class="j" cx="45.65" cy="113.03" r="2.72"/><circle class="j" cx="218.23" cy="67.37" r="2.72"/><circle class="j" cx="40.2" cy="174.96" r="2.72"/><circle class="j" cx="48.37" cy="214.25" r="2.72"/><circle class="j" cx="50.75" cy="125.69" r="2.72"/><circle class="j" cx="35.1" cy="154.53" r="2.72"/><circle class="j" cx="24.21" cy="186.86" r="2.72"/><circle class="j" cx="32.38" cy="226.15" r="2.72"/><circle class="j" cx="66.72" cy="136.93" r="2.72"/><circle class="j" cx="51.07" cy="165.77" r="2.72"/><circle class="j" cx="40.18" cy="198.1" r="2.72"/><circle class="j" cx="48.35" cy="237.39" r="2.72"/><circle class="j" cx="78.56" cy="136.01" r="2.72"/><circle class="j" cx="57" cy="149.2" r="2.72"/><circle class="j" cx="30.77" cy="176.01" r="2.72"/><circle class="j" cx="22.01" cy="215.17" r="2.72"/><circle class="j" cx="67.29" cy="155.44" r="2.72"/><circle class="j" cx="51.65" cy="184.29" r="2.72"/><circle class="j" cx="40.76" cy="216.62" r="2.72"/><circle class="j" cx="48.92" cy="255.91" r="2.72"/><circle class="j" cx="37.12" cy="250.94" r="2.72"/><circle class="j" cx="52.93" cy="279.69" r="2.72"/><circle class="j" cx="103.7" cy="303.61" r="2.72"/><circle class="j" cx="111.72" cy="320.69" r="2.72"/><circle class="j" cx="38.49" cy="270.82" r="2.72"/><circle class="j" cx="54.3" cy="299.58" r="2.72"/><circle class="j" cx="75.62" cy="326.22" r="2.72"/><circle class="j" cx="113.09" cy="340.58" r="2.72"/><circle class="j" cx="56.58" cy="263.46" r="2.72"/><circle class="j" cx="72.39" cy="292.22" r="2.72"/><circle class="j" cx="92.61" cy="325.93" r="2.72"/><circle class="j" cx="131.17" cy="333.22" r="2.72"/><circle class="j" cx="62.13" cy="247.61" r="2.72"/><circle class="j" cx="61.6" cy="281.78" r="2.72"/><circle class="j" cx="70.03" cy="314.83" r="2.72"/><circle class="j" cx="98.25" cy="343.37" r="2.72"/><circle class="j" cx="78.34" cy="276.67" r="2.72"/><circle class="j" cx="87.03" cy="307.95" r="2.72"/><circle class="j" cx="109.6" cy="328.38" r="2.72"/><circle class="j" cx="147.06" cy="342.74" r="2.72"/><circle class="j" cx="124.15" cy="328.71" r="2.72"/><circle class="j" cx="141.02" cy="333.96" r="2.72"/><circle class="j" cx="188.15" cy="347.42" r="2.72"/><circle class="j" cx="226.12" cy="334.42" r="2.72"/><circle class="j" cx="137.95" cy="343.1" r="2.72"/><circle class="j" cx="162.65" cy="363.18" r="2.72"/><circle class="j" cx="201.95" cy="361.81" r="2.72"/><circle class="j" cx="239.92" cy="348.81" r="2.72"/><circle class="j" cx="147.11" cy="325.85" r="2.72"/><circle class="j" cx="177.68" cy="337.78" r="2.72"/><circle class="j" cx="211.11" cy="344.56" r="2.72"/><circle class="j" cx="249.08" cy="331.56" r="2.72"/><circle class="j" cx="139.77" cy="313.21" r="2.72"/><circle class="j" cx="162.7" cy="336.68" r="2.72"/><circle class="j" cx="190.37" cy="356.65" r="2.72"/><circle class="j" cx="216.44" cy="355.98" r="2.72"/><circle class="j" cx="165.41" cy="322.97" r="2.72"/><circle class="j" cx="195.98" cy="334.9" r="2.72"/><circle class="j" cx="229.42" cy="341.68" r="2.72"/><circle class="j" cx="267.38" cy="328.68" r="2.72"/><circle class="j" cx="250.4" cy="320.25" r="2.72"/><circle class="j" cx="294.34" cy="318.98" r="2.72"/><circle class="j" cx="315.5" cy="292.22" r="2.72"/><circle class="j" cx="321.06" cy="252.48" r="2.72"/><circle class="j" cx="288.96" cy="335.05" r="2.72"/><circle class="j" cx="313.41" cy="313.17" r="2.72"/><circle class="j" cx="335.29" cy="298" r="2.72"/><circle class="j" cx="353.64" cy="266.31" r="2.72"/><circle class="j" cx="277.71" cy="319.08" r="2.72"/><circle class="j" cx="302.17" cy="297.21" r="2.72"/><circle class="j" cx="323.33" cy="270.44" r="2.72"/><circle class="j" cx="328.88" cy="230.7" r="2.72"/><circle class="j" cx="263.12" cy="319.92" r="2.72"/><circle class="j" cx="294.42" cy="310.07" r="2.72"/><circle class="j" cx="324.73" cy="294.41" r="2.72"/><circle class="j" cx="346.19" cy="260.5" r="2.72"/><circle class="j" cx="283.42" cy="301.46" r="2.72"/><circle class="j" cx="307.87" cy="279.58" r="2.72"/><circle class="j" cx="329.03" cy="252.82" r="2.72"/><circle class="j" cx="334.59" cy="213.07" r="2.72"/><circle class="j" cx="362.87" cy="251.25" r="2.72"/><circle class="j" cx="367.27" cy="218.74" r="2.72"/><circle class="j" cx="365.99" cy="184.64" r="2.72"/><circle class="j" cx="344.42" cy="150.81" r="2.72"/><circle class="j" cx="373.6" cy="234.45" r="2.72"/><circle class="j" cx="378.01" cy="201.94" r="2.72"/><circle class="j" cx="376.73" cy="167.84" r="2.72"/><circle class="j" cx="355.16" cy="134" r="2.72"/><circle class="j" cx="350.91" cy="245.83" r="2.72"/><circle class="j" cx="359.09" cy="197.09" r="2.72"/><circle class="j" cx="357.81" cy="163" r="2.72"/><circle class="j" cx="336.24" cy="129.16" r="2.72"/><circle class="j" cx="344.13" cy="239.71" r="2.72"/><circle class="j" cx="361.55" cy="211.9" r="2.72"/><circle class="j" cx="365.6" cy="261.42" r="2.72"/><circle class="j" cx="368.74" cy="140.6" r="2.72"/><circle class="j" cx="347.58" cy="212.5" r="2.72"/><circle class="j" cx="333.51" cy="187.37" r="2.72"/><circle class="j" cx="350.7" cy="145.89" r="2.72"/><circle class="j" cx="327.58" cy="85.92" r="2.72"/><circle class="j" cx="354.91" cy="183.6" r="2.72"/><circle class="j" cx="341.41" cy="178.07" r="2.72"/><circle class="j" cx="329.68" cy="77.76" r="2.72"/><circle class="j" cx="299.74" cy="87.3" r="2.72"/><circle class="j" cx="356.36" cy="155.44" r="2.72"/><circle class="j" cx="349.1" cy="123.44" r="2.72"/><circle class="j" cx="335.96" cy="91.95" r="2.72"/><circle class="j" cx="303.91" cy="67.81" r="2.72"/><circle class="j" cx="336.94" cy="157.53" r="2.72"/><circle class="j" cx="329.68" cy="125.53" r="2.72"/><circle class="j" cx="316.55" cy="94.04" r="2.72"/><circle class="j" cx="284.5" cy="69.89" r="2.72"/><circle class="j" cx="330.59" cy="170.69" r="2.72"/><circle class="j" cx="337.17" cy="138.54" r="2.72"/><circle class="j" cx="338.19" cy="104.44" r="2.72"/><circle class="j" cx="318.94" cy="69.23" r="2.72"/><circle class="j" cx="324.3" cy="143.99" r="2.72"/><circle class="j" cx="317.04" cy="111.98" r="2.72"/><circle class="j" cx="303.9" cy="80.5" r="2.72"/><circle class="j" cx="271.85" cy="56.35" r="2.72"/><circle class="j" cx="148.71" cy="48.22" r="2.72"/><circle class="j" cx="120.4" cy="64.82" r="2.72"/><circle class="j" cx="90.09" cy="94.68" r="2.72"/><circle class="j" cx="177.19" cy="72.62" r="2.72"/><circle class="j" cx="128.87" cy="50.14" r="2.72"/><circle class="j" cx="100.56" cy="66.74" r="2.72"/><circle class="j" cx="74.52" cy="88.78" r="2.72"/><circle class="j" cx="61.19" cy="126.63" r="2.72"/><circle class="j" cx="197.23" cy="66" r="2.72"/><circle class="j" cx="108.42" cy="84.62" r="2.72"/><circle class="j" cx="83.69" cy="113.5" r="2.72"/><circle class="j" cx="49.4" cy="146.47" r="2.72"/><circle class="j" cx="151.19" cy="70.09" r="2.72"/><circle class="j" cx="118.56" cy="73.54" r="2.72"/><circle class="j" cx="85.75" cy="82.88" r="2.72"/><circle class="j" cx="55.28" cy="105.33" r="2.72"/><circle class="j" cx="127.64" cy="84.17" r="2.72"/><circle class="j" cx="99.33" cy="100.76" r="2.72"/><circle class="j" cx="73.29" cy="122.8" r="2.72"/><circle class="j" cx="59.97" cy="160.65" r="2.72"/><circle class="j" cx="34.16" cy="191.47" r="2.72"/><circle class="j" cx="42.8" cy="223.13" r="2.72"/><circle class="j" cx="57.28" cy="254.02" r="2.72"/><circle class="j" cx="90.35" cy="276.75" r="2.72"/><circle class="j" cx="30.84" cy="211.13" r="2.72"/><circle class="j" cx="39.48" cy="242.78" r="2.72"/><circle class="j" cx="47.42" cy="272.99" r="2.72"/><circle class="j" cx="84.3" cy="293.69" r="2.72"/><circle class="j" cx="50.15" cy="208.2" r="2.72"/><circle class="j" cx="58.78" cy="239.86" r="2.72"/><circle class="j" cx="73.27" cy="270.75" r="2.72"/><circle class="j" cx="106.33" cy="293.48" r="2.72"/><circle class="j" cx="55.92" cy="194.78" r="2.72"/><circle class="j" cx="50.74" cy="227.18" r="2.72"/><circle class="j" cx="51.2" cy="261.3" r="2.72"/><circle class="j" cx="64.32" cy="301.29" r="2.72"/><circle class="j" cx="63.36" cy="221.18" r="2.72"/><circle class="j" cx="72" cy="252.84" r="2.72"/><circle class="j" cx="86.49" cy="283.73" r="2.72"/><circle class="j" cx="119.55" cy="306.47" r="2.72"/><circle class="j" cx="128.63" cy="340.1" r="2.72"/><circle class="j" cx="157.94" cy="354.86" r="2.72"/><circle class="j" cx="190.59" cy="364.76" r="2.72"/><circle class="j" cx="229.61" cy="355.39" r="2.72"/><circle class="j" cx="141.02" cy="355.72" r="2.72"/><circle class="j" cx="170.33" cy="370.48" r="2.72"/><circle class="j" cx="202.98" cy="380.38" r="2.72"/><circle class="j" cx="242" cy="371.01" r="2.72"/><circle class="j" cx="151.76" cy="339.42" r="2.72"/><circle class="j" cx="181.07" cy="354.17" r="2.72"/><circle class="j" cx="213.72" cy="364.07" r="2.72"/><circle class="j" cx="252.74" cy="354.7" r="2.72"/><circle class="j" cx="154.72" cy="325.96" r="2.72"/><circle class="j" cx="166.27" cy="351.67" r="2.72"/><circle class="j" cx="191.93" cy="374.15" r="2.72"/><circle class="j" cx="231.34" cy="381.7" r="2.72"/><circle class="j" cx="170.25" cy="338.27" r="2.72"/><circle class="j" cx="199.56" cy="353.03" r="2.72"/><circle class="j" cx="220.95" cy="377.65" r="2.72"/><circle class="j" cx="271.23" cy="353.56" r="2.72"/><circle class="j" cx="261.19" cy="366.81" r="2.72"/><circle class="j" cx="287.85" cy="347.67" r="2.72"/><circle class="j" cx="311.75" cy="323.32" r="2.72"/><circle class="j" cx="321.53" cy="284.4" r="2.72"/><circle class="j" cx="280.78" cy="363.07" r="2.72"/><circle class="j" cx="307.43" cy="343.93" r="2.72"/><circle class="j" cx="331.33" cy="319.58" r="2.72"/><circle class="j" cx="341.11" cy="280.67" r="2.72"/><circle class="j" cx="271.3" cy="345.99" r="2.72"/><circle class="j" cx="297.96" cy="326.85" r="2.72"/><circle class="j" cx="321.86" cy="302.51" r="2.72"/><circle class="j" cx="331.64" cy="263.59" r="2.72"/><circle class="j" cx="260.4" cy="338.1" r="2.72"/><circle class="j" cx="288.88" cy="338.82" r="2.72"/><circle class="j" cx="320.7" cy="326.49" r="2.72"/><circle class="j" cx="345.65" cy="295.06" r="2.72"/><circle class="j" cx="278.86" cy="329.07" r="2.72"/><circle class="j" cx="305.52" cy="309.94" r="2.72"/><circle class="j" cx="329.42" cy="285.59" r="2.72"/><circle class="j" cx="354.56" cy="276.67" r="2.72"/><circle class="j" cx="347.6" cy="160.9" r="2.72"/><circle class="j" cx="327.87" cy="135.61" r="2.72"/><circle class="j" cx="317.04" cy="101.71" r="2.72"/><circle class="j" cx="276.95" cy="87.15" r="2.72"/><circle class="j" cx="347.33" cy="140.96" r="2.72"/><circle class="j" cx="350.7" cy="98.88" r="2.72"/><circle class="j" cx="313.3" cy="83.61" r="2.72"/><circle class="j" cx="276.68" cy="67.21" r="2.72"/><circle class="j" cx="287.62" cy="45.5" r="2.72"/><circle class="j" cx="314.65" cy="117.74" r="2.72"/><circle class="j" cx="361.55" cy="116.26" r="2.72"/><circle class="j" cx="258.21" cy="73.57" r="2.72"/><circle class="j" cx="325.6" cy="161.56" r="2.72"/><circle class="j" cx="324.85" cy="128.76" r="2.72"/><circle class="j" cx="301.43" cy="115.02" r="2.72"/><circle class="j" cx="291.65" cy="65.25" r="2.72"/><circle class="j" cx="313.52" cy="136.94" r="2.72"/><circle class="j" cx="299.31" cy="107.36" r="2.72"/><circle class="j" cx="279.49" cy="79.59" r="2.72"/><circle class="j" cx="242.87" cy="63.18" r="2.72"/><circle class="j" cx="111.21" cy="46.46" r="2.72"/><circle class="j" cx="86.57" cy="68.13" r="2.72"/><circle class="j" cx="65.18" cy="94.71" r="2.72"/><circle class="j" cx="59.29" cy="134.41" r="2.72"/><circle class="j" cx="92.09" cy="52.11" r="2.72"/><circle class="j" cx="67.45" cy="73.78" r="2.72"/><circle class="j" cx="46.07" cy="100.36" r="2.72"/><circle class="j" cx="40.17" cy="140.06" r="2.72"/><circle class="j" cx="108.42" cy="74.32" r="2.72"/><circle class="j" cx="78.56" cy="95.95" r="2.72"/><circle class="j" cx="57.18" cy="116.42" r="2.72"/><circle class="j" cx="51.28" cy="156.12" r="2.72"/><circle class="j" cx="108.49" cy="59.85" r="2.72"/><circle class="j" cx="86.41" cy="77.04" r="2.72"/><circle class="j" cx="55.97" cy="92.44" r="2.72"/><circle class="j" cx="34.23" cy="126.17" r="2.72"/><circle class="j" cx="97.35" cy="85.75" r="2.72"/><circle class="j" cx="72.71" cy="107.42" r="2.72"/><circle class="j" cx="51.32" cy="134" r="2.72"/><circle class="j" cx="48.55" cy="174.12" r="2.72"/><circle class="j" cx="364.55" cy="160.02" r="2.72"/><circle class="j" cx="348.91" cy="188.87" r="2.72"/><circle class="j" cx="338.02" cy="221.2" r="2.72"/><circle class="j" cx="346.19" cy="260.49" r="2.72"/><circle class="j" cx="348.56" cy="171.93" r="2.72"/><circle class="j" cx="332.92" cy="200.77" r="2.72"/><circle class="j" cx="322.02" cy="233.1" r="2.72"/><circle class="j" cx="330.19" cy="272.39" r="2.72"/><circle class="j" cx="358.82" cy="290.61" r="2.72"/><circle class="j" cx="360.15" cy="233.1" r="2.72"/><circle class="j" cx="338" cy="244.34" r="2.72"/><circle class="j" cx="346.17" cy="283.63" r="2.72"/><circle class="j" cx="377.99" cy="177.46" r="2.72"/><circle class="j" cx="351.84" cy="197.29" r="2.72"/><circle class="j" cx="328.59" cy="222.25" r="2.72"/><circle class="j" cx="319.83" cy="261.41" r="2.72"/><circle class="j" cx="365.11" cy="201.68" r="2.72"/><circle class="j" cx="349.46" cy="230.53" r="2.72"/><circle class="j" cx="338.57" cy="262.86" r="2.72"/><circle class="j" cx="346.74" cy="302.15" r="2.72"/><circle class="j" cx="275.24" cy="340.52" r="2.72"/><circle class="j" cx="243.08" cy="334.04" r="2.72"/><circle class="j" cx="208.97" cy="333.14" r="2.72"/><circle class="j" cx="173.82" cy="352.49" r="2.72"/><circle class="j" cx="259.17" cy="328.73" r="2.72"/><circle class="j" cx="227" cy="322.26" r="2.72"/><circle class="j" cx="192.89" cy="321.35" r="2.72"/><circle class="j" cx="163.73" cy="377.65" r="2.72"/><circle class="j" cx="253.12" cy="347.3" r="2.72"/><circle class="j" cx="220.95" cy="340.83" r="2.72"/><circle class="j" cx="186.85" cy="339.92" r="2.72"/><circle class="j" cx="151.7" cy="359.27" r="2.72"/><circle class="j" cx="262.53" cy="358.49" r="2.72"/><circle class="j" cx="235.89" cy="339.32" r="2.72"/><circle class="j" cx="205.19" cy="324.43" r="2.72"/><circle class="j" cx="152.45" cy="314.99" r="2.72"/><circle class="j" cx="235.59" cy="353.3" r="2.72"/><circle class="j" cx="203.42" cy="346.82" r="2.72"/><circle class="j" cx="169.32" cy="345.91" r="2.72"/><circle class="j" cx="134.16" cy="365.26" r="2.72"/><circle class="j" cx="205.19" cy="56.26" r="2.72"/><circle class="j" cx="58.34" cy="272.24" r="2.72"/><circle class="j" cx="77.11" cy="300.73" r="2.72"/><circle class="j" cx="125.91" cy="317.19" r="2.72"/><circle class="j" cx="182.9" cy="60.82" r="2.72"/><circle class="j" cx="57.88" cy="292.17" r="2.72"/><circle class="j" cx="76.65" cy="320.66" r="2.72"/><circle class="j" cx="113.93" cy="351.98" r="2.72"/><circle class="j" cx="63.46" cy="256.42" r="2.72"/><circle class="j" cx="76.56" cy="286.5" r="2.72"/><circle class="j" cx="95.34" cy="314.99" r="2.72"/><circle class="j" cx="131.33" cy="332.73" r="2.72"/><circle class="j" cx="67.25" cy="242.3" r="2.72"/><circle class="j" cx="66.78" cy="275.11" r="2.72"/><circle class="j" cx="72.14" cy="308.81" r="2.72"/><circle class="j" cx="87.63" cy="337.63" r="2.72"/><circle class="j" cx="78.41" cy="267.36" r="2.72"/><circle class="j" cx="91.51" cy="297.45" r="2.72"/><circle class="j" cx="104.84" cy="314.99" r="2.72"/><circle class="j" cx="125.8" cy="356.55" r="2.72"/><circle class="j" cx="254.21" cy="34.09" r="2.72"/><circle class="j" cx="269.21" cy="63.28" r="2.72"/><circle class="j" cx="289.77" cy="90.5" r="2.72"/><circle class="j" cx="326.82" cy="105.91" r="2.72"/><circle class="j" cx="255.02" cy="54.01" r="2.72"/><circle class="j" cx="270.02" cy="83.2" r="2.72"/><circle class="j" cx="290.58" cy="110.42" r="2.72"/><circle class="j" cx="350.7" cy="110.78" r="2.72"/><circle class="j" cx="273.31" cy="47.16" r="2.72"/><circle class="j" cx="288.31" cy="76.34" r="2.72"/><circle class="j" cx="308.87" cy="103.57" r="2.72"/><circle class="j" cx="345.92" cy="118.98" r="2.72"/><circle class="j" cx="276.18" cy="32.83" r="2.72"/><circle class="j" cx="242.87" cy="70.85" r="2.72"/><circle class="j" cx="285.32" cy="98.88" r="2.72"/><circle class="j" cx="312.72" cy="128.2" r="2.72"/><circle class="j" cx="288.93" cy="57.12" r="2.72"/><circle class="j" cx="306.87" cy="94.68" r="2.72"/><circle class="j" cx="324.48" cy="113.54" r="2.72"/><circle class="j" cx="361.53" cy="128.95" r="2.72"/><circle class="j" cx="85.39" cy="104.95" r="2.72"/><circle class="j" cx="71.77" cy="131.07" r="2.72"/><circle class="j" cx="58.47" cy="174.96" r="2.72"/><circle class="j" cx="67.02" cy="205.41" r="2.72"/><circle class="j" cx="69.4" cy="116.85" r="2.72"/><circle class="j" cx="31.51" cy="144.94" r="2.72"/><circle class="j" cx="42.05" cy="185.83" r="2.72"/><circle class="j" cx="30.77" cy="236.02" r="2.72"/><circle class="j" cx="85.37" cy="128.09" r="2.72"/><circle class="j" cx="73.84" cy="160.65" r="2.72"/><circle class="j" cx="229.59" cy="56.26" r="2.72"/><circle class="j" cx="67.01" cy="228.55" r="2.72"/><circle class="j" cx="98.83" cy="122.39" r="2.72"/><circle class="j" cx="72.68" cy="142.21" r="2.72"/><circle class="j" cx="35.1" cy="165.67" r="2.72"/><circle class="j" cx="40.67" cy="206.34" r="2.72"/><circle class="j" cx="85.95" cy="146.61" r="2.72"/><circle class="j" cx="70.3" cy="175.45" r="2.72"/><circle class="j" cx="59.41" cy="207.79" r="2.72"/><circle class="j" cx="78.57" cy="244.89" r="2.72"/><circle class="j" cx="151.6" cy="62.37" r="2.72"/><circle class="j" cx="132.62" cy="57.78" r="2.72"/><circle class="j" cx="144.72" cy="53.95" r="2.72"/><circle class="j" cx="141.17" cy="64.94" r="2.72"/><circle class="j" cx="140.83" cy="48" r="2.72"/><circle class="j" cx="115.63" cy="98.04" r="2.72"/><circle class="j" cx="170.25" cy="53.53" r="2.72"/><circle class="j" cx="134" cy="84.17" r="2.72"/><circle class="j" cx="157.37" cy="77.76" r="2.72"/></svg>