<?xml version="1.0" encoding="UTF-8"?><svg xmlns="http://www.w3.org/2000/svg" viewBox="0 0 620 624.88"><defs><style>.c,.d{fill:#e9c6df;}.e,.f{fill:#8c6c73;}.g,.h{fill:#d291bf;}.i,.j{fill:#a363a9;}.k{fill:#28212f;}.l{stroke:#7d5982;}.l,.m,.n,.o,.p{fill:none;}.l,.m,.n,.p{stroke-miterlimit:10;}.m{stroke:#e9c7df;}.n{stroke:#d190be;}.o{stroke:#28212f;stroke-linecap:round;stroke-linejoin:round;stroke-width:9px;}.o,.j,.q,.h,.f,.d{font-weight: bold; font-family:"National 2 Web", -apple-system, BlinkMacSystemFont, Helvetica, Arial, sans-serif, 'National 2';font-size:19.41px;}.p{stroke:#8c6c73;stroke-dasharray:0 0 5.01 5.01;stroke-width:.5px;}.q{fill:#cfafd1;}</style></defs><g id="a"><rect class="k" x="-223.37" y="-884.47" width="11086.49" height="5126.92"/></g><g id="b"><circle class="i" cx="300.47" cy="193.33" r="4.31"/><circle class="i" cx="247.66" cy="141.35" r="4.31"/><circle class="i" cx="334.63" cy="202.28" r="4.31"/><circle class="i" cx="323.27" cy="182.19" r="4.31"/><circle class="i" cx="181.94" cy="184.61" r="4.31"/><circle class="i" cx="279.04" cy="182.08" r="4.31"/><circle class="i" cx="304.27" cy="215.2" r="4.31"/><circle class="i" cx="251.96" cy="193.93" r="4.31"/><circle class="i" cx="279.04" cy="219.51" r="4.31"/><circle class="i" cx="258.64" cy="158.08" r="4.31"/><circle class="i" cx="444.38" cy="234.18" r="4.31"/><circle class="i" cx="352.05" cy="143.78" r="4.31"/><circle class="i" cx="439.02" cy="204.7" r="4.31"/><circle class="i" cx="427.67" cy="184.61" r="4.31"/><circle class="i" cx="347.74" cy="178.02" r="4.31"/><circle class="i" cx="383.43" cy="184.5" r="4.31"/><circle class="i" cx="408.67" cy="217.63" r="4.31"/><circle class="i" cx="408.67" cy="191.58" r="4.31"/><circle class="i" cx="383.43" cy="221.93" r="4.31"/><circle class="i" cx="363.04" cy="160.5" r="4.31"/><circle class="i" cx="466.22" cy="288.59" r="4.31"/><circle class="i" cx="380.77" cy="359.39" r="4.31"/><circle class="i" cx="446.26" cy="278.43" r="4.31"/><circle class="i" cx="417.54" cy="307.72" r="4.31"/><circle class="i" cx="414.88" cy="387.87" r="4.31"/><circle class="i" cx="389.62" cy="338.23" r="4.31"/><circle class="i" cx="451.44" cy="325.07" r="4.31"/><circle class="i" cx="432.77" cy="378.37" r="4.31"/><circle class="i" cx="456.98" cy="350.06" r="4.31"/><circle class="i" cx="396.62" cy="373.45" r="4.31"/><circle class="i" cx="450.57" cy="260.24" r="4.31"/><circle class="i" cx="239.82" cy="169.11" r="4.31"/><circle class="i" cx="454.87" cy="216.62" r="4.31"/><circle class="i" cx="429.74" cy="264.96" r="4.31"/><circle class="i" cx="353.93" cy="204.08" r="4.31"/><circle class="i" cx="389.62" cy="210.56" r="4.31"/><circle class="i" cx="414.85" cy="243.68" r="4.31"/><circle class="i" cx="362.54" cy="222.41" r="4.31"/><circle class="i" cx="481.41" cy="266.92" r="4.31"/><circle class="i" cx="369.22" cy="186.56" r="4.31"/><path class="p" d="M612.32,309.62c0,166.4-134.89,301.29-301.29,301.29-399.66-15.87-399.55-586.78,0-602.59,166.4,0,301.29,134.89,301.29,301.29h0Z"/><text class="f" transform="translate(237.9 43.02)"><tspan x="0" y="0">People we know</tspan><tspan x="47.02" y="23.29">(500)</tspan></text><circle class="l" cx="310" cy="306.1" r="190.07"/><text class="j" transform="translate(276.07 137.52)"><tspan x="0" y="0">Friends</tspan><tspan x="11.12" y="23.29">(150)</tspan></text><circle class="n" cx="313.02" cy="306.1" r="63.47"/><circle class="m" cx="313.02" cy="306.1" r="24.56"/><g><text class="q" transform="translate(330.2 312.44)"><tspan x="0" y="0">Intimate (1-2)</tspan></text><text class="o" transform="translate(330.2 312.44)"><tspan x="0" y="0">Intimate (1-2)</tspan></text><text class="d" transform="translate(330.2 312.44)"><tspan x="0" y="0">Intimate (1-2)</tspan></text></g><g><text class="q" transform="translate(242.84 248.53)"><tspan x="0" y="0">Best friends (15)</tspan></text><text class="o" transform="translate(242.84 248.53)"><tspan x="0" y="0">Best friends (15)</tspan></text><text class="h" transform="translate(242.84 248.53)"><tspan x="0" y="0">Best friends (15)</tspan></text></g><circle class="c" cx="311.02" cy="308.13" r="4.31"/><circle class="c" cx="303.41" cy="296.77" r="4.31"/><g><circle class="g" cx="358.18" cy="283.5" r="4.31"/><circle class="g" cx="344.25" cy="262.61" r="4.31"/><circle class="g" cx="337.58" cy="345.28" r="4.31"/><circle class="g" cx="282.34" cy="343.11" r="4.31"/><circle class="g" cx="303.41" cy="338.23" r="4.31"/><circle class="g" cx="310" cy="258.3" r="4.31"/><circle class="g" cx="274.03" cy="278.43" r="4.31"/><circle class="g" cx="270.4" cy="319.23" r="4.31"/><circle class="g" cx="353.88" cy="332.36" r="4.31"/><circle class="g" cx="291.67" cy="266.92" r="4.31"/><circle class="g" cx="318.01" cy="349.59" r="4.31"/><circle class="g" cx="266.31" cy="300.25" r="4.31"/><circle class="g" cx="327.52" cy="273.6" r="4.31"/></g><circle class="i" cx="274.03" cy="198.88" r="4.31"/><circle class="i" cx="260.09" cy="177.99" r="4.31"/><circle class="i" cx="199.16" cy="264.96" r="4.31"/><circle class="i" cx="219.25" cy="253.61" r="4.31"/><circle class="i" cx="225.85" cy="173.68" r="4.31"/><circle class="i" cx="275.91" cy="164.8" r="4.31"/><circle class="i" cx="186.24" cy="234.61" r="4.31"/><circle class="i" cx="207.51" cy="182.3" r="4.31"/><circle class="i" cx="181.94" cy="209.37" r="4.31"/><circle class="i" cx="217.49" cy="162.38" r="4.31"/><circle class="i" cx="366.56" cy="470.43" r="4.31"/><circle class="i" cx="387.45" cy="456.49" r="4.31"/><circle class="i" cx="293.13" cy="390.54" r="4.31"/><circle class="i" cx="288.82" cy="438.09" r="4.31"/><circle class="i" cx="391.76" cy="422.25" r="4.31"/><circle class="i" cx="376.49" cy="386.23" r="4.31"/><circle class="i" cx="324.88" cy="392.69" r="4.31"/><circle class="i" cx="408.49" cy="422.26" r="4.31"/><circle class="i" cx="356.06" cy="378.34" r="4.31"/><circle class="i" cx="376.46" cy="439.77" r="4.31"/><circle class="i" cx="266.31" cy="367.2" r="4.31"/><circle class="i" cx="251.96" cy="403.07" r="4.31"/><circle class="i" cx="340.68" cy="455.89" r="4.31"/><circle class="i" cx="329.32" cy="435.8" r="4.31"/><circle class="i" cx="249.39" cy="429.21" r="4.31"/><circle class="i" cx="264.69" cy="460.2" r="4.31"/><circle class="i" cx="310.32" cy="468.81" r="4.31"/><circle class="i" cx="244.13" cy="461.53" r="4.31"/><circle class="i" cx="285.08" cy="473.12" r="4.31"/><circle class="i" cx="264.69" cy="411.68" r="4.31"/><circle class="i" cx="188.45" cy="305.12" r="4.31"/><circle class="i" cx="161.37" cy="304.56" r="4.31"/><circle class="i" cx="239.06" cy="367.2" r="4.31"/><circle class="i" cx="236.99" cy="345.4" r="4.31"/><circle class="i" cx="157.06" cy="338.8" r="4.31"/><circle class="i" cx="192.75" cy="345.28" r="4.31"/><circle class="i" cx="217.99" cy="378.41" r="4.31"/><circle class="i" cx="189.12" cy="386.95" r="4.31"/><circle class="i" cx="192.75" cy="405.03" r="4.31"/><circle class="i" cx="172.36" cy="321.28" r="4.31"/><circle class="i" cx="266.31" cy="437.38" r="4.31"/><circle class="i" cx="173.98" cy="346.97" r="4.31"/><circle class="i" cx="287.36" cy="410.99" r="4.31"/><circle class="i" cx="249.59" cy="387.81" r="4.31"/><circle class="i" cx="169.67" cy="381.22" r="4.31"/><circle class="i" cx="211.82" cy="359.39" r="4.31"/><circle class="i" cx="230.6" cy="420.82" r="4.31"/><circle class="i" cx="175.06" cy="425.85" r="4.31"/><circle class="i" cx="205.36" cy="425.13" r="4.31"/><circle class="i" cx="190.55" cy="365.49" r="4.31"/><circle class="i" cx="150.6" cy="278.43" r="4.31"/><circle class="i" cx="260.12" cy="209.85" r="4.31"/><circle class="i" cx="184.82" cy="264.96" r="4.31"/><circle class="i" cx="202.7" cy="294.93" r="4.31"/><circle class="i" cx="227.84" cy="197.64" r="4.31"/><circle class="i" cx="213.18" cy="230.82" r="4.31"/><circle class="i" cx="175.06" cy="247.59" r="4.31"/><circle class="i" cx="208" cy="201.72" r="4.31"/><circle class="i" cx="168.05" cy="218.11" r="4.31"/><circle class="i" cx="241.29" cy="216.62" r="4.31"/><circle class="i" cx="230.26" cy="331.51" r="4.31"/><circle class="i" cx="142.23" cy="242.63" r="4.31"/><circle class="i" cx="224.9" cy="302.04" r="4.31"/><circle class="i" cx="213.54" cy="281.95" r="4.31"/><circle class="i" cx="133.62" cy="275.36" r="4.31"/><circle class="i" cx="169.31" cy="281.83" r="4.31"/><circle class="i" cx="208" cy="328.05" r="4.31"/><circle class="i" cx="140.3" cy="308.13" r="4.31"/><circle class="i" cx="148.91" cy="374.1" r="4.31"/><circle class="i" cx="159.21" cy="255.93" r="4.31"/><circle class="i" cx="460.63" cy="397" r="4.31"/><circle class="i" cx="341.23" cy="404.85" r="4.31"/><circle class="i" cx="431.42" cy="348.8" r="4.31"/><circle class="i" cx="408.49" cy="351.35" r="4.31"/><circle class="i" cx="371.03" cy="422.26" r="4.31"/><circle class="i" cx="391.01" cy="391.98" r="4.31"/><circle class="i" cx="414.88" cy="441.69" r="4.31"/><circle class="i" cx="391.27" cy="421.54" r="4.31"/><circle class="i" cx="425.43" cy="406.68" r="4.31"/><circle class="i" cx="360.92" cy="401.31" r="4.31"/><circle class="i" cx="336.36" cy="377.47" r="4.31"/><circle class="i" cx="229.92" cy="450.73" r="4.31"/><circle class="i" cx="306.41" cy="377.07" r="4.31"/><circle class="i" cx="279.04" cy="394.85" r="4.31"/><circle class="i" cx="269" cy="474.74" r="4.31"/><circle class="i" cx="353.88" cy="438.85" r="4.31"/><circle class="i" cx="313.26" cy="409.34" r="4.31"/><circle class="i" cx="282.34" cy="456.6" r="4.31"/><circle class="i" cx="312.64" cy="434.93" r="4.31"/><circle class="i" cx="248.44" cy="443.16" r="4.31"/><circle class="i" cx="225.85" cy="397" r="4.31"/><circle class="i" cx="474.83" cy="240.37" r="4.31"/><circle class="i" cx="404.18" cy="165.53" r="4.31"/><circle class="i" cx="410.55" cy="277.53" r="4.31"/><circle class="i" cx="392.32" cy="281.54" r="4.31"/><circle class="e" cx="65.98" cy="172.66" r="4.31"/><circle class="e" cx="338.94" cy="100.45" r="4.31"/><circle class="e" cx="57.37" cy="270.62" r="4.31"/><circle class="e" cx="70.29" cy="332.76" r="4.31"/><circle class="e" cx="74.05" cy="192.69" r="4.31"/><circle class="e" cx="49.3" cy="238.31" r="4.31"/><circle class="e" cx="32.07" cy="289.45" r="4.31"/><circle class="e" cx="44.99" cy="351.59" r="4.31"/><circle class="e" cx="99.31" cy="210.46" r="4.31"/><circle class="e" cx="74.56" cy="256.08" r="4.31"/><circle class="e" cx="57.33" cy="307.22" r="4.31"/><circle class="e" cx="70.25" cy="369.36" r="4.31"/><circle class="e" cx="118.04" cy="209.01" r="4.31"/><circle class="e" cx="83.93" cy="229.87" r="4.31"/><circle class="e" cx="42.45" cy="272.28" r="4.31"/><circle class="e" cx="28.6" cy="334.22" r="4.31"/><circle class="e" cx="100.22" cy="239.75" r="4.31"/><circle class="e" cx="75.47" cy="285.37" r="4.31"/><circle class="e" cx="58.24" cy="336.51" r="4.31"/><circle class="e" cx="71.16" cy="398.65" r="4.31"/><circle class="e" cx="52.5" cy="390.79" r="4.31"/><circle class="e" cx="77.5" cy="436.26" r="4.31"/><circle class="e" cx="157.79" cy="474.09" r="4.31"/><circle class="e" cx="170.48" cy="501.12" r="4.31"/><circle class="e" cx="54.66" cy="422.24" r="4.31"/><circle class="e" cx="79.67" cy="467.72" r="4.31"/><circle class="e" cx="113.38" cy="509.85" r="4.31"/><circle class="e" cx="172.64" cy="532.57" r="4.31"/><circle class="e" cx="83.27" cy="410.59" r="4.31"/><circle class="e" cx="108.28" cy="456.07" r="4.31"/><circle class="e" cx="140.26" cy="509.41" r="4.31"/><circle class="e" cx="201.25" cy="520.92" r="4.31"/><circle class="e" cx="92.05" cy="385.53" r="4.31"/><circle class="e" cx="91.21" cy="439.56" r="4.31"/><circle class="e" cx="104.55" cy="491.85" r="4.31"/><circle class="e" cx="149.18" cy="536.98" r="4.31"/><circle class="e" cx="117.69" cy="431.49" r="4.31"/><circle class="e" cx="131.42" cy="480.97" r="4.31"/><circle class="e" cx="167.12" cy="513.27" r="4.31"/><circle class="e" cx="226.38" cy="535.99" r="4.31"/><circle class="e" cx="190.14" cy="513.8" r="4.31"/><circle class="e" cx="216.82" cy="522.1" r="4.31"/><circle class="e" cx="291.37" cy="543.39" r="4.31"/><circle class="e" cx="351.41" cy="522.83" r="4.31"/><circle class="e" cx="211.97" cy="536.55" r="4.31"/><circle class="e" cx="251.04" cy="568.32" r="4.31"/><circle class="e" cx="313.2" cy="566.14" r="4.31"/><circle class="e" cx="373.24" cy="545.58" r="4.31"/><circle class="e" cx="226.45" cy="509.27" r="4.31"/><circle class="e" cx="274.8" cy="528.14" r="4.31"/><circle class="e" cx="327.68" cy="538.86" r="4.31"/><circle class="e" cx="387.73" cy="518.3" r="4.31"/><circle class="e" cx="214.85" cy="489.28" r="4.31"/><circle class="e" cx="251.12" cy="526.41" r="4.31"/><circle class="e" cx="294.87" cy="557.98" r="4.31"/><circle class="e" cx="336.11" cy="556.93" r="4.31"/><circle class="e" cx="255.4" cy="504.72" r="4.31"/><circle class="e" cx="303.75" cy="523.59" r="4.31"/><circle class="e" cx="356.63" cy="534.31" r="4.31"/><circle class="e" cx="416.68" cy="513.75" r="4.31"/><circle class="e" cx="389.82" cy="500.41" r="4.31"/><circle class="e" cx="459.32" cy="498.41" r="4.31"/><circle class="e" cx="492.79" cy="456.08" r="4.31"/><circle class="e" cx="501.58" cy="393.23" r="4.31"/><circle class="e" cx="450.8" cy="523.82" r="4.31"/><circle class="e" cx="489.49" cy="489.22" r="4.31"/><circle class="e" cx="524.09" cy="465.23" r="4.31"/><circle class="e" cx="553.1" cy="415.11" r="4.31"/><circle class="e" cx="433.02" cy="498.57" r="4.31"/><circle class="e" cx="471.7" cy="463.97" r="4.31"/><circle class="e" cx="505.16" cy="421.64" r="4.31"/><circle class="e" cx="513.95" cy="358.78" r="4.31"/><circle class="e" cx="409.94" cy="499.89" r="4.31"/><circle class="e" cx="459.45" cy="484.31" r="4.31"/><circle class="e" cx="507.39" cy="459.55" r="4.31"/><circle class="e" cx="541.32" cy="405.91" r="4.31"/><circle class="e" cx="442.04" cy="470.69" r="4.31"/><circle class="e" cx="480.72" cy="436.09" r="4.31"/><circle class="e" cx="514.18" cy="393.76" r="4.31"/><circle class="e" cx="522.98" cy="330.9" r="4.31"/><circle class="e" cx="567.71" cy="391.29" r="4.31"/><circle class="e" cx="574.67" cy="339.86" r="4.31"/><circle class="e" cx="572.65" cy="285.94" r="4.31"/><circle class="e" cx="538.53" cy="232.42" r="4.31"/><circle class="e" cx="584.68" cy="364.72" r="4.31"/><circle class="e" cx="591.64" cy="313.29" r="4.31"/><circle class="e" cx="589.62" cy="259.36" r="4.31"/><circle class="e" cx="555.51" cy="205.84" r="4.31"/><circle class="e" cx="548.79" cy="382.71" r="4.31"/><circle class="e" cx="561.72" cy="305.63" r="4.31"/><circle class="e" cx="559.7" cy="251.7" r="4.31"/><circle class="e" cx="525.58" cy="198.18" r="4.31"/><circle class="e" cx="538.07" cy="373.04" r="4.31"/><circle class="e" cx="565.61" cy="329.05" r="4.31"/><circle class="e" cx="572.02" cy="407.37" r="4.31"/><circle class="e" cx="576.99" cy="216.27" r="4.31"/><circle class="e" cx="543.53" cy="329.99" r="4.31"/><circle class="e" cx="521.28" cy="290.24" r="4.31"/><circle class="e" cx="548.46" cy="224.64" r="4.31"/><circle class="e" cx="511.89" cy="129.79" r="4.31"/><circle class="e" cx="555.12" cy="284.28" r="4.31"/><circle class="e" cx="533.76" cy="275.53" r="4.31"/><circle class="e" cx="515.21" cy="116.88" r="4.31"/><circle class="e" cx="467.86" cy="131.98" r="4.31"/><circle class="e" cx="557.41" cy="239.75" r="4.31"/><circle class="e" cx="545.92" cy="189.13" r="4.31"/><circle class="e" cx="525.15" cy="139.34" r="4.31"/><circle class="e" cx="474.46" cy="101.15" r="4.31"/><circle class="e" cx="526.7" cy="243.05" r="4.31"/><circle class="e" cx="515.21" cy="192.44" r="4.31"/><circle class="e" cx="494.44" cy="142.64" r="4.31"/><circle class="e" cx="443.75" cy="104.45" r="4.31"/><circle class="e" cx="516.66" cy="263.86" r="4.31"/><circle class="e" cx="527.06" cy="213.02" r="4.31"/><circle class="e" cx="528.67" cy="159.08" r="4.31"/><circle class="e" cx="498.23" cy="103.39" r="4.31"/><circle class="e" cx="506.7" cy="221.63" r="4.31"/><circle class="e" cx="495.21" cy="171.02" r="4.31"/><circle class="e" cx="474.44" cy="121.22" r="4.31"/><circle class="e" cx="423.75" cy="83.03" r="4.31"/><circle class="e" cx="228.99" cy="70.17" r="4.31"/><circle class="e" cx="184.22" cy="96.42" r="4.31"/><circle class="e" cx="136.27" cy="143.64" r="4.31"/><circle class="e" cx="274.03" cy="108.75" r="4.31"/><circle class="e" cx="197.6" cy="73.21" r="4.31"/><circle class="e" cx="152.83" cy="99.45" r="4.31"/><circle class="e" cx="111.64" cy="134.31" r="4.31"/><circle class="e" cx="90.56" cy="194.18" r="4.31"/><circle class="e" cx="305.73" cy="98.29" r="4.31"/><circle class="e" cx="165.26" cy="127.73" r="4.31"/><circle class="e" cx="126.15" cy="173.42" r="4.31"/><circle class="e" cx="71.92" cy="225.56" r="4.31"/><circle class="e" cx="232.91" cy="104.76" r="4.31"/><circle class="e" cx="181.3" cy="110.22" r="4.31"/><circle class="e" cx="129.4" cy="124.99" r="4.31"/><circle class="e" cx="81.21" cy="160.5" r="4.31"/><circle class="e" cx="195.66" cy="127.02" r="4.31"/><circle class="e" cx="150.89" cy="153.27" r="4.31"/><circle class="e" cx="109.7" cy="188.13" r="4.31"/><circle class="e" cx="88.62" cy="247.99" r="4.31"/><circle class="e" cx="47.81" cy="296.73" r="4.31"/><circle class="e" cx="61.48" cy="346.8" r="4.31"/><circle class="e" cx="84.38" cy="395.66" r="4.31"/><circle class="e" cx="136.68" cy="431.62" r="4.31"/><circle class="e" cx="42.55" cy="327.82" r="4.31"/><circle class="e" cx="56.22" cy="377.89" r="4.31"/><circle class="e" cx="68.79" cy="425.66" r="4.31"/><circle class="e" cx="127.12" cy="458.4" r="4.31"/><circle class="e" cx="73.09" cy="323.19" r="4.31"/><circle class="e" cx="86.76" cy="373.26" r="4.31"/><circle class="e" cx="109.67" cy="422.12" r="4.31"/><circle class="e" cx="161.96" cy="458.08" r="4.31"/><circle class="e" cx="82.23" cy="301.97" r="4.31"/><circle class="e" cx="74.03" cy="353.22" r="4.31"/><circle class="e" cx="74.76" cy="407.17" r="4.31"/><circle class="e" cx="95.52" cy="470.43" r="4.31"/><circle class="e" cx="94" cy="343.73" r="4.31"/><circle class="e" cx="107.66" cy="393.8" r="4.31"/><circle class="e" cx="130.57" cy="442.65" r="4.31"/><circle class="e" cx="182.87" cy="478.61" r="4.31"/><circle class="e" cx="197.23" cy="531.82" r="4.31"/><circle class="e" cx="243.59" cy="555.15" r="4.31"/><circle class="e" cx="295.23" cy="570.81" r="4.31"/><circle class="e" cx="356.94" cy="555.99" r="4.31"/><circle class="e" cx="216.82" cy="556.52" r="4.31"/><circle class="e" cx="263.18" cy="579.86" r="4.31"/><circle class="e" cx="314.82" cy="595.51" r="4.31"/><circle class="e" cx="376.53" cy="580.7" r="4.31"/><circle class="e" cx="233.81" cy="530.73" r="4.31"/><circle class="e" cx="280.17" cy="554.06" r="4.31"/><circle class="e" cx="331.81" cy="569.72" r="4.31"/><circle class="e" cx="393.52" cy="554.9" r="4.31"/><circle class="e" cx="238.48" cy="509.45" r="4.31"/><circle class="e" cx="256.75" cy="550.11" r="4.31"/><circle class="e" cx="297.34" cy="585.66" r="4.31"/><circle class="e" cx="359.68" cy="597.61" r="4.31"/><circle class="e" cx="263.06" cy="528.92" r="4.31"/><circle class="e" cx="309.42" cy="552.26" r="4.31"/><circle class="e" cx="343.24" cy="591.21" r="4.31"/><circle class="e" cx="422.77" cy="553.1" r="4.31"/><circle class="e" cx="406.89" cy="574.05" r="4.31"/><circle class="e" cx="449.05" cy="543.78" r="4.31"/><circle class="e" cx="486.85" cy="505.28" r="4.31"/><circle class="e" cx="502.32" cy="443.72" r="4.31"/><circle class="e" cx="437.86" cy="568.13" r="4.31"/><circle class="e" cx="480.03" cy="537.87" r="4.31"/><circle class="e" cx="517.83" cy="499.36" r="4.31"/><circle class="e" cx="533.29" cy="437.81" r="4.31"/><circle class="e" cx="422.88" cy="541.12" r="4.31"/><circle class="e" cx="465.04" cy="510.86" r="4.31"/><circle class="e" cx="502.84" cy="472.35" r="4.31"/><circle class="e" cx="518.31" cy="410.8" r="4.31"/><circle class="e" cx="405.64" cy="528.65" r="4.31"/><circle class="e" cx="450.69" cy="529.78" r="4.31"/><circle class="e" cx="501" cy="510.28" r="4.31"/><circle class="e" cx="540.47" cy="460.58" r="4.31"/><circle class="e" cx="434.83" cy="514.37" r="4.31"/><circle class="e" cx="477" cy="484.1" r="4.31"/><circle class="e" cx="514.79" cy="445.6" r="4.31"/><circle class="e" cx="554.57" cy="431.49" r="4.31"/><circle class="e" cx="543.56" cy="248.37" r="4.31"/><circle class="e" cx="512.35" cy="208.39" r="4.31"/><circle class="e" cx="495.21" cy="154.77" r="4.31"/><circle class="e" cx="431.82" cy="131.73" r="4.31"/><circle class="e" cx="543.12" cy="216.85" r="4.31"/><circle class="e" cx="548.46" cy="150.3" r="4.31"/><circle class="e" cx="489.31" cy="126.14" r="4.31"/><circle class="e" cx="431.38" cy="100.2" r="4.31"/><circle class="e" cx="448.69" cy="65.86" r="4.31"/><circle class="e" cx="491.45" cy="180.12" r="4.31"/><circle class="e" cx="565.61" cy="177.78" r="4.31"/><circle class="e" cx="402.18" cy="110.26" r="4.31"/><circle class="e" cx="508.76" cy="249.43" r="4.31"/><circle class="e" cx="507.58" cy="197.55" r="4.31"/><circle class="e" cx="470.53" cy="175.81" r="4.31"/><circle class="e" cx="455.06" cy="97.09" r="4.31"/><circle class="e" cx="489.65" cy="210.48" r="4.31"/><circle class="e" cx="467.18" cy="163.69" r="4.31"/><circle class="e" cx="435.84" cy="119.77" r="4.31"/><circle class="e" cx="377.91" cy="93.83" r="4.31"/><circle class="e" cx="169.68" cy="67.39" r="4.31"/><circle class="e" cx="130.7" cy="101.66" r="4.31"/><circle class="e" cx="96.88" cy="143.7" r="4.31"/><circle class="e" cx="87.55" cy="206.48" r="4.31"/><circle class="e" cx="139.44" cy="76.32" r="4.31"/><circle class="e" cx="100.46" cy="110.59" r="4.31"/><circle class="e" cx="66.64" cy="152.64" r="4.31"/><circle class="e" cx="57.31" cy="215.42" r="4.31"/><circle class="e" cx="165.26" cy="111.45" r="4.31"/><circle class="e" cx="118.04" cy="145.66" r="4.31"/><circle class="e" cx="84.21" cy="178.04" r="4.31"/><circle class="e" cx="74.89" cy="240.82" r="4.31"/><circle class="e" cx="165.37" cy="88.56" r="4.31"/><circle class="e" cx="130.46" cy="115.75" r="4.31"/><circle class="e" cx="82.31" cy="140.11" r="4.31"/><circle class="e" cx="47.92" cy="193.46" r="4.31"/><circle class="e" cx="147.75" cy="129.52" r="4.31"/><circle class="e" cx="108.78" cy="163.8" r="4.31"/><circle class="e" cx="74.95" cy="205.84" r="4.31"/><circle class="e" cx="70.58" cy="269.29" r="4.31"/><circle class="e" cx="570.37" cy="247" r="4.31"/><circle class="e" cx="545.62" cy="292.62" r="4.31"/><circle class="e" cx="528.4" cy="343.75" r="4.31"/><circle class="e" cx="541.32" cy="405.89" r="4.31"/><circle class="e" cx="545.08" cy="265.82" r="4.31"/><circle class="e" cx="520.33" cy="311.45" r="4.31"/><circle class="e" cx="503.1" cy="362.58" r="4.31"/><circle class="e" cx="516.02" cy="424.72" r="4.31"/><circle class="e" cx="561.31" cy="453.53" r="4.31"/><circle class="e" cx="563.4" cy="362.58" r="4.31"/><circle class="e" cx="528.37" cy="380.35" r="4.31"/><circle class="e" cx="541.29" cy="442.49" r="4.31"/><circle class="e" cx="591.61" cy="274.57" r="4.31"/><circle class="e" cx="550.26" cy="305.93" r="4.31"/><circle class="e" cx="513.48" cy="345.42" r="4.31"/><circle class="e" cx="499.63" cy="407.36" r="4.31"/><circle class="e" cx="571.25" cy="312.89" r="4.31"/><circle class="e" cx="546.5" cy="358.51" r="4.31"/><circle class="e" cx="529.27" cy="409.64" r="4.31"/><circle class="e" cx="542.19" cy="471.78" r="4.31"/><circle class="e" cx="429.12" cy="532.48" r="4.31"/><circle class="e" cx="378.24" cy="522.23" r="4.31"/><circle class="e" cx="324.3" cy="520.79" r="4.31"/><circle class="e" cx="268.7" cy="551.41" r="4.31"/><circle class="e" cx="403.69" cy="513.83" r="4.31"/><circle class="e" cx="352.81" cy="503.59" r="4.31"/><circle class="e" cx="298.87" cy="502.15" r="4.31"/><circle class="e" cx="252.74" cy="591.21" r="4.31"/><circle class="e" cx="394.12" cy="543.2" r="4.31"/><circle class="e" cx="343.24" cy="532.96" r="4.31"/><circle class="e" cx="289.3" cy="531.52" r="4.31"/><circle class="e" cx="233.71" cy="562.13" r="4.31"/><circle class="e" cx="409" cy="560.89" r="4.31"/><circle class="e" cx="366.87" cy="530.58" r="4.31"/><circle class="e" cx="318.32" cy="507.03" r="4.31"/><circle class="e" cx="234.9" cy="492.09" r="4.31"/><circle class="e" cx="366.39" cy="552.68" r="4.31"/><circle class="e" cx="315.51" cy="542.43" r="4.31"/><circle class="e" cx="261.58" cy="541" r="4.31"/><circle class="e" cx="205.98" cy="571.61" r="4.31"/><circle class="e" cx="318.32" cy="82.88" r="4.31"/><circle class="e" cx="86.05" cy="424.48" r="4.31"/><circle class="e" cx="115.75" cy="469.54" r="4.31"/><circle class="e" cx="192.92" cy="495.58" r="4.31"/><circle class="e" cx="283.05" cy="90.1" r="4.31"/><circle class="e" cx="85.32" cy="456.01" r="4.31"/><circle class="e" cx="115.01" cy="501.06" r="4.31"/><circle class="e" cx="173.98" cy="550.59" r="4.31"/><circle class="e" cx="94.16" cy="399.45" r="4.31"/><circle class="e" cx="114.88" cy="447.04" r="4.31"/><circle class="e" cx="144.57" cy="492.09" r="4.31"/><circle class="e" cx="201.49" cy="520.16" r="4.31"/><circle class="e" cx="100.14" cy="377.13" r="4.31"/><circle class="e" cx="99.4" cy="429.03" r="4.31"/><circle class="e" cx="107.88" cy="482.31" r="4.31"/><circle class="e" cx="132.37" cy="527.9" r="4.31"/><circle class="e" cx="117.8" cy="416.77" r="4.31"/><circle class="e" cx="138.52" cy="464.35" r="4.31"/><circle class="e" cx="159.6" cy="492.09" r="4.31"/><circle class="e" cx="192.75" cy="557.82" r="4.31"/><circle class="e" cx="395.85" cy="47.82" r="4.31"/><circle class="e" cx="419.57" cy="93.98" r="4.31"/><circle class="e" cx="452.08" cy="137.04" r="4.31"/><circle class="e" cx="510.69" cy="161.41" r="4.31"/><circle class="e" cx="397.13" cy="79.32" r="4.31"/><circle class="e" cx="420.85" cy="125.48" r="4.31"/><circle class="e" cx="453.37" cy="168.55" r="4.31"/><circle class="e" cx="548.46" cy="169.11" r="4.31"/><circle class="e" cx="426.06" cy="68.48" r="4.31"/><circle class="e" cx="449.78" cy="114.64" r="4.31"/><circle class="e" cx="482.29" cy="157.71" r="4.31"/><circle class="e" cx="540.89" cy="182.08" r="4.31"/><circle class="e" cx="430.6" cy="45.82" r="4.31"/><circle class="e" cx="377.91" cy="105.95" r="4.31"/><circle class="e" cx="445.05" cy="150.3" r="4.31"/><circle class="e" cx="488.39" cy="196.66" r="4.31"/><circle class="e" cx="450.76" cy="84.25" r="4.31"/><circle class="e" cx="479.14" cy="143.64" r="4.31"/><circle class="e" cx="506.99" cy="173.47" r="4.31"/><circle class="e" cx="565.59" cy="197.84" r="4.31"/><circle class="e" cx="128.84" cy="159.89" r="4.31"/><circle class="e" cx="107.3" cy="201.21" r="4.31"/><circle class="e" cx="86.26" cy="270.62" r="4.31"/><circle class="e" cx="99.79" cy="318.79" r="4.31"/><circle class="e" cx="103.55" cy="178.72" r="4.31"/><circle class="e" cx="43.62" cy="223.14" r="4.31"/><circle class="e" cx="60.29" cy="287.81" r="4.31"/><circle class="e" cx="42.45" cy="367.2" r="4.31"/><circle class="e" cx="128.81" cy="196.49" r="4.31"/><circle class="e" cx="110.57" cy="247.99" r="4.31"/><circle class="e" cx="356.91" cy="82.88" r="4.31"/><circle class="e" cx="99.76" cy="355.39" r="4.31"/><circle class="e" cx="150.09" cy="187.47" r="4.31"/><circle class="e" cx="108.73" cy="218.83" r="4.31"/><circle class="e" cx="49.3" cy="255.93" r="4.31"/><circle class="e" cx="58.11" cy="320.25" r="4.31"/><circle class="e" cx="129.72" cy="225.78" r="4.31"/><circle class="e" cx="104.97" cy="271.4" r="4.31"/><circle class="e" cx="87.75" cy="322.54" r="4.31"/><circle class="e" cx="118.05" cy="381.22" r="4.31"/><circle class="e" cx="233.55" cy="92.54" r="4.31"/><circle class="e" cx="203.53" cy="85.28" r="4.31"/><circle class="e" cx="222.67" cy="79.23" r="4.31"/><circle class="e" cx="217.07" cy="96.62" r="4.31"/><circle class="e" cx="216.52" cy="69.82" r="4.31"/><circle class="e" cx="176.67" cy="148.96" r="4.31"/><circle class="e" cx="263.06" cy="78.57" r="4.31"/><circle class="e" cx="205.73" cy="127.02" r="4.31"/><circle class="e" cx="242.69" cy="116.88" r="4.31"/></g></svg>