<?xml version="1.0" encoding="UTF-8"?><svg id="a" xmlns="http://www.w3.org/2000/svg" viewBox="0 0 620 422.48"><defs><style>.b{fill:#fff;font-family:"National 2 Web", -apple-system, BlinkMacSystemFont, Helvetica, Arial, sans-serif;}.b,.c,.d,.e{font-size:19px;}.f{stroke:#fecc83;}.f,.g,.h{stroke-linecap:round;stroke-linejoin:round;stroke-width:2px;}.f,.g,.h,.i{fill:none;}.g{stroke:#d1506e;}.h{stroke:#ae7cb6;}.c{fill:#fecc83;}.c,.d,.e{font-weight:bold;font-family:"National 2 Web", -apple-system, BlinkMacSystemFont, Helvetica, Arial, sans-serif;}.d{fill:#ae7cb6;}.e{fill:#d1506e;}.j{opacity:.51;}.i{stroke:#ccc;stroke-miterlimit:10;stroke-width:.25px;}</style></defs><g class="j"><line class="i" x1="6.12" y1="307.19" x2="584.92" y2="307.19"/><line class="i" x1="6.12" y1="237.65" x2="584.92" y2="237.65"/><line class="i" x1="6.12" y1="166.8" x2="584.92" y2="166.8"/><line class="i" x1="6.12" y1="97.26" x2="584.92" y2="97.26"/><line class="i" x1="6.12" y1="26.41" x2="584.92" y2="26.41"/><text class="b" transform="translate(6.12 370.67)"><tspan x="0" y="0">0</tspan></text><text class="b" transform="translate(6.31 300.57)"><tspan x="0" y="0">25</tspan></text><text class="b" transform="translate(6.54 230.46)"><tspan x="0" y="0">50</tspan></text><text class="b" transform="translate(6.49 160.35)"><tspan x="0" y="0">75</tspan></text><text class="b" transform="translate(6.72 90.24)"><tspan x="0" y="0">100</tspan></text><text class="b" transform="translate(6.72 20.14)"><tspan x="0" y="0">125 minutes/day</tspan></text></g><line class="i" x1="110.92" y1="387.04" x2="110.92" y2="377.96"/><line class="i" x1="249.92" y1="387.04" x2="249.92" y2="377.96"/><line class="i" x1="389.92" y1="387.04" x2="389.92" y2="377.96"/><line class="i" x1="528.92" y1="387.04" x2="528.92" y2="377.96"/><line class="i" x1="6.42" y1="377.96" x2="584.92" y2="377.96"/><g class="j"><text class="b" transform="translate(89.5 403.07)"><tspan x="0" y="0">2005</tspan></text></g><g class="j"><text class="b" transform="translate(230.35 403.07)"><tspan x="0" y="0">2010</tspan></text></g><g class="j"><text class="b" transform="translate(370.17 403.07)"><tspan x="0" y="0">2015</tspan></text></g><g class="j"><text class="b" transform="translate(507.61 403.07)"><tspan x="0" y="0">2020</tspan></text></g><text class="d" transform="translate(441.04 179.64)"><tspan x="0" y="0">34 or younger</tspan></text><text class="e" transform="translate(441.04 324.89)"><tspan x="0" y="0">35-64</tspan></text><text class="c" transform="translate(441.04 269.67)"><tspan x="0" y="0">65+</tspan></text><polyline class="h" points="55.27 78.16 83.13 95.39 110.98 102.22 138.84 140.71 166.7 147.45 194.56 149.73 222.42 145.66 250.27 104.37 278.13 122.16 305.99 118.06 333.85 126.31 361.7 152.22 389.56 165.19 417.42 171.25 445.28 189.7 473.14 191.59 500.99 228.49 528.85 281.13 556.71 274.09 584.57 271.21"/><polyline class="g" points="55.27 284.92 83.13 276.06 110.98 289.23 138.84 289.72 166.7 285.46 194.56 284.67 222.42 283.89 250.27 279.98 278.13 278.57 305.99 286.09 333.85 278.6 361.7 284.66 389.56 280.29 417.42 288.9 445.28 300.91 473.14 303.67 500.99 311.85 528.85 342.43 556.71 332.86 584.57 330.19"/><polyline class="f" points="55.27 264.58 83.13 252.92 110.98 257.92 138.84 256.12 166.7 249.28 194.56 275.03 222.42 268.58 250.27 277.18 278.13 273.63 305.99 256.34 333.85 259.75 361.7 267.12 389.56 274.78 417.42 264.92 445.28 287.01 473.14 287.71 500.99 297.23 528.85 341.86 556.71 325.68 584.57 325.09"/></svg>