<?xml version="1.0" encoding="UTF-8"?><svg xmlns="http://www.w3.org/2000/svg" viewBox="0 0 400 395.7"><defs><style>.c{fill:#28212f;}.d{fill:#fff;font-family:"National 2 Web", -apple-system, BlinkMacSystemFont, Helvetica, Arial, sans-serif;}.d,.e,.f,.g{font-size:19px;}.h{stroke:#fecc83;}.h,.i,.j{stroke-linecap:round;stroke-linejoin:round;stroke-width:2px;}.h,.i,.j,.k{fill:none;}.i{stroke:#d1506e;}.j{stroke:#ae7cb6;}.e{fill:#fecc83;}.e,.f,.g{font-weight: bold; font-family:"National 2 Web", -apple-system, BlinkMacSystemFont, Helvetica, Arial, sans-serif, 'National 2';}.f{fill:#ae7cb6;}.g{fill:#d1506e;}.l{opacity:.51;}.k{stroke:#ccc;stroke-miterlimit:10;stroke-width:.25px;}</style></defs><g id="a"><rect class="c" x="-890.33" y="-3229.63" width="11086.49" height="5126.92"/></g><g id="b"><g><g class="l"><line class="k" x1="6.34" y1="246.14" x2="391.95" y2="246.14"/><line class="k" x1="6.34" y1="141.78" x2="391.95" y2="141.78"/><line class="k" x1="6.34" y1="36.26" x2="391.95" y2="36.26"/><text class="d" transform="translate(6.34 344.8)"><tspan x="0" y="0">200</tspan></text><text class="d" transform="translate(6.53 240.39)"><tspan x="0" y="0">300</tspan></text><text class="d" transform="translate(6.53 135.97)"><tspan x="0" y="0">400</tspan></text><text class="d" transform="translate(6.49 31.55)"><tspan x="0" y="0">500 minutes/day</tspan></text></g><line class="k" x1="76.52" y1="359.2" x2="76.52" y2="350.71"/><line class="k" x1="169.04" y1="359.2" x2="169.04" y2="350.71"/><line class="k" x1="262.22" y1="359.2" x2="262.22" y2="350.71"/><line class="k" x1="354.74" y1="359.2" x2="354.74" y2="350.71"/><line class="k" x1="6.97" y1="350.71" x2="392.02" y2="350.71"/><g class="l"><text class="d" transform="translate(55.08 374.19)"><tspan x="0" y="0">2005</tspan></text></g><g class="l"><text class="d" transform="translate(149.36 374.19)"><tspan x="0" y="0">2010</tspan></text></g><g class="l"><text class="d" transform="translate(242.6 374.19)"><tspan x="0" y="0">2015</tspan></text></g><g class="l"><text class="d" transform="translate(333.46 374.19)"><tspan x="0" y="0">2020</tspan></text></g><polyline class="j" points="39.42 325.19 57.96 324.65 76.5 338.57 95.05 341.58 113.59 330.5 132.13 334.23 150.67 331.41 169.22 332.1 187.76 333.71 206.3 333.14 224.84 331.13 243.38 331.88 261.93 321.81 280.47 313.35 299.01 324.18 317.55 306.83 336.09 299.2 354.64 256.84 373.18 251.75 391.72 274.02"/><polyline class="i" points="39.42 266.28 57.96 260.41 76.5 265.74 95.05 264.89 113.59 265.56 132.13 253.92 150.67 251.34 169.22 255.43 187.76 254.46 206.3 262.36 224.84 264.04 243.38 261.57 261.93 258.51 280.47 260.03 299.01 261.07 317.55 259.72 336.09 255.59 354.64 243.8 373.18 257.78 391.72 267.78"/><polyline class="h" points="39.42 99.18 57.96 94.25 76.5 102.29 95.05 103.47 113.59 103.27 132.13 100.31 150.67 86.38 169.22 95.38 187.76 102.82 206.3 95.69 224.84 99.74 243.38 96.32 261.93 93.92 280.47 97.83 299.01 98.58 317.55 103.91 336.09 85.54 354.64 64.36 373.18 77.82 391.72 82.21"/><text class="f" transform="translate(271.74 341.58)"><tspan x="0" y="0">34 or younger</tspan></text><text class="g" transform="translate(340.27 237.25)"><tspan x="0" y="0">35-64</tspan></text><text class="e" transform="translate(357.01 103.91)"><tspan x="0" y="0">65+</tspan></text></g></g></svg>