<?xml version="1.0" encoding="UTF-8"?><svg xmlns="http://www.w3.org/2000/svg" viewBox="0 0 400 477.77"><defs><style>.c{fill:#ccc;}.d{fill:#28212f;}.e{font-size:19.41px;}.e,.f{fill:#fff;font-family:"National 2 Web", -apple-system, BlinkMacSystemFont, Helvetica, Arial, sans-serif;}.g{stroke:#fecc83;}.g,.h,.i{stroke-width:2px;}.g,.h,.i,.j{stroke-linecap:round;stroke-linejoin:round;}.g,.h,.i,.j,.k,.l,.m{fill:none;}.n{fill:#ae7cb6;}.n,.o,.p{font-weight: bold; font-family:"National 2 Web", -apple-system, BlinkMacSystemFont, Helvetica, Arial, sans-serif, 'National 2';font-size:18.07px;}.o{fill:#d1506e;}.p{fill:#fecc83;}.f{font-size:14px;}.h{stroke:#d14f6e;}.i{stroke:#ae7cb6;}.j{stroke:#28212f;stroke-width:4px;}.k,.l,.m{stroke:#ccc;stroke-miterlimit:10;}.q{opacity:.51;}.l{stroke-width:.25px;}.m{stroke-width:.5px;}</style></defs><g id="a"><rect class="d" x="-882.53" y="-4486.41" width="11086.49" height="5126.92"/></g><g id="b"><g><polyline class="j" points="42.85 105.65 77.66 141.22 112.47 108.76 147.28 119.78 182.09 135.13 216.9 118.5 251.71 151.59 286.52 169.19 321.33 169.68 356.14 179.34 390.95 168.03"/><polyline class="j" points="42.85 202.07 77.66 207.5 112.47 243.1 147.28 251.32 182.09 249.49 216.9 236.11 251.71 229.35 286.52 205.91 321.33 184.2 356.14 149.06 390.95 165.07"/></g><g><polyline class="i" points="42.85 105.65 77.66 141.22 112.47 108.76 147.28 119.78 182.09 135.13 216.9 118.5 251.71 151.59 286.52 169.19 321.33 169.68 356.14 179.34 390.95 168.03"/><polyline class="h" points="42.85 202.07 77.66 207.5 112.47 243.1 147.28 251.32 182.09 249.49 216.9 236.11 251.71 229.35 286.52 205.91 321.33 184.2 356.14 149.06 390.95 165.07"/></g><polyline class="g" points="42.85 369.02 77.66 362.95 112.47 359.02 147.28 361.28 182.09 359.7 216.9 371.06 251.71 363.94 286.52 369.22 321.33 367.8 356.14 362.94 390.95 366.42"/><text class="n" transform="translate(292.74 149.06)"><tspan x="0" y="0">Alone</tspan></text><text class="o" transform="translate(292.74 226.3)"><tspan x="0" y="0">With family</tspan></text><text class="p" transform="translate(292.74 349.18)"><tspan x="0" y="0">With friends</tspan></text><g class="q"><line class="l" x1="7.82" y1="315.18" x2="390.89" y2="315.18"/><line class="l" x1="7.82" y1="246.18" x2="390.89" y2="246.18"/><line class="l" x1="7.82" y1="177.18" x2="390.89" y2="177.18"/><line class="l" x1="7.82" y1="109.18" x2="390.89" y2="109.18"/><line class="l" x1="7.82" y1="40.18" x2="390.89" y2="40.18"/><text class="e" transform="translate(9.12 376.88)"><tspan x="0" y="0">0</tspan></text><text class="e" transform="translate(8.59 308.28)"><tspan x="0" y="0">100</tspan></text><text class="e" transform="translate(9.23 239.68)"><tspan x="0" y="0">200</tspan></text><text class="e" transform="translate(9.12 171.08)"><tspan x="0" y="0">300</tspan></text><text class="e" transform="translate(9.36 102.48)"><tspan x="0" y="0">400</tspan></text><text class="e" transform="translate(9.12 33.88)"><tspan x="0" y="0">500 minutes/day</tspan></text><line class="m" x1="7.82" y1="383.28" x2="390.89" y2="383.28"/><line class="m" x1="77.71" y1="392.98" x2="77.71" y2="383.28"/><line class="m" x1="112.51" y1="392.98" x2="112.51" y2="383.28"/><line class="m" x1="147.31" y1="392.98" x2="147.31" y2="383.28"/><line class="m" x1="182.1" y1="392.98" x2="182.1" y2="383.28"/><line class="m" x1="216.9" y1="392.98" x2="216.9" y2="383.28"/><line class="m" x1="251.7" y1="392.98" x2="251.7" y2="383.28"/><line class="m" x1="286.49" y1="392.98" x2="286.49" y2="383.28"/><line class="m" x1="321.29" y1="392.98" x2="321.29" y2="383.28"/><line class="m" x1="356.09" y1="392.98" x2="356.09" y2="383.28"/><line class="m" x1="390.89" y1="392.98" x2="390.89" y2="383.28"/><text class="e" transform="translate(37.36 412.21)"><tspan x="0" y="0">0</tspan></text><text class="e" transform="translate(74.32 412.21)"><tspan x="0" y="0">1</tspan></text><text class="e" transform="translate(107.78 412.21)"><tspan x="0" y="0">2</tspan></text><text class="e" transform="translate(142.45 412.21)"><tspan x="0" y="0">3</tspan></text><text class="e" transform="translate(176.83 412.21)"><tspan x="0" y="0">4</tspan></text><text class="e" transform="translate(211.96 412.21)"><tspan x="0" y="0">5</tspan></text><text class="e" transform="translate(246.49 412.21)"><tspan x="0" y="0">6</tspan></text><text class="e" transform="translate(281.8 412.21)"><tspan x="0" y="0">7</tspan></text><text class="e" transform="translate(316.12 412.21)"><tspan x="0" y="0">8</tspan></text><text class="e" transform="translate(350.93 412.21)"><tspan x="0" y="0">9</tspan></text><text class="e" transform="translate(379.45 412.21)"><tspan x="0" y="0">10</tspan></text><line class="m" x1="43.18" y1="392.98" x2="43.18" y2="383.28"/></g><text class="e" transform="translate(157.83 443.89)"><tspan x="0" y="0">Cantril ladder</tspan></text><g class="q"><text class="f" transform="translate(313.59 441.55)"><tspan x="0" y="0">BETTER</tspan></text></g><g class="q"><text class="f" transform="translate(57.77 441.55)"><tspan x="0" y="0">WORSE</tspan></text></g><g class="q"><g><line class="k" x1="52.49" y1="436.9" x2="37.47" y2="436.9"/><polygon class="c" points="38.2 434.4 33.88 436.9 38.2 439.39 38.2 434.4"/></g></g><g class="q"><g><line class="k" x1="372.34" y1="436.9" x2="387.36" y2="436.9"/><polygon class="c" points="386.64 439.39 390.95 436.9 386.64 434.4 386.64 439.39"/></g></g></g></svg>