<?xml version="1.0" encoding="UTF-8"?><svg id="a" xmlns="http://www.w3.org/2000/svg" viewBox="0 0 400 503.96"><defs><style>.b,.c{fill:#fecc83;}.d{fill:#7d5588;}.e{fill:#ccc;}.f{fill:#d1506e;}.g{font-size:19.41px;}.g,.h,.i{fill:#fff;font-family:"National 2 Web", -apple-system, BlinkMacSystemFont, Helvetica, Arial, sans-serif;}.j{fill:#edcde2;}.j,.c,.k{font-weight:bold;font-family:"National 2 Web", -apple-system, BlinkMacSystemFont, Helvetica, Arial, sans-serif;font-size:18.07px;}.k{fill:#f8bfd3;}.h{font-size:14px;}.l{stroke:#333;}.l,.m,.n,.o{fill:none;stroke-miterlimit:10;}.m,.n,.o{stroke:#ccc;}.p{opacity:.64;}.q{opacity:.51;}.r{opacity:.72;}.i{font-size:16px;}.n{stroke-width:.25px;}.o{stroke-width:.5px;}</style></defs><polygon class="d" points="39.85 223.91 74.85 249.82 109.85 226.18 144.85 234.21 179.85 245.38 214.85 233.28 249.85 257.37 284.85 270.19 319.85 270.55 354.85 277.58 389.85 269.35 389.85 426.1 354.85 426.1 319.85 426.1 284.85 426.1 249.85 426.1 214.85 426.1 179.85 426.1 144.85 426.1 109.85 426.1 74.85 426.1 39.85 426.1 39.85 223.91"/><polygon class="f" points="39.85 91.95 74.85 121.81 109.85 124.1 144.85 138.11 179.85 147.95 214.85 126.1 249.85 145.27 284.85 141.02 319.85 125.57 354.85 107.01 389.85 110.44 389.85 269.35 354.85 277.58 319.85 270.55 284.85 270.19 249.85 257.37 214.85 233.28 179.85 245.38 144.85 234.21 109.85 226.18 74.85 249.82 39.85 223.91 39.85 91.95"/><polygon class="b" points="39.85 81.57 74.85 107.01 109.85 106.44 144.85 122.1 179.85 130.79 214.85 117.21 249.85 131.19 284.85 130.79 319.85 114.3 354.85 92.2 389.85 98.17 389.85 110.44 354.85 107.01 319.85 125.57 284.85 141.02 249.85 145.27 214.85 126.1 179.85 147.95 144.85 138.11 109.85 124.1 74.85 121.81 39.85 91.95 39.85 81.57"/><line class="l" x1="39.65" y1="426.4" x2="390.05" y2="426.4"/><g class="q"><text class="g" transform="translate(.84 419.51)"><tspan x="0" y="0">0</tspan></text><text class="g" transform="translate(.97 319.59)"><tspan x="0" y="0">200</tspan></text><text class="g" transform="translate(1.16 219.68)"><tspan x="0" y="0">400</tspan></text><text class="g" transform="translate(.84 119.76)"><tspan x="0" y="0">600</tspan></text><text class="g" transform="translate(.87 19.84)"><tspan x="0" y="0">800 minutes/day</tspan></text><g><line class="n" x1="1.16" y1="326.4" x2="390.05" y2="326.4"/><line class="n" x1="1.16" y1="226.4" x2="390.05" y2="226.4"/><line class="n" x1="1.16" y1="126.4" x2="390.05" y2="126.4"/><line class="o" x1="1.16" y1="426.7" x2="390.05" y2="426.7"/><line class="n" x1="1.16" y1="26.31" x2="390.05" y2="26.31"/></g><g><line class="o" x1="74.83" y1="436.4" x2="74.83" y2="426.7"/><line class="o" x1="109.83" y1="436.4" x2="109.83" y2="426.7"/><line class="o" x1="144.83" y1="436.4" x2="144.83" y2="426.7"/><line class="o" x1="179.83" y1="436.4" x2="179.83" y2="426.7"/><line class="o" x1="214.83" y1="436.4" x2="214.83" y2="426.7"/><line class="o" x1="249.82" y1="436.4" x2="249.82" y2="426.7"/><line class="o" x1="284.82" y1="436.4" x2="284.82" y2="426.7"/><line class="o" x1="319.82" y1="436.4" x2="319.82" y2="426.7"/><line class="o" x1="354.82" y1="436.4" x2="354.82" y2="426.7"/><line class="o" x1="389.82" y1="436.4" x2="389.82" y2="426.7"/><text class="g" transform="translate(34.3 455.63)"><tspan x="0" y="0">0</tspan></text><text class="g" transform="translate(71.45 455.63)"><tspan x="0" y="0">1</tspan></text><text class="g" transform="translate(105.11 455.63)"><tspan x="0" y="0">2</tspan></text><text class="g" transform="translate(139.99 455.63)"><tspan x="0" y="0">3</tspan></text><text class="g" transform="translate(174.57 455.63)"><tspan x="0" y="0">4</tspan></text><text class="g" transform="translate(209.9 455.63)"><tspan x="0" y="0">5</tspan></text><text class="g" transform="translate(244.64 455.63)"><tspan x="0" y="0">6</tspan></text><text class="g" transform="translate(280.15 455.63)"><tspan x="0" y="0">7</tspan></text><text class="g" transform="translate(314.67 455.63)"><tspan x="0" y="0">8</tspan></text><text class="g" transform="translate(349.68 455.63)"><tspan x="0" y="0">9</tspan></text><text class="g" transform="translate(378.4 455.63)"><tspan x="0" y="0">10</tspan></text><line class="o" x1="40.1" y1="436.4" x2="40.1" y2="426.7"/></g></g><g class="p"><text class="j" transform="translate(336.85 319.59)"><tspan x="0" y="0">Alone</tspan></text></g><g class="p"><text class="k" transform="translate(288.4 184.76)"><tspan x="0" y="0">With family</tspan></text></g><g class="r"><text class="c" transform="translate(282.74 83.9)"><tspan x="0" y="0">With friends</tspan></text></g><g><text class="g" transform="translate(154.92 488.35)"><tspan x="0" y="0">Cantril ladder</tspan></text><g class="q"><text class="h" transform="translate(321.86 486.01)"><tspan x="0" y="0">BETTER</tspan></text></g><g class="q"><text class="h" transform="translate(56.51 486.01)"><tspan x="0" y="0">WORSE</tspan></text></g><g class="q"><g><line class="m" x1="61.72" y1="481.35" x2="46.94" y2="481.35"/><polygon class="e" points="47.67 478.86 43.35 481.35 47.67 483.85 47.67 478.86"/></g></g><g class="q"><g><line class="m" x1="367.23" y1="481.35" x2="382.01" y2="481.35"/><polygon class="e" points="381.28 483.85 385.59 481.35 381.28 478.86 381.28 483.85"/></g></g></g><text class="i" transform="translate(52.53 182.72)"><tspan x="0" y="0">People lower on the ladder </tspan><tspan x="0" y="19.2">spend less time with family...</tspan></text><text class="i" transform="translate(52.53 292.73)"><tspan x="0" y="0">... and more time alone.</tspan></text></svg>