<?xml version="1.0" encoding="UTF-8"?><svg id="a" xmlns="http://www.w3.org/2000/svg" viewBox="0 0 400 459.41"><defs><style>.b{fill:#989798;}.b,.c{font-family:"National 2 Web", -apple-system, BlinkMacSystemFont, Helvetica, Arial, sans-serif;}.c{fill:#fff;}.c,.d{font-size:18px;}.e{stroke:#232034;stroke-width:4px;}.e,.f,.g,.h{stroke-linecap:round;stroke-linejoin:round;}.e,.f,.g,.h,.i,.j{fill:none;}.k{fill:#ae7cb6;font-size:18.07px;}.k,.l,.m{font-weight:bold;font-family:"National 2 Web", -apple-system, BlinkMacSystemFont, Helvetica, Arial, sans-serif;}.f{stroke:#d3d3d3;}.f,.g,.h{stroke-width:2px;}.g{stroke:#c99958;}.h{stroke:#ae7cb6;}.l{fill:#c99957;}.m{fill:#e9e8e7;}.i,.j{stroke:#ccc;stroke-miterlimit:10;}.n{opacity:.51;}.o{opacity:.5;}.j{stroke-width:.25px;}</style></defs><g><line class="j" x1="5.41" y1="317.64" x2="381.05" y2="317.64"/><line class="j" x1="5.41" y1="221.64" x2="381.05" y2="221.64"/><line class="j" x1="5.41" y1="125.64" x2="381.05" y2="125.64"/><line class="j" x1="5.41" y1="29.65" x2="381.05" y2="29.65"/><g class="o"><line class="i" x1="5.41" y1="413.64" x2="381.05" y2="413.64"/><line class="i" x1="381.05" y1="423.82" x2="381.05" y2="413.64"/><line class="i" x1="53.35" y1="423.82" x2="53.35" y2="413.64"/><line class="i" x1="107.97" y1="423.82" x2="107.97" y2="413.64"/><line class="i" x1="162.58" y1="423.82" x2="162.58" y2="413.64"/><line class="i" x1="271.82" y1="423.82" x2="271.82" y2="413.64"/><line class="i" x1="217.2" y1="423.82" x2="217.2" y2="413.64"/><line class="i" x1="326.44" y1="423.82" x2="326.44" y2="413.64"/></g></g><g class="n"><text class="c" transform="translate(6.12 211.73)"><tspan x="0" y="0">40%</tspan></text><text class="c" transform="translate(6.06 115.87)"><tspan x="0" y="0">60%</tspan></text><g><text class="c" transform="translate(6.12 403.44)"><tspan x="0" y="0">0%</tspan></text><text class="c" transform="translate(6.28 307.58)"><tspan x="0" y="0">20%</tspan></text><text class="c" transform="translate(5.34 20.02)"><tspan x="0" y="0">80% with others</tspan></text><text class="c" transform="translate(32.96 442.08)"><tspan x="0" y="0">12am</tspan></text><text class="c" transform="translate(90.45 442.08)"><tspan x="0" y="0">4am</tspan></text><text class="c" transform="translate(145.12 442.08)"><tspan x="0" y="0">8am</tspan></text><text class="c" transform="translate(196.81 442.08)"><tspan x="0" y="0">12pm</tspan></text><text class="c" transform="translate(253.77 442.08)"><tspan x="0" y="0">4pm</tspan></text><text class="c" transform="translate(308.43 442.08)"><tspan x="0" y="0">8pm</tspan></text><text class="c" transform="translate(358.66 442.08)"><tspan x="0" y="0">12am</tspan></text></g></g><text class="k" transform="translate(239.21 190.9)"><tspan x="0" y="0">Lowest</tspan><tspan x="0" y="21.68">on ladder</tspan></text><g><polyline class="e" points="53.42 344.93 55.71 320.7 58 369.58 60.29 367.43 62.58 354.55 64.87 359.61 67.16 365.45 69.45 363.15 71.74 360.58 74.03 357.01 76.32 353.78 78.62 354.89 80.91 358.07 83.2 362.25 85.49 367.24 87.78 370.9 90.07 374.4 92.36 374.2 94.65 373.52 96.94 373.28 99.23 374.8 101.52 376.1 103.81 377.54 106.1 378.91 108.39 383.95 110.68 388.11 112.98 392.49 115.27 396.64 117.56 401.11 119.85 401.15 122.14 400.97 124.43 400.24 126.72 399.39 129.01 397.09 131.3 394.76 133.59 392.7 135.88 388.19 138.17 383.63 140.46 380.2 142.75 374.47 145.04 368.32 147.34 364.66 149.63 352.49 151.92 339.98 154.21 329.86 156.5 317.11 158.79 303.86 161.08 298.2 163.37 282.74 165.66 266.1 167.95 252.44 170.24 236.89 172.53 222 174.82 216.38 177.11 203.7 179.41 191.69 181.7 182.35 183.99 171.73 186.28 162.08 188.57 159.34 190.86 152.88 193.15 146.23 195.44 140.75 197.73 134.28 200.02 128.2 202.31 124.01 204.6 117.92 206.89 112.23 209.18 107.67 211.47 103.19 213.77 99.63 216.06 98.2 218.35 95.89 220.64 92.95 222.93 90.49 225.22 88.35 227.51 86.42 229.8 85.15 232.09 83.99 234.38 82.92 236.67 81.78 238.96 81.13 241.25 80.29 243.54 80.3 245.83 79.8 248.13 79.41 250.42 78.06 252.71 77.13 255 75.64 257.29 74.65 259.58 74.32 261.87 74.62 264.16 75.04 266.45 75.54 268.74 76.9 271.03 77.7 273.32 77.3 275.61 76.89 277.9 76.76 280.2 76.95 282.49 76.15 284.78 76.1 287.07 74.96 289.36 73.06 291.65 69.3 293.94 65.54 296.23 61.57 298.52 58.41 300.81 54.83 303.1 52.6 305.39 51.58 307.68 49.82 309.97 48.75 312.26 48.16 314.56 48.21 316.85 47.84 319.14 48.95 321.43 50.2 323.72 52.44 326.01 54.6 328.3 59.32 330.59 64.17 332.88 69.35 335.17 76.44 337.46 83.25 339.75 89.14 342.04 100.1 344.33 111.47 346.62 122.12 348.92 136.27 351.21 149.55 353.5 159.18 355.79 177.43 358.08 194.44 360.37 208.79 362.66 226.51 364.95 243.27 367.24 251.68 369.53 266.63 371.82 282.48 374.11 295.17 376.4 310.63 378.69 325.64 380.98 334.88"/><polyline class="e" points="53.42 330.51 55.71 317.99 58 349.1 60.29 340.39 62.58 334.51 64.87 336.64 67.16 344.14 69.45 347.83 71.74 354.15 74.03 363.44 76.32 373.92 78.62 381.16 80.91 385.81 83.2 390.08 85.49 392.92 87.78 392.91 90.07 393.29 92.36 394.31 94.65 394.41 96.94 393.3 99.23 392.51 101.52 391.06 103.81 389.54 106.1 384.67 108.39 386.9 110.68 389.13 112.98 392.29 115.27 394.97 117.56 401.53 119.85 401.84 122.14 401.37 124.43 400.62 126.72 399.31 129.01 397.08 131.3 394.52 133.59 392.29 135.88 385.96 138.17 379.69 140.46 372.72 142.75 361.64 145.04 351.04 147.34 343.89 149.63 329.21 151.92 313.29 154.21 302.18 156.5 288.5 158.79 274.95 161.08 267.48 163.37 254.15 165.66 240.22 167.95 228.57 170.24 213.61 172.53 200.37 174.82 195.34 177.11 184.59 179.41 171.8 181.7 163.06 183.99 150.28 186.28 139.48 188.57 135.17 190.86 129.56 193.15 122.93 195.44 120.9 197.73 116.64 200.02 109.55 202.31 104.59 204.6 98.06 206.89 90.41 209.18 83.21 211.47 75.8 213.77 69.41 216.06 65.87 218.35 64.43 220.64 62.95 222.93 64.02 225.22 66.35 227.51 66.25 229.8 64.82 232.09 62.79 234.38 61.27 236.67 60.15 238.96 61.52 241.25 62.78 243.54 64.55 245.83 66.91 248.13 68.35 250.42 68.68 252.71 68.36 255 68.56 257.29 67.1 259.58 65.79 261.87 64.71 264.16 64.16 266.45 63.69 268.74 63.44 271.03 61.7 273.32 61.03 275.61 61.29 277.9 60.52 280.2 60.61 282.49 61.13 284.78 60.64 287.07 58.48 289.36 56.69 291.65 55.37 293.94 54.05 296.23 53.13 298.52 52.73 300.81 51.92 303.1 50.31 305.39 50.21 307.68 50.14 309.97 50.22 312.26 52.47 314.56 53.93 316.85 54.04 319.14 54.49 321.43 55.01 323.72 54.3 326.01 55.5 328.3 59.79 330.59 64.54 332.88 69.91 335.17 76.84 337.46 82.39 339.75 86.51 342.04 97.31 344.33 108.83 346.62 119.27 348.92 132.73 351.21 146.74 353.5 154.79 355.79 170.21 358.08 187.13 360.37 202.24 362.66 222.09 364.95 241.25 367.24 254.47 369.53 274.41 371.82 293.82 374.11 307.52 376.4 323.39 378.69 337.09 380.98 343"/><polyline class="g" points="53.42 344.93 55.71 320.7 58 369.58 60.29 367.43 62.58 354.55 64.87 359.61 67.16 365.45 69.45 363.15 71.74 360.58 74.03 357.01 76.32 353.78 78.62 354.89 80.91 358.07 83.2 362.25 85.49 367.24 87.78 370.9 90.07 374.4 92.36 374.2 94.65 373.52 96.94 373.28 99.23 374.8 101.52 376.1 103.81 377.54 106.1 378.91 108.39 383.95 110.68 388.11 112.98 392.49 115.27 396.64 117.56 401.11 119.85 401.15 122.14 400.97 124.43 400.24 126.72 399.39 129.01 397.09 131.3 394.76 133.59 392.7 135.88 388.19 138.17 383.63 140.46 380.2 142.75 374.47 145.04 368.32 147.34 364.66 149.63 352.49 151.92 339.98 154.21 329.86 156.5 317.11 158.79 303.86 161.08 298.2 163.37 282.74 165.66 266.1 167.95 252.44 170.24 236.89 172.53 222 174.82 216.38 177.11 203.7 179.41 191.69 181.7 182.35 183.99 171.73 186.28 162.08 188.57 159.34 190.86 152.88 193.15 146.23 195.44 140.75 197.73 134.28 200.02 128.2 202.31 124.01 204.6 117.92 206.89 112.23 209.18 107.67 211.47 103.19 213.77 99.63 216.06 98.2 218.35 95.89 220.64 92.95 222.93 90.49 225.22 88.35 227.51 86.42 229.8 85.15 232.09 83.99 234.38 82.92 236.67 81.78 238.96 81.13 241.25 80.29 243.54 80.3 245.83 79.8 248.13 79.41 250.42 78.06 252.71 77.13 255 75.64 257.29 74.65 259.58 74.32 261.87 74.62 264.16 75.04 266.45 75.54 268.74 76.9 271.03 77.7 273.32 77.3 275.61 76.89 277.9 76.76 280.2 76.95 282.49 76.15 284.78 76.1 287.07 74.96 289.36 73.06 291.65 69.3 293.94 65.54 296.23 61.57 298.52 58.41 300.81 54.83 303.1 52.6 305.39 51.58 307.68 49.82 309.97 48.75 312.26 48.16 314.56 48.21 316.85 47.84 319.14 48.95 321.43 50.2 323.72 52.44 326.01 54.6 328.3 59.32 330.59 64.17 332.88 69.35 335.17 76.44 337.46 83.25 339.75 89.14 342.04 100.1 344.33 111.47 346.62 122.12 348.92 136.27 351.21 149.55 353.5 159.18 355.79 177.43 358.08 194.44 360.37 208.79 362.66 226.51 364.95 243.27 367.24 251.68 369.53 266.63 371.82 282.48 374.11 295.17 376.4 310.63 378.69 325.64 380.98 334.88"/><polyline class="f" points="53.42 330.51 55.71 317.99 58 349.1 60.29 340.39 62.58 334.51 64.87 336.64 67.16 344.14 69.45 347.83 71.74 354.15 74.03 363.44 76.32 373.92 78.62 381.16 80.91 385.81 83.2 390.08 85.49 392.92 87.78 392.91 90.07 393.29 92.36 394.31 94.65 394.41 96.94 393.3 99.23 392.51 101.52 391.06 103.81 389.54 106.1 384.67 108.39 386.9 110.68 389.13 112.98 392.29 115.27 394.97 117.56 401.53 119.85 401.84 122.14 401.37 124.43 400.62 126.72 399.31 129.01 397.08 131.3 394.52 133.59 392.29 135.88 385.96 138.17 379.69 140.46 372.72 142.75 361.64 145.04 351.04 147.34 343.89 149.63 329.21 151.92 313.29 154.21 302.18 156.5 288.5 158.79 274.95 161.08 267.48 163.37 254.15 165.66 240.22 167.95 228.57 170.24 213.61 172.53 200.37 174.82 195.34 177.11 184.59 179.41 171.8 181.7 163.06 183.99 150.28 186.28 139.48 188.57 135.17 190.86 129.56 193.15 122.93 195.44 120.9 197.73 116.64 200.02 109.55 202.31 104.59 204.6 98.06 206.89 90.41 209.18 83.21 211.47 75.8 213.77 69.41 216.06 65.87 218.35 64.43 220.64 62.95 222.93 64.02 225.22 66.35 227.51 66.25 229.8 64.82 232.09 62.79 234.38 61.27 236.67 60.15 238.96 61.52 241.25 62.78 243.54 64.55 245.83 66.91 248.13 68.35 250.42 68.68 252.71 68.36 255 68.56 257.29 67.1 259.58 65.79 261.87 64.71 264.16 64.16 266.45 63.69 268.74 63.44 271.03 61.7 273.32 61.03 275.61 61.29 277.9 60.52 280.2 60.61 282.49 61.13 284.78 60.64 287.07 58.48 289.36 56.69 291.65 55.37 293.94 54.05 296.23 53.13 298.52 52.73 300.81 51.92 303.1 50.31 305.39 50.21 307.68 50.14 309.97 50.22 312.26 52.47 314.56 53.93 316.85 54.04 319.14 54.49 321.43 55.01 323.72 54.3 326.01 55.5 328.3 59.79 330.59 64.54 332.88 69.91 335.17 76.84 337.46 82.39 339.75 86.51 342.04 97.31 344.33 108.83 346.62 119.27 348.92 132.73 351.21 146.74 353.5 154.79 355.79 170.21 358.08 187.13 360.37 202.24 362.66 222.09 364.95 241.25 367.24 254.47 369.53 274.41 371.82 293.82 374.11 307.52 376.4 323.39 378.69 337.09 380.98 343"/><polyline class="e" points="53.42 294.73 55.71 310.36 58 337.9 60.29 367.24 62.58 331.56 64.87 345.05 67.16 356.92 69.45 364.21 71.74 365.78 74.03 371.64 76.32 375.51 78.62 374.61 80.91 380.59 83.2 386.47 85.49 391.98 87.78 396.15 90.07 404.06 92.36 405.84 94.65 406.38 96.94 406.93 99.23 407.89 101.52 407.96 103.81 404.74 106.1 404.74 108.39 405.71 110.68 406.68 112.98 407.72 115.27 410.37 117.56 411.34 119.85 411.34 122.14 410.58 124.43 410.16 126.72 410.09 129.01 409.59 131.3 409.09 133.59 405.64 135.88 400.6 138.17 394.9 140.46 389.06 142.75 380.87 145.04 375.95 147.34 371.22 149.63 366.46 151.92 360.26 154.21 356.93 156.5 352.83 158.79 341.76 161.08 332.23 163.37 317.52 165.66 302.44 167.95 293.11 170.24 289.47 172.53 281.94 174.82 280.68 177.11 273.35 179.41 260.71 181.7 249.73 183.99 238.58 186.28 228.07 188.57 223.81 190.86 218.38 193.15 212.22 195.44 206.53 197.73 199.72 200.02 191.84 202.31 185.4 204.6 182.42 206.89 181.4 209.18 180.59 211.47 179.3 213.77 178.76 216.06 174.25 218.35 167.92 220.64 166.09 222.93 166.23 225.22 166.79 227.51 165.49 229.8 169.05 232.09 169.3 234.38 170.18 236.67 169.02 238.96 171.28 241.25 170.78 243.54 169.41 245.83 165.34 248.13 162.93 250.42 158.8 252.71 155.26 255 152.47 257.29 150.95 259.58 149.75 261.87 150.78 264.16 151.22 266.45 155.96 268.74 159.32 271.03 161.06 273.32 163.2 275.61 164.05 277.9 157.8 280.2 154.13 282.49 150.23 284.78 147.05 287.07 145.46 289.36 145.46 291.65 141.18 293.94 137.16 296.23 129.47 298.52 124.64 300.81 118.85 303.1 116.54 305.39 115.4 307.68 118.73 309.97 119.38 312.26 122.48 314.56 125.06 316.85 128.74 319.14 133.13 321.43 134.57 323.72 135.33 326.01 137.71 328.3 142.47 330.59 145.59 332.88 150.15 335.17 158.44 337.46 165.43 339.75 170.49 342.04 176.64 344.33 184.49 346.62 191.86 348.92 203.11 351.21 212.72 353.5 220.57 355.79 234.31 358.08 244.89 360.37 249.22 362.66 257.12 364.95 264.25 367.24 263.47 369.53 265.18 371.82 269.27 374.11 271.77 376.4 276.28 378.69 282.49 380.98 286.25"/><polyline class="h" points="53.42 294.73 55.71 310.36 58 337.9 60.29 367.24 62.58 331.56 64.87 345.05 67.16 356.92 69.45 364.21 71.74 365.78 74.03 371.64 76.32 375.51 78.62 374.61 80.91 380.59 83.2 386.47 85.49 391.98 87.78 396.15 90.07 404.06 92.36 405.84 94.65 406.38 96.94 406.93 99.23 407.89 101.52 407.96 103.81 404.74 106.1 404.74 108.39 405.71 110.68 406.68 112.98 407.72 115.27 410.37 117.56 411.34 119.85 411.34 122.14 410.58 124.43 410.16 126.72 410.09 129.01 409.59 131.3 409.09 133.59 405.64 135.88 400.6 138.17 394.9 140.46 389.06 142.75 380.87 145.04 375.95 147.34 371.22 149.63 366.46 151.92 360.26 154.21 356.93 156.5 352.83 158.79 341.76 161.08 332.23 163.37 317.52 165.66 302.44 167.95 293.11 170.24 289.47 172.53 281.94 174.82 280.68 177.11 273.35 179.41 260.71 181.7 249.73 183.99 238.58 186.28 228.07 188.57 223.81 190.86 218.38 193.15 212.22 195.44 206.53 197.73 199.72 200.02 191.84 202.31 185.4 204.6 182.42 206.89 181.4 209.18 180.59 211.47 179.3 213.77 178.76 216.06 174.25 218.35 167.92 220.64 166.09 222.93 166.23 225.22 166.79 227.51 165.49 229.8 169.05 232.09 169.3 234.38 170.18 236.67 169.02 238.96 171.28 241.25 170.78 243.54 169.41 245.83 165.34 248.13 162.93 250.42 158.8 252.71 155.26 255 152.47 257.29 150.95 259.58 149.75 261.87 150.78 264.16 151.22 266.45 155.96 268.74 159.32 271.03 161.06 273.32 163.2 275.61 164.05 277.9 157.8 280.2 154.13 282.49 150.23 284.78 147.05 287.07 145.46 289.36 145.46 291.65 141.18 293.94 137.16 296.23 129.47 298.52 124.64 300.81 118.85 303.1 116.54 305.39 115.4 307.68 118.73 309.97 119.38 312.26 122.48 314.56 125.06 316.85 128.74 319.14 133.13 321.43 134.57 323.72 135.33 326.01 137.71 328.3 142.47 330.59 145.59 332.88 150.15 335.17 158.44 337.46 165.43 339.75 170.49 342.04 176.64 344.33 184.49 346.62 191.86 348.92 203.11 351.21 212.72 353.5 220.57 355.79 234.31 358.08 244.89 360.37 249.22 362.66 257.12 364.95 264.25 367.24 263.47 369.53 265.18 371.82 269.27 374.11 271.77 376.4 276.28 378.69 282.49 380.98 286.25"/></g><text class="d" transform="translate(139.32 53.07)"><tspan class="m" x="0" y="0">Top</tspan><tspan class="b" x="32.71" y="0" xml:space="preserve"> and </tspan><tspan class="l" x="71.64" y="0">middle</tspan></text></svg>