<?xml version="1.0" encoding="UTF-8"?><svg id="a" xmlns="http://www.w3.org/2000/svg" viewBox="0 0 620 397.9"><defs><style>.b{fill:#fff;font-family:"National 2 Web", -apple-system, BlinkMacSystemFont, Helvetica, Arial, sans-serif;}.b,.c,.d,.e{font-size:19px;}.f{stroke:#fecc84;}.f,.g,.h{stroke-linecap:round;stroke-linejoin:round;stroke-width:2px;}.f,.g,.h,.i{fill:none;}.g{stroke:#d1506e;}.h{stroke:#ae7cb6;}.c{fill:#fecc83;}.c,.d,.e{font-weight:bold;font-family:"National 2 Web", -apple-system, BlinkMacSystemFont, Helvetica, Arial, sans-serif;}.d{fill:#ae7cb6;}.e{fill:#d1506e;}.j{opacity:.51;}.i{stroke:#ccc;stroke-miterlimit:10;stroke-width:.25px;}</style></defs><g class="j"><line class="i" x1="6.92" y1="291.63" x2="585.42" y2="291.63"/><line class="i" x1="6.92" y1="225.87" x2="585.42" y2="225.87"/><line class="i" x1="6.92" y1="158.88" x2="585.42" y2="158.88"/><line class="i" x1="6.92" y1="93.12" x2="585.42" y2="93.12"/><line class="i" x1="6.92" y1="26.12" x2="585.42" y2="26.12"/></g><polyline class="h" points="55.77 173.81 83.63 168.43 111.48 137.61 139.34 154.08 167.2 174 195.06 161.99 222.91 141.75 250.77 151.68 278.63 175.76 306.49 165.32 334.35 157.49 362.2 164.98 390.06 204.76 417.92 229.22 445.78 179.56 473.64 218.9 501.49 246.2 529.35 234.2 557.21 269.93 585.07 281.37"/><polyline class="g" points="55.77 71.04 83.63 94.02 111.48 85.11 139.34 104.58 167.2 75.31 195.06 98.91 222.91 82 250.77 93.33 278.63 100.7 306.49 95.42 334.35 90.05 362.2 124.2 390.06 110.56 417.92 115.86 445.78 132.96 473.64 130.38 501.49 148.54 529.35 124.61 557.21 129.17 585.07 123.37"/><polyline class="f" points="55.77 35.31 83.63 48.19 111.48 58.56 139.34 42.02 167.2 71.44 195.06 53.77 222.91 82.7 250.77 62.87 278.63 87.05 306.49 74.4 334.35 67.8 362.2 88.82 390.06 83.68 417.92 89.7 445.78 38.77 473.64 64.82 501.49 87.05 529.35 116.44 557.21 94.25 585.07 100.77"/><g class="j"><text class="b" transform="translate(9.98 353.49)"><tspan x="0" y="0">200</tspan></text></g><g class="j"><text class="b" transform="translate(9.98 287.2)"><tspan x="0" y="0">225</tspan></text></g><g class="j"><text class="b" transform="translate(9.98 220.9)"><tspan x="0" y="0">250</tspan></text></g><g class="j"><text class="b" transform="translate(9.98 154.61)"><tspan x="0" y="0">275</tspan></text></g><g class="j"><text class="b" transform="translate(9.82 88.32)"><tspan x="0" y="0">300</tspan></text></g><g class="j"><text class="b" transform="translate(9.82 22.02)"><tspan x="0" y="0">325 minutes/day</tspan></text></g><g class="j"><text class="b" transform="translate(89.99 383.85)"><tspan x="0" y="0">2005</tspan></text></g><g class="j"><text class="b" transform="translate(230.85 383.85)"><tspan x="0" y="0">2010</tspan></text></g><g class="j"><text class="b" transform="translate(370.67 383.85)"><tspan x="0" y="0">2015</tspan></text></g><g class="j"><text class="b" transform="translate(508.11 383.85)"><tspan x="0" y="0">2020</tspan></text></g><text class="d" transform="translate(475.73 209.49)"><tspan x="0" y="0">34 or younger</tspan></text><text class="e" transform="translate(438.52 121.42)"><tspan x="0" y="0">35-64</tspan></text><text class="c" transform="translate(482.36 63.06)"><tspan x="0" y="0">65+</tspan></text><line class="i" x1="111.42" y1="367.75" x2="111.42" y2="358.63"/><line class="i" x1="250.42" y1="367.75" x2="250.42" y2="358.63"/><line class="i" x1="390.42" y1="367.75" x2="390.42" y2="358.63"/><line class="i" x1="529.42" y1="367.75" x2="529.42" y2="358.63"/><line class="i" x1="6.92" y1="358.63" x2="585.42" y2="358.63"/></svg>