<?xml version="1.0" encoding="UTF-8"?><svg xmlns="http://www.w3.org/2000/svg" viewBox="0 0 620 439.33"><defs><style>.c{fill:#28212f;}.d{fill:#fff;font-family:"National 2 Web", -apple-system, BlinkMacSystemFont, Helvetica, Arial, sans-serif;}.d,.e,.f,.g{font-size:19px;}.h{stroke:#fecc83;}.h,.i,.j{stroke-linecap:round;stroke-linejoin:round;stroke-width:2px;}.h,.i,.j,.k{fill:none;}.i{stroke:#d1506e;}.j{stroke:#ae7cb6;}.e{fill:#fecc83;}.e,.f,.g{font-weight: bold; font-family:"National 2 Web", -apple-system, BlinkMacSystemFont, Helvetica, Arial, sans-serif, 'National 2';}.f{fill:#ae7cb6;}.g{fill:#d1506e;}.l{opacity:.51;}.k{stroke:#ccc;stroke-miterlimit:10;stroke-width:.25px;}</style></defs><g id="a"><rect class="c" x="-223.37" y="-2646.49" width="11086.49" height="5126.92"/></g><g id="b"><g><g class="l"><line class="k" x1="6.12" y1="324.03" x2="584.92" y2="324.03"/><line class="k" x1="6.12" y1="254.5" x2="584.92" y2="254.5"/><line class="k" x1="6.12" y1="183.64" x2="584.92" y2="183.64"/><line class="k" x1="6.12" y1="114.11" x2="584.92" y2="114.11"/><line class="k" x1="6.12" y1="43.26" x2="584.92" y2="43.26"/><text class="d" transform="translate(6.12 387.52)"><tspan x="0" y="0">0</tspan></text><text class="d" transform="translate(6.31 317.41)"><tspan x="0" y="0">25</tspan></text><text class="d" transform="translate(6.54 247.31)"><tspan x="0" y="0">50</tspan></text><text class="d" transform="translate(6.49 177.2)"><tspan x="0" y="0">75</tspan></text><text class="d" transform="translate(6.72 107.09)"><tspan x="0" y="0">100</tspan></text><text class="d" transform="translate(6.72 36.98)"><tspan x="0" y="0">125 minutes/day</tspan></text></g><line class="k" x1="110.92" y1="403.88" x2="110.92" y2="394.8"/><line class="k" x1="249.92" y1="403.88" x2="249.92" y2="394.8"/><line class="k" x1="389.92" y1="403.88" x2="389.92" y2="394.8"/><line class="k" x1="528.92" y1="403.88" x2="528.92" y2="394.8"/><line class="k" x1="6.42" y1="394.8" x2="584.92" y2="394.8"/><g class="l"><text class="d" transform="translate(89.5 419.91)"><tspan x="0" y="0">2005</tspan></text></g><g class="l"><text class="d" transform="translate(230.35 419.91)"><tspan x="0" y="0">2010</tspan></text></g><g class="l"><text class="d" transform="translate(370.17 419.91)"><tspan x="0" y="0">2015</tspan></text></g><g class="l"><text class="d" transform="translate(507.61 419.91)"><tspan x="0" y="0">2020</tspan></text></g><text class="f" transform="translate(441.04 196.49)"><tspan x="0" y="0">34 or younger</tspan></text><text class="g" transform="translate(441.04 341.74)"><tspan x="0" y="0">35-64</tspan></text><text class="e" transform="translate(441.04 286.51)"><tspan x="0" y="0">65+</tspan></text><polyline class="j" points="55.27 95 83.13 112.23 110.98 119.07 138.84 157.55 166.7 164.3 194.56 166.57 222.42 162.51 250.27 121.22 278.13 139.01 305.99 134.91 333.85 143.16 361.7 169.07 389.56 182.03 417.42 188.09 445.28 206.55 473.14 208.43 500.99 245.33 528.85 297.98 556.71 290.93 584.57 288.05"/><polyline class="i" points="55.27 301.77 83.13 292.91 110.98 306.08 138.84 306.57 166.7 302.3 194.56 301.52 222.42 300.74 250.27 296.82 278.13 295.41 305.99 302.94 333.85 295.44 361.7 301.51 389.56 297.14 417.42 305.74 445.28 317.76 473.14 320.51 500.99 328.69 528.85 359.27 556.71 349.7 584.57 347.04"/><polyline class="h" points="55.27 281.42 83.13 269.77 110.98 274.77 138.84 272.96 166.7 266.12 194.56 291.88 222.42 285.43 250.27 294.02 278.13 290.47 305.99 273.19 333.85 276.6 361.7 283.96 389.56 291.62 417.42 281.77 445.28 303.85 473.14 304.56 500.99 314.07 528.85 358.71 556.71 342.52 584.57 341.93"/></g></g></svg>