<?xml version="1.0" encoding="UTF-8"?><svg id="a" xmlns="http://www.w3.org/2000/svg" viewBox="0 0 400 383.58"><defs><style>.b{fill:#fff;font-family:"National 2 Web", -apple-system, BlinkMacSystemFont, Helvetica, Arial, sans-serif;}.b,.c,.d,.e{font-size:19px;}.f{stroke:#fecc83;}.f,.g,.h{stroke-linecap:round;stroke-linejoin:round;stroke-width:2px;}.f,.g,.h,.i{fill:none;}.g{stroke:#d1506e;}.h{stroke:#ae7cb6;}.c{fill:#fecc83;}.c,.d,.e{font-weight:bold;font-family:"National 2 Web", -apple-system, BlinkMacSystemFont, Helvetica, Arial, sans-serif;}.d{fill:#ae7cb6;}.e{fill:#d1506e;}.j{opacity:.51;}.i{stroke:#ccc;stroke-miterlimit:10;stroke-width:.25px;}</style></defs><g class="j"><line class="i" x1="6.34" y1="234.02" x2="391.95" y2="234.02"/><line class="i" x1="6.34" y1="129.66" x2="391.95" y2="129.66"/><line class="i" x1="6.34" y1="24.14" x2="391.95" y2="24.14"/><text class="b" transform="translate(6.34 332.69)"><tspan x="0" y="0">200</tspan></text><text class="b" transform="translate(6.53 228.27)"><tspan x="0" y="0">300</tspan></text><text class="b" transform="translate(6.53 123.85)"><tspan x="0" y="0">400</tspan></text><text class="b" transform="translate(6.49 19.43)"><tspan x="0" y="0">500 minutes/day</tspan></text></g><line class="i" x1="76.52" y1="347.08" x2="76.52" y2="338.59"/><line class="i" x1="169.04" y1="347.08" x2="169.04" y2="338.59"/><line class="i" x1="262.22" y1="347.08" x2="262.22" y2="338.59"/><line class="i" x1="354.74" y1="347.08" x2="354.74" y2="338.59"/><line class="i" x1="6.97" y1="338.59" x2="392.02" y2="338.59"/><g class="j"><text class="b" transform="translate(55.08 362.07)"><tspan x="0" y="0">2005</tspan></text></g><g class="j"><text class="b" transform="translate(149.36 362.07)"><tspan x="0" y="0">2010</tspan></text></g><g class="j"><text class="b" transform="translate(242.6 362.07)"><tspan x="0" y="0">2015</tspan></text></g><g class="j"><text class="b" transform="translate(333.46 362.07)"><tspan x="0" y="0">2020</tspan></text></g><polyline class="h" points="39.42 313.07 57.96 312.53 76.5 326.45 95.05 329.46 113.59 318.38 132.13 322.11 150.67 319.3 169.22 319.98 187.76 321.59 206.3 321.02 224.84 319.01 243.38 319.76 261.93 309.69 280.47 301.24 299.01 312.06 317.55 294.71 336.09 287.08 354.64 244.72 373.18 239.64 391.72 261.9"/><polyline class="g" points="39.42 254.16 57.96 248.29 76.5 253.62 95.05 252.78 113.59 253.44 132.13 241.8 150.67 239.22 169.22 243.31 187.76 242.34 206.3 250.24 224.84 251.92 243.38 249.45 261.93 246.39 280.47 247.91 299.01 248.95 317.55 247.6 336.09 243.47 354.64 231.68 373.18 245.66 391.72 255.66"/><polyline class="f" points="39.42 87.06 57.96 82.13 76.5 90.18 95.05 91.36 113.59 91.16 132.13 88.19 150.67 74.26 169.22 83.27 187.76 90.7 206.3 83.58 224.84 87.62 243.38 84.2 261.93 81.8 280.47 85.71 299.01 86.46 317.55 91.79 336.09 73.42 354.64 52.24 373.18 65.7 391.72 70.09"/><text class="d" transform="translate(271.74 329.46)"><tspan x="0" y="0">34 or younger</tspan></text><text class="e" transform="translate(340.27 225.13)"><tspan x="0" y="0">35-64</tspan></text><text class="c" transform="translate(357.01 91.79)"><tspan x="0" y="0">65+</tspan></text></svg>