<?xml version="1.0" encoding="UTF-8"?><svg id="a" xmlns="http://www.w3.org/2000/svg" viewBox="0 0 620 413.2"><defs><style>.b{fill:#fff;font-family:"National 2 Web", -apple-system, BlinkMacSystemFont, Helvetica, Arial, sans-serif;}.b,.c,.d,.e{font-size:19px;}.f{stroke:#fecc83;}.f,.g,.h{stroke-linecap:round;stroke-linejoin:round;stroke-width:2px;}.f,.g,.h,.i{fill:none;}.g{stroke:#d1506e;}.h{stroke:#ae7cb6;}.c{fill:#fecc83;}.c,.d,.e{font-weight:bold;font-family:"National 2 Web", -apple-system, BlinkMacSystemFont, Helvetica, Arial, sans-serif;}.d{fill:#ae7cb6;}.e{fill:#d1506e;}.j{opacity:.51;}.i{stroke:#ccc;stroke-miterlimit:10;stroke-width:.25px;}</style></defs><g class="j"><line class="i" x1="5.97" y1="253.13" x2="585.33" y2="253.13"/><line class="i" x1="5.97" y1="140.44" x2="585.33" y2="140.44"/><line class="i" x1="5.97" y1="26.48" x2="585.33" y2="26.48"/><text class="b" transform="translate(5.97 359.68)"><tspan x="0" y="0">200</tspan></text><text class="b" transform="translate(6.26 246.92)"><tspan x="0" y="0">300</tspan></text><text class="b" transform="translate(6.26 134.16)"><tspan x="0" y="0">400</tspan></text><text class="b" transform="translate(6.2 21.39)"><tspan x="0" y="0">500 minutes/day</tspan></text></g><line class="i" x1="111.42" y1="375.23" x2="111.42" y2="366.06"/><line class="i" x1="250.42" y1="375.23" x2="250.42" y2="366.06"/><line class="i" x1="390.42" y1="375.23" x2="390.42" y2="366.06"/><line class="i" x1="529.42" y1="375.23" x2="529.42" y2="366.06"/><line class="i" x1="6.92" y1="366.06" x2="585.42" y2="366.06"/><g class="j"><text class="b" transform="translate(89.99 391.41)"><tspan x="0" y="0">2005</tspan></text></g><g class="j"><text class="b" transform="translate(230.85 391.41)"><tspan x="0" y="0">2010</tspan></text></g><g class="j"><text class="b" transform="translate(370.67 391.41)"><tspan x="0" y="0">2015</tspan></text></g><g class="j"><text class="b" transform="translate(508.11 391.41)"><tspan x="0" y="0">2020</tspan></text></g><polyline class="h" points="55.68 338.5 83.53 337.92 111.39 352.95 139.25 356.19 167.11 344.23 194.96 348.26 222.82 345.22 250.68 345.96 278.54 347.7 306.4 347.08 334.25 344.91 362.11 345.72 389.97 334.84 417.83 325.72 445.69 337.4 473.54 318.67 501.4 310.43 529.26 264.69 557.12 259.19 584.98 283.24"/><polyline class="g" points="55.68 274.88 83.53 268.54 111.39 274.3 139.25 273.39 167.11 274.11 194.96 261.54 222.82 258.75 250.68 263.17 278.54 262.12 306.4 270.65 334.25 272.46 362.11 269.79 389.97 266.49 417.83 268.13 445.69 269.25 473.54 267.79 501.4 263.33 529.26 250.6 557.12 265.7 584.98 276.5"/><polyline class="f" points="55.68 94.43 83.53 89.11 111.39 97.8 139.25 99.07 167.11 98.85 194.96 95.65 222.82 80.61 250.68 90.33 278.54 98.36 306.4 90.67 334.25 95.04 362.11 91.35 389.97 88.75 417.83 92.98 445.69 93.78 473.54 99.54 501.4 79.7 529.26 56.83 557.12 71.37 584.98 76.11"/><text class="d" transform="translate(475.73 337)"><tspan x="0" y="0">34 or younger</tspan></text><text class="e" transform="translate(520.56 243.53)"><tspan x="0" y="0">35-64</tspan></text><text class="c" transform="translate(556.42 95.99)"><tspan x="0" y="0">65+</tspan></text></svg>