<?xml version="1.0" encoding="UTF-8"?><svg id="a" xmlns="http://www.w3.org/2000/svg" viewBox="0 0 620 509.6"><defs><style>.b,.c{fill:#fecc83;}.d{fill:#7d5588;}.e{fill:#ccc;}.f{fill:#d1506e;}.g{font-size:19.41px;}.g,.h,.i{fill:#fff;font-family:"National 2 Web", -apple-system, BlinkMacSystemFont, Helvetica, Arial, sans-serif;}.j{fill:#edcde2;}.j,.c,.k{font-weight:bold;font-family:"National 2 Web", -apple-system, BlinkMacSystemFont, Helvetica, Arial, sans-serif;font-size:18.07px;}.k{fill:#f8bfd3;}.h{font-size:14px;}.l{stroke:#333;}.l,.m,.n,.o{fill:none;stroke-miterlimit:10;}.m,.n,.o{stroke:#ccc;}.p{opacity:.64;}.q{opacity:.51;}.r{opacity:.72;}.i{font-size:16px;}.n{stroke-width:.25px;}.o{stroke-width:.5px;}</style></defs><polygon class="d" points="51.76 229.79 104.75 255.7 157.74 232.06 210.73 240.08 263.72 251.26 316.71 239.15 369.7 263.25 422.7 276.07 475.69 276.43 528.68 283.45 581.67 275.22 581.67 431.98 528.68 431.98 475.69 431.98 422.7 431.98 369.7 431.98 316.71 431.98 263.72 431.98 210.73 431.98 157.74 431.98 104.75 431.98 51.76 431.98 51.76 229.79"/><polygon class="f" points="51.76 97.82 104.75 127.69 157.74 129.98 210.73 143.99 263.72 153.83 316.71 131.98 369.7 151.15 422.7 146.9 475.69 131.45 528.68 112.89 581.67 116.32 581.67 275.22 528.68 283.45 475.69 276.43 422.7 276.07 369.7 263.25 316.71 239.15 263.72 251.26 210.73 240.08 157.74 232.06 104.75 255.7 51.76 229.79 51.76 97.82"/><polygon class="b" points="51.76 87.44 104.75 112.89 157.74 112.32 210.73 127.97 263.72 136.66 316.71 123.08 369.7 137.07 422.7 136.67 475.69 120.18 528.68 98.07 581.67 104.04 581.67 116.32 528.68 112.89 475.69 131.45 422.7 146.9 369.7 151.15 316.71 131.98 263.72 153.83 210.73 143.99 157.74 129.98 104.75 127.69 51.76 97.82 51.76 87.44"/><line class="l" x1="51.45" y1="432.28" x2="581.98" y2="432.28"/><g class="q"><text class="g" transform="translate(6.48 425.39)"><tspan x="0" y="0">0</tspan></text><text class="g" transform="translate(6.67 325.47)"><tspan x="0" y="0">200</tspan></text><text class="g" transform="translate(6.96 225.55)"><tspan x="0" y="0">400</tspan></text><text class="g" transform="translate(6.48 125.64)"><tspan x="0" y="0">600</tspan></text><text class="g" transform="translate(6.52 25.72)"><tspan x="0" y="0">800 minutes/day</tspan></text><g><line class="n" x1="8.04" y1="332.28" x2="581.98" y2="332.28"/><line class="n" x1="8.04" y1="232.28" x2="581.98" y2="232.28"/><line class="n" x1="8.04" y1="132.28" x2="581.98" y2="132.28"/><line class="o" x1="8.04" y1="432.58" x2="581.98" y2="432.58"/><line class="n" x1="8.04" y1="32.18" x2="581.98" y2="32.18"/></g><g><line class="o" x1="104.72" y1="442.27" x2="104.72" y2="432.58"/><line class="o" x1="157.71" y1="442.27" x2="157.71" y2="432.58"/><line class="o" x1="210.7" y1="442.27" x2="210.7" y2="432.58"/><line class="o" x1="263.69" y1="442.27" x2="263.69" y2="432.58"/><line class="o" x1="316.68" y1="442.27" x2="316.68" y2="432.58"/><line class="o" x1="369.67" y1="442.27" x2="369.67" y2="432.58"/><line class="o" x1="422.66" y1="442.27" x2="422.66" y2="432.58"/><line class="o" x1="475.64" y1="442.27" x2="475.64" y2="432.58"/><line class="o" x1="528.63" y1="442.27" x2="528.63" y2="432.58"/><line class="o" x1="581.62" y1="442.27" x2="581.62" y2="432.58"/><text class="g" transform="translate(46.31 461.5)"><tspan x="0" y="0">0</tspan></text><text class="g" transform="translate(101.47 461.5)"><tspan x="0" y="0">1</tspan></text><text class="g" transform="translate(153.13 461.5)"><tspan x="0" y="0">2</tspan></text><text class="g" transform="translate(206 461.5)"><tspan x="0" y="0">3</tspan></text><text class="g" transform="translate(258.57 461.5)"><tspan x="0" y="0">4</tspan></text><text class="g" transform="translate(311.91 461.5)"><tspan x="0" y="0">5</tspan></text><text class="g" transform="translate(364.64 461.5)"><tspan x="0" y="0">6</tspan></text><text class="g" transform="translate(418.15 461.5)"><tspan x="0" y="0">7</tspan></text><text class="g" transform="translate(470.66 461.5)"><tspan x="0" y="0">8</tspan></text><text class="g" transform="translate(523.68 461.5)"><tspan x="0" y="0">9</tspan></text><text class="g" transform="translate(569.17 461.5)"><tspan x="0" y="0">10</tspan></text><line class="o" x1="52.13" y1="442.27" x2="52.13" y2="432.58"/></g></g><g class="p"><text class="j" transform="translate(526.39 325.47)"><tspan x="0" y="0">Alone</tspan></text></g><g class="p"><text class="k" transform="translate(477.66 190.64)"><tspan x="0" y="0">With family</tspan></text></g><g class="r"><text class="c" transform="translate(472.08 89.78)"><tspan x="0" y="0">With friends</tspan></text></g><g><text class="g" transform="translate(256.23 494.22)"><tspan x="0" y="0">Cantril ladder</tspan></text><g class="q"><text class="h" transform="translate(491.62 491.89)"><tspan x="0" y="0">BETTER</tspan></text></g><g class="q"><text class="h" transform="translate(88.89 491.88)"><tspan x="0" y="0">WORSE</tspan></text></g><g class="q"><g><line class="m" x1="84.86" y1="487.23" x2="60.64" y2="487.23"/><polygon class="e" points="61.37 484.74 57.05 487.23 61.37 489.72 61.37 484.74"/></g></g><g class="q"><g><line class="m" x1="547.42" y1="487.23" x2="571.64" y2="487.23"/><polygon class="e" points="570.91 489.72 575.23 487.23 570.91 484.74 570.91 489.72"/></g></g></g><text class="i" transform="translate(70.96 182.92)"><tspan x="0" y="0">People lower on the ladder spent </tspan><tspan x="0" y="19.2">less time with family...</tspan></text><text class="i" transform="translate(70.96 298.61)"><tspan x="0" y="0">... and more time alone.</tspan></text></svg>