<?xml version="1.0" encoding="UTF-8"?><svg id="a" xmlns="http://www.w3.org/2000/svg" viewBox="0 0 400 440.92"><defs><style>.b{fill:#fff;font-family:"National 2 Web", -apple-system, BlinkMacSystemFont, Helvetica, Arial, sans-serif;}.b,.c,.d,.e{font-size:19px;}.f{stroke:#fecc84;}.f,.g,.h{stroke-linecap:round;stroke-linejoin:round;stroke-width:2px;}.f,.g,.h,.i{fill:none;}.g{stroke:#d1506e;}.h{stroke:#ae7cb6;}.c{fill:#fecc83;}.c,.d,.e{font-weight:bold;font-family:"National 2 Web", -apple-system, BlinkMacSystemFont, Helvetica, Arial, sans-serif;}.d{fill:#ae7cb6;}.e{fill:#d1506e;}.j{opacity:.51;}.i{stroke:#ccc;stroke-miterlimit:10;stroke-width:.25px;}</style></defs><g class="j"><line class="i" x1="2.84" y1="320.98" x2="392.79" y2="320.98"/><line class="i" x1="2.84" y1="248.39" x2="392.79" y2="248.39"/><line class="i" x1="2.84" y1="174.42" x2="392.79" y2="174.42"/><line class="i" x1="2.84" y1="101.83" x2="392.79" y2="101.83"/><line class="i" x1="2.84" y1="27.87" x2="392.79" y2="27.87"/></g><polyline class="h" points="35.77 190.91 54.55 184.97 73.32 150.94 92.1 169.13 110.88 191.12 129.66 177.86 148.44 155.51 167.22 166.48 185.99 193.07 204.77 181.53 223.55 172.89 242.33 181.16 261.11 225.07 279.89 252.08 298.66 197.26 317.44 240.68 336.22 270.82 355 257.57 373.78 297.02 392.56 309.66"/><polyline class="g" points="35.77 77.46 54.55 102.82 73.32 92.99 92.1 114.48 110.88 82.17 129.66 108.22 148.44 89.55 167.22 102.07 185.99 110.2 204.77 104.37 223.55 98.45 242.33 136.14 261.11 121.08 279.89 126.94 298.66 145.82 317.44 142.96 336.22 163.01 355 136.6 373.78 141.63 392.56 135.23"/><polyline class="f" points="35.77 38.01 54.55 52.23 73.32 63.67 92.1 45.42 110.88 77.9 129.66 58.39 148.44 90.33 167.22 68.43 185.99 95.13 204.77 81.16 223.55 73.88 242.33 97.08 261.11 91.41 279.89 98.06 298.66 41.83 317.44 70.58 336.22 95.13 355 127.58 373.78 103.08 392.56 110.27"/><g class="j"><text class="b" transform="translate(4.9 389.27)"><tspan x="0" y="0">200</tspan></text></g><g class="j"><text class="b" transform="translate(4.9 316.08)"><tspan x="0" y="0">225</tspan></text></g><g class="j"><text class="b" transform="translate(4.9 242.9)"><tspan x="0" y="0">250</tspan></text></g><g class="j"><text class="b" transform="translate(4.9 169.71)"><tspan x="0" y="0">275</tspan></text></g><g class="j"><text class="b" transform="translate(4.8 96.53)"><tspan x="0" y="0">300</tspan></text></g><g class="j"><text class="b" transform="translate(4.8 23.34)"><tspan x="0" y="0">325 minutes/day</tspan></text></g><g class="j"><text class="b" transform="translate(51.84 422.79)"><tspan x="0" y="0">2005</tspan></text></g><g class="j"><text class="b" transform="translate(147.29 422.79)"><tspan x="0" y="0">2010</tspan></text></g><g class="j"><text class="b" transform="translate(241.72 422.79)"><tspan x="0" y="0">2015</tspan></text></g><g class="j"><text class="b" transform="translate(333.76 422.79)"><tspan x="0" y="0">2020</tspan></text></g><text class="d" transform="translate(192.36 280.47)"><tspan x="0" y="0">34 or younger</tspan></text><text class="e" transform="translate(224.76 156.99)"><tspan x="0" y="0">35-64</tspan></text><text class="c" transform="translate(238.01 73.12)"><tspan x="0" y="0">65+</tspan></text><line class="i" x1="73.28" y1="405.01" x2="73.28" y2="394.94"/><line class="i" x1="166.98" y1="405.01" x2="166.98" y2="394.94"/><line class="i" x1="261.35" y1="405.01" x2="261.35" y2="394.94"/><line class="i" x1="355.04" y1="405.01" x2="355.04" y2="394.94"/><line class="i" x1="2.84" y1="394.94" x2="392.79" y2="394.94"/></svg>