<?xml version="1.0" encoding="UTF-8"?><svg xmlns="http://www.w3.org/2000/svg" viewBox="0 0 400 417.82"><defs><style>.c{fill:#28212f;}.d{fill:#fff;font-family:National2-Regular, 'National 2';}.d,.e,.f,.g{font-size:19px;}.h{stroke:#fecc83;}.h,.i,.j{stroke-linecap:round;stroke-linejoin:round;stroke-width:2px;}.h,.i,.j,.k{fill:none;}.i{stroke:#d1506e;}.j{stroke:#ae7cb6;}.e{fill:#fecc83;}.e,.f,.g{font-family:National2-Bold, 'National 2';}.f{fill:#ae7cb6;}.g{fill:#d1506e;}.l{opacity:.51;}.k{stroke:#ccc;stroke-miterlimit:10;stroke-width:.25px;}</style></defs><g id="a"><rect class="c" x="-890.33" y="-2565.38" width="11086.49" height="5126.92"/></g><g id="b"><g><g class="l"><line class="k" x1="4.34" y1="310.59" x2="394.79" y2="310.59"/><line class="k" x1="4.34" y1="243.21" x2="394.79" y2="243.21"/><line class="k" x1="4.34" y1="174.55" x2="394.79" y2="174.55"/><line class="k" x1="4.34" y1="107.17" x2="394.79" y2="107.17"/><line class="k" x1="4.34" y1="38.52" x2="394.79" y2="38.52"/><text class="d" transform="translate(4.34 372.11)"><tspan x="0" y="0">0</tspan></text><text class="d" transform="translate(4.47 304.17)"><tspan x="0" y="0">25</tspan></text><text class="d" transform="translate(4.63 236.24)"><tspan x="0" y="0">50</tspan></text><text class="d" transform="translate(4.59 168.31)"><tspan x="0" y="0">75</tspan></text><text class="d" transform="translate(4.75 100.37)"><tspan x="0" y="0">100</tspan></text><text class="d" transform="translate(4.75 32.44)"><tspan x="0" y="0">125 minutes/day</tspan></text></g><line class="k" x1="75.04" y1="387.96" x2="75.04" y2="379.17"/><line class="k" x1="168.81" y1="387.96" x2="168.81" y2="379.17"/><line class="k" x1="263.25" y1="387.96" x2="263.25" y2="379.17"/><line class="k" x1="357.01" y1="387.96" x2="357.01" y2="379.17"/><line class="k" x1="4.55" y1="379.17" x2="394.79" y2="379.17"/><g class="l"><text class="d" transform="translate(53.6 403.5)"><tspan x="0" y="0">2005</tspan></text></g><g class="l"><text class="d" transform="translate(149.12 403.5)"><tspan x="0" y="0">2010</tspan></text></g><g class="l"><text class="d" transform="translate(243.62 403.5)"><tspan x="0" y="0">2015</tspan></text></g><g class="l"><text class="d" transform="translate(335.73 403.5)"><tspan x="0" y="0">2020</tspan></text></g><text class="f" transform="translate(271.74 168.31)"><tspan x="0" y="0">34 or younger</tspan></text><text class="g" transform="translate(273.38 335.61)"><tspan x="0" y="0">35-64</tspan></text><text class="e" transform="translate(297.73 274.23)"><tspan x="0" y="0">65+</tspan></text><polyline class="j" points="37.5 88.66 56.29 105.36 75.08 111.98 93.88 149.27 112.67 155.81 131.46 158.01 150.25 154.07 169.05 114.06 187.84 131.3 206.63 127.33 225.42 135.32 244.22 160.43 263.01 172.99 281.8 178.86 300.59 196.75 319.39 198.57 338.18 234.33 356.97 285.34 375.76 278.52 394.55 275.73"/><polyline class="i" points="37.5 289.01 56.29 280.43 75.08 293.19 93.88 293.67 112.67 289.53 131.46 288.77 150.25 288.02 169.05 284.22 187.84 282.86 206.63 290.15 225.42 282.89 244.22 288.76 263.01 284.53 281.8 292.87 300.59 304.51 319.39 307.18 338.18 315.11 356.97 344.74 375.76 335.46 394.55 332.88"/><polyline class="h" points="37.5 269.3 56.29 258.01 75.08 262.85 93.88 261.1 112.67 254.48 131.46 279.43 150.25 273.18 169.05 281.51 187.84 278.07 206.63 261.32 225.42 264.63 244.22 271.76 263.01 279.18 281.8 269.63 300.59 291.04 319.39 291.72 338.18 300.94 356.97 344.19 375.76 328.51 394.55 327.94"/></g></g></svg>